  0
SECTION
  2
HEADER
  9
$ACADVER
  1
AC1009
  9
$INSBASE
 10
1307.5448165176599
 20
-1740.145863533462
 30
0.0
  9
$EXTMIN
 10
1283.896241829972
 20
-1774.62924005032
 30
-0.00000001
  9
$EXTMAX
 10
1335.2537534805549
 20
-1673.56425779713
 30
0.00000001
  9
$LIMMIN
 10
0.0
 20
0.0
  9
$LIMMAX
 10
12.0
 20
9.0
  9
$ORTHOMODE
 70
     1
  9
$REGENMODE
 70
     1
  9
$FILLMODE
 70
     1
  9
$QTEXTMODE
 70
     0
  9
$MIRRTEXT
 70
     0
  9
$DRAGMODE
 70
     2
  9
$LTSCALE
 40
1.0
  9
$OSMODE
 70
    37
  9
$ATTMODE
 70
     1
  9
$TEXTSIZE
 40
0.2
  9
$TRACEWID
 40
0.05
  9
$TEXTSTYLE
  7
STANDARD
  9
$CLAYER
  8
0
  9
$CELTYPE
  6
BYLAYER
  9
$CECOLOR
 62
     7
  9
$DIMSCALE
 40
1.0
  9
$DIMASZ
 40
0.18
  9
$DIMEXO
 40
0.0625
  9
$DIMDLI
 40
0.38
  9
$DIMRND
 40
0.0
  9
$DIMDLE
 40
0.0
  9
$DIMEXE
 40
0.18
  9
$DIMTP
 40
0.0
  9
$DIMTM
 40
0.0
  9
$DIMTXT
 40
0.18
  9
$DIMCEN
 40
0.09
  9
$DIMTSZ
 40
0.0
  9
$DIMTOL
 70
     0
  9
$DIMLIM
 70
     0
  9
$DIMTIH
 70
     1
  9
$DIMTOH
 70
     1
  9
$DIMSE1
 70
     0
  9
$DIMSE2
 70
     0
  9
$DIMTAD
 70
     0
  9
$DIMZIN
 70
     0
  9
$DIMBLK
  1

  9
$DIMASO
 70
     1
  9
$DIMSHO
 70
     1
  9
$DIMPOST
  1

  9
$DIMAPOST
  1

  9
$DIMALT
 70
     0
  9
$DIMALTD
 70
     2
  9
$DIMALTF
 40
25.399999999999999
  9
$DIMLFAC
 40
1.0
  9
$DIMTOFL
 70
     0
  9
$DIMTVP
 40
0.0
  9
$DIMTIX
 70
     0
  9
$DIMSOXD
 70
     0
  9
$DIMSAH
 70
     0
  9
$DIMBLK1
  1

  9
$DIMBLK2
  1

  9
$DIMSTYLE
  2
STANDARD
  9
$DIMCLRD
 70
     0
  9
$DIMCLRE
 70
     0
  9
$DIMCLRT
 70
     0
  9
$DIMTFAC
 40
1.0
  9
$DIMGAP
 40
0.09
  9
$LUNITS
 70
     2
  9
$LUPREC
 70
     4
  9
$SKETCHINC
 40
0.1
  9
$FILLETRAD
 40
0.0
  9
$AUNITS
 70
     0
  9
$AUPREC
 70
     0
  9
$MENU
  1
.
  9
$ELEVATION
 40
0.0
  9
$PELEVATION
 40
0.0
  9
$THICKNESS
 40
0.0
  9
$LIMCHECK
 70
     0
  9
$BLIPMODE
 70
     0
  9
$CHAMFERA
 40
0.0
  9
$CHAMFERB
 40
0.0
  9
$SKPOLY
 70
     0
  9
$TDCREATE
 40
2454847.1667784262
  9
$TDUPDATE
 40
2454853.7314238539
  9
$TDINDWG
 40
0.3799881366
  9
$TDUSRTIMER
 40
0.3799881366
  9
$USRTIMER
 70
     1
  9
$ANGBASE
 50
0.0
  9
$ANGDIR
 70
     0
  9
$PDMODE
 70
     0
  9
$PDSIZE
 40
0.0
  9
$PLINEWID
 40
0.0
  9
$COORDS
 70
     1
  9
$SPLFRAME
 70
     0
  9
$SPLINETYPE
 70
     6
  9
$SPLINESEGS
 70
     8
  9
$ATTDIA
 70
     0
  9
$ATTREQ
 70
     1
  9
$HANDLING
 70
     1
  9
$HANDSEED
  5
125
  9
$SURFTAB1
 70
     6
  9
$SURFTAB2
 70
     6
  9
$SURFTYPE
 70
     6
  9
$SURFU
 70
     6
  9
$SURFV
 70
     6
  9
$UCSNAME
  2

  9
$UCSORG
 10
0.0
 20
0.0
 30
0.0
  9
$UCSXDIR
 10
1.0
 20
0.0
 30
0.0
  9
$UCSYDIR
 10
0.0
 20
1.0
 30
0.0
  9
$PUCSNAME
  2

  9
$PUCSORG
 10
0.0
 20
0.0
 30
0.0
  9
$PUCSXDIR
 10
1.0
 20
0.0
 30
0.0
  9
$PUCSYDIR
 10
0.0
 20
1.0
 30
0.0
  9
$USERI1
 70
     0
  9
$USERI2
 70
     0
  9
$USERI3
 70
     0
  9
$USERI4
 70
     0
  9
$USERI5
 70
     0
  9
$USERR1
 40
0.0
  9
$USERR2
 40
0.0
  9
$USERR3
 40
0.0
  9
$USERR4
 40
0.0
  9
$USERR5
 40
0.0
  9
$WORLDVIEW
 70
     1
  9
$SHADEDGE
 70
     3
  9
$SHADEDIF
 70
    70
  9
$TILEMODE
 70
     1
  9
$MAXACTVP
 70
    64
  9
$PLIMCHECK
 70
     0
  9
$PEXTMIN
 10
0.0
 20
0.0
 30
0.0
  9
$PEXTMAX
 10
0.0
 20
0.0
 30
0.0
  9
$PLIMMIN
 10
0.0
 20
0.0
  9
$PLIMMAX
 10
12.0
 20
9.0
  9
$UNITMODE
 70
     0
  9
$VISRETAIN
 70
     1
  9
$PLINEGEN
 70
     0
  9
$PSLTSCALE
 70
     1
  0
ENDSEC
  0
SECTION
  2
TABLES
  0
TABLE
  2
VPORT
 70
     1
  0
VPORT
  2
*ACTIVE
 70
     0
 10
0.0
 20
0.0
 11
1.0
 21
1.0
 12
198.34898828980761
 22
9.2645657213895447
 13
0.0
 23
0.0
 14
0.5
 24
0.5
 15
0.5
 25
0.5
 16
0.0
 26
0.0
 36
2378.1729457174638
 17
1111.2260093654561
 27
-1733.361314645115
 37
0.0
 40
102.0229441702823
 41
2.0174050632911391
 42
50.0
 43
0.0
 44
0.0
 50
0.0
 51
0.0
 71
     0
 72
  1000
 73
     1
 74
     3
 75
     0
 76
     0
 77
     0
 78
     0
  0
ENDTAB
  0
TABLE
  2
LTYPE
 70
     1
  0
LTYPE
  2
CONTINUOUS
 70
     0
  3
Solid line
 72
    65
 73
     0
 40
0.0
  0
ENDTAB
  0
TABLE
  2
LAYER
 70
     1
  0
LAYER
  2
0
 70
     0
 62
     7
  6
CONTINUOUS
  0
ENDTAB
  0
TABLE
  2
STYLE
 70
     1
  0
STYLE
  2
STANDARD
 70
     0
 40
0.0
 41
1.0
 50
0.0
 71
     0
 42
0.2
  3
txt
  4

  0
ENDTAB
  0
TABLE
  2
VIEW
 70
     0
  0
ENDTAB
  0
TABLE
  2
UCS
 70
     0
  0
ENDTAB
  0
TABLE
  2
APPID
 70
     3
  0
APPID
  2
ACAD
 70
     0
  0
APPID
  2
ACAD_MLEADERVER
 70
     0
  0
APPID
  2
ACADSTRINGINFO
 70
     0
  0
ENDTAB
  0
TABLE
  2
DIMSTYLE
 70
     1
  0
DIMSTYLE
  2
STANDARD
 70
     0
  3

  4

  5

  6

  7

 40
1.0
 41
0.18
 42
0.0625
 43
0.38
 44
0.18
 45
0.0
 46
0.0
 47
0.0
 48
0.0
140
0.18
141
0.09
142
0.0
143
25.399999999999999
144
1.0
145
0.0
146
1.0
147
0.09
 71
     0
 72
     0
 73
     1
 74
     1
 75
     0
 76
     0
 77
     0
 78
     0
170
     0
171
     2
172
     0
173
     0
174
     0
175
     0
176
     0
177
     0
178
     0
  0
ENDTAB
  0
ENDSEC
  0
SECTION
  2
BLOCKS
  0
BLOCK
  8
0
  2
$MODEL_SPACE
 70
     0
 10
0.0
 20
0.0
 30
0.0
  3
$MODEL_SPACE
  1

  0
ENDBLK
  5
9
  8
0
  0
BLOCK
 67
     1
  8
0
  2
$PAPER_SPACE
 70
     0
 10
0.0
 20
0.0
 30
0.0
  3
$PAPER_SPACE
  1

  0
ENDBLK
  5
E
 67
     1
  8
0
  0
BLOCK
  8
0
 62
     7
  2
A$C364F5C67
 70
     0
 10
0.0
 20
0.0
 30
0.0
  3
A$C364F5C67
  1

  0
POLYLINE
  5
29
  8
0
 62
     7
 66
     1
 10
0.0
 20
0.0
 30
0.0
  0
VERTEX
  5
FF
  8
0
 62
     7
 10
-44.669267657131961
 20
73.46592722921082
 30
0.0
  0
VERTEX
  5
100
  8
0
 62
     7
 10
-46.22031764159032
 20
101.4474956357041
 30
0.0
  0
VERTEX
  5
101
  8
0
 62
     7
 10
-47.263027001329419
 20
106.1396877545296
 30
0.0
  0
SEQEND
  5
102
  8
0
 62
     7
  0
ARC
  5
2A
  8
0
 62
     7
 10
-44.347213791684219
 20
73.568780706823404
 30
0.0
 40
0.3380791772747983
 50
197.71178251376429
 51
272.94628606791969
  0
POLYLINE
  5
2B
  8
0
 62
     7
 66
     1
 10
0.0
 20
0.0
 30
0.0
  0
VERTEX
  5
103
  8
0
 62
     7
 10
-50.874750817319182
 20
22.043598028913038
 30
0.0
  0
VERTEX
  5
104
  8
0
 62
     7
 10
-7.2790017196020917
 20
22.043598028913038
 30
0.0
  0
SEQEND
  5
105
  8
0
 62
     7
  0
POLYLINE
  5
2C
  8
0
 62
     7
 66
     1
 10
0.0
 20
0.0
 30
0.0
  0
VERTEX
  5
106
  8
0
 62
     7
 10
-49.319595255315562
 20
107.7125671847871
 30
0.0
  0
VERTEX
  5
107
  8
0
 62
     7
 10
-52.057171699785613
 20
107.7177421875178
 30
0.0
  0
SEQEND
  5
108
  8
0
 62
     7
  0
POLYLINE
  5
2D
  8
0
 62
     7
 66
     1
 10
0.0
 20
0.0
 30
0.0
  0
VERTEX
  5
109
  8
0
 62
     7
 10
-54.056436466290513
 20
105.9927587952447
 30
0.0
  0
VERTEX
  5
10A
  8
0
 62
     7
 10
-54.056436466295509
 20
105.9927587952365
 30
0.0
  0
VERTEX
  5
10B
  8
0
 62
     7
 10
-54.056436466295509
 20
62.788256192047577
 30
0.0
  0
VERTEX
  5
10C
  8
0
 62
     7
 10
-49.348445720807383
 20
62.266901512178038
 30
0.0
  0
VERTEX
  5
10D
  8
0
 62
     7
 10
-9.1725381175303937
 20
62.266901512178038
 30
0.0
  0
VERTEX
  5
10E
  8
0
 62
     7
 10
-3.437636638965841
 20
62.788256192047577
 30
0.0
  0
SEQEND
  5
10F
  8
0
 62
     7
  0
POLYLINE
  5
2E
  8
0
 62
     7
 66
     1
 10
0.0
 20
0.0
 30
0.0
 70
     4
  0
VERTEX
  5
2F
  8
0
 62
     7
 10
-47.263027001329419
 20
106.1396877545296
 30
0.0
 70
    16
  0
VERTEX
  5
30
  8
0
 62
     7
 10
-47.263027001329419
 20
106.1396877545296
 30
0.0
 70
     8
  0
VERTEX
  5
31
  8
0
 62
     7
 10
-47.963489353979639
 20
106.9787950548759
 30
0.0
 70
     8
  0
VERTEX
  5
32
  8
0
 62
     7
 10
-48.841038266038588
 20
107.55579364727819
 30
0.0
 70
     8
  0
VERTEX
  5
33
  8
0
 62
     7
 10
-49.828375290726171
 20
107.8792416828143
 30
0.0
 70
     8
  0
VERTEX
  5
34
  8
0
 62
     7
 10
-50.858201981262702
 20
107.9576973125624
 30
0.0
 70
     8
  0
VERTEX
  5
35
  8
0
 62
     7
 10
-51.863219890867867
 20
107.7997186876009
 30
0.0
 70
     8
  0
VERTEX
  5
36
  8
0
 62
     7
 10
-52.776130572761531
 20
107.4138639590076
 30
0.0
 70
     8
  0
VERTEX
  5
37
  8
0
 62
     7
 10
-53.52963558016404
 20
106.8086912778606
 30
0.0
 70
     8
  0
VERTEX
  5
38
  8
0
 62
     7
 10
-54.056436466294819
 20
105.9927587952381
 30
0.0
 70
     8
  0
VERTEX
  5
39
  8
0
 62
     7
 10
-48.834990354269159
 20
108.7343927447816
 30
0.0
 70
    16
  0
VERTEX
  5
3A
  8
0
 62
     7
 10
-53.013727106556871
 20
108.4419845721293
 30
0.0
 70
    16
  0
VERTEX
  5
3B
  8
0
 62
     7
 10
-54.056436466295509
 20
105.9927587952365
 30
0.0
 70
    16
  0
SEQEND
  5
3C
  8
0
 62
     7
  0
ARC
  5
3D
  8
0
 62
     7
 10
-25.3004955542151
 20
65.878780549860267
 30
0.0
 40
22.080216048633421
 50
351.95400367326778
 51
17.850033544697741
  0
POLYLINE
  5
3E
  8
0
 62
     7
 66
     1
 10
0.0
 20
0.0
 30
0.0
  0
VERTEX
  5
110
  8
0
 62
     7
 10
-7.4017171578025218
 20
24.650371428260542
 30
0.0
  0
VERTEX
  5
111
  8
0
 62
     7
 10
-50.77583473683034
 20
24.650371428260542
 30
0.0
  0
SEQEND
  5
112
  8
0
 62
     7
  0
POLYLINE
  5
3F
  8
0
 62
     7
 66
     1
 10
0.0
 20
0.0
 30
0.0
 70
     1
  0
VERTEX
  5
113
  8
0
 62
     7
 10
-51.449663066948013
 20
6.8927150593719944
 30
0.0
  0
VERTEX
  5
114
  8
0
 62
     7
 10
-49.348445720807383
 20
62.266901512178038
 30
0.0
  0
VERTEX
  5
115
  8
0
 62
     7
 10
-53.016874526673739
 20
62.673136916854673
 30
0.0
  0
VERTEX
  5
116
  8
0
 62
     7
 10
-54.577791146165048
 20
6.8927150593719944
 30
0.0
  0
SEQEND
  5
117
  8
0
 62
     7
  0
POLYLINE
  5
40
  8
0
 62
     7
 66
     1
 10
0.0
 20
0.0
 30
0.0
 70
     1
  0
VERTEX
  5
118
  8
0
 62
     7
 10
-9.1725381175303937
 20
62.266901512178038
 30
0.0
  0
VERTEX
  5
119
  8
0
 62
     7
 10
-6.5657647181828898
 20
6.8927150593719944
 30
0.0
  0
SEQEND
  5
11A
  8
0
 62
     7
  0
POLYLINE
  5
41
  8
0
 62
     7
 66
     1
 10
0.0
 20
0.0
 30
0.0
  0
VERTEX
  5
11B
  8
0
 62
     7
 10
-3.9589913188353871
 20
6.8927150593719944
 30
0.0
  0
VERTEX
  5
11C
  8
0
 62
     7
 10
-4.999759349605255
 20
62.646245036534992
 30
0.0
  0
SEQEND
  5
11D
  8
0
 62
     7
  0
POLYLINE
  5
42
  8
0
 62
     7
 66
     1
 10
0.0
 20
0.0
 30
0.0
  0
VERTEX
  5
11E
  8
0
 62
     7
 10
-5.4234056300338116
 20
73.231148416100268
 30
0.0
  0
VERTEX
  5
11F
  8
0
 62
     7
 10
-44.364590971197678
 20
73.231148416100268
 30
0.0
  0
SEQEND
  5
120
  8
0
 62
     7
  0
LINE
  5
43
  8
0
 62
     7
 10
-6.5657647181828898
 20
6.8927150593719944
 30
0.0
 11
-3.9598993800309472
 21
6.9413595369064751
 31
0.0
  0
ARC
  5
44
  8
0
 62
     7
 10
-5.437071381987379
 20
71.799626368871486
 30
0.0
 40
1.43158727448836
 50
36.290564227551329
 51
89.453053392734446
  0
ENDBLK
  5
45
  8
0
 62
     7
  0
ENDSEC
  0
SECTION
  2
ENTITIES
  0
INSERT
  5
26
  8
0
 62
     7
  2
A$C364F5C67
 10
1280.6759623343901
 20
-1781.521955109693
 30
0.0
 41
-1.0
  0
ENDSEC
  0
EOF
