  0
SECTION
  2
HEADER
  9
$ACADVER
  1
AC1009
  9
$INSBASE
 10
1195.490679476816
 20
-1560.355331182805
 30
0.0
  9
$EXTMIN
 10
1173.8874390056251
 20
-1594.2878529620971
 30
-0.00000001
  9
$EXTMAX
 10
1213.41039715272
 20
-1543.178884154479
 30
0.00000001
  9
$LIMMIN
 10
0.0
 20
0.0
  9
$LIMMAX
 10
12.0
 20
9.0
  9
$ORTHOMODE
 70
     1
  9
$REGENMODE
 70
     1
  9
$FILLMODE
 70
     1
  9
$QTEXTMODE
 70
     0
  9
$MIRRTEXT
 70
     0
  9
$DRAGMODE
 70
     2
  9
$LTSCALE
 40
1.0
  9
$OSMODE
 70
    37
  9
$ATTMODE
 70
     1
  9
$TEXTSIZE
 40
0.2
  9
$TRACEWID
 40
0.05
  9
$TEXTSTYLE
  7
STANDARD
  9
$CLAYER
  8
0
  9
$CELTYPE
  6
BYLAYER
  9
$CECOLOR
 62
     7
  9
$DIMSCALE
 40
1.0
  9
$DIMASZ
 40
0.18
  9
$DIMEXO
 40
0.0625
  9
$DIMDLI
 40
0.38
  9
$DIMRND
 40
0.0
  9
$DIMDLE
 40
0.0
  9
$DIMEXE
 40
0.18
  9
$DIMTP
 40
0.0
  9
$DIMTM
 40
0.0
  9
$DIMTXT
 40
0.18
  9
$DIMCEN
 40
0.09
  9
$DIMTSZ
 40
0.0
  9
$DIMTOL
 70
     0
  9
$DIMLIM
 70
     0
  9
$DIMTIH
 70
     1
  9
$DIMTOH
 70
     1
  9
$DIMSE1
 70
     0
  9
$DIMSE2
 70
     0
  9
$DIMTAD
 70
     0
  9
$DIMZIN
 70
     0
  9
$DIMBLK
  1

  9
$DIMASO
 70
     1
  9
$DIMSHO
 70
     1
  9
$DIMPOST
  1

  9
$DIMAPOST
  1

  9
$DIMALT
 70
     0
  9
$DIMALTD
 70
     2
  9
$DIMALTF
 40
25.399999999999999
  9
$DIMLFAC
 40
1.0
  9
$DIMTOFL
 70
     0
  9
$DIMTVP
 40
0.0
  9
$DIMTIX
 70
     0
  9
$DIMSOXD
 70
     0
  9
$DIMSAH
 70
     0
  9
$DIMBLK1
  1

  9
$DIMBLK2
  1

  9
$DIMSTYLE
  2
STANDARD
  9
$DIMCLRD
 70
     0
  9
$DIMCLRE
 70
     0
  9
$DIMCLRT
 70
     0
  9
$DIMTFAC
 40
1.0
  9
$DIMGAP
 40
0.09
  9
$LUNITS
 70
     2
  9
$LUPREC
 70
     4
  9
$SKETCHINC
 40
0.1
  9
$FILLETRAD
 40
0.0
  9
$AUNITS
 70
     0
  9
$AUPREC
 70
     0
  9
$MENU
  1
.
  9
$ELEVATION
 40
0.0
  9
$PELEVATION
 40
0.0
  9
$THICKNESS
 40
0.0
  9
$LIMCHECK
 70
     0
  9
$BLIPMODE
 70
     0
  9
$CHAMFERA
 40
0.0
  9
$CHAMFERB
 40
0.0
  9
$SKPOLY
 70
     0
  9
$TDCREATE
 40
2454847.1667784262
  9
$TDUPDATE
 40
2454853.7312118062
  9
$TDINDWG
 40
0.3793814352
  9
$TDUSRTIMER
 40
0.3793814352
  9
$USRTIMER
 70
     1
  9
$ANGBASE
 50
0.0
  9
$ANGDIR
 70
     0
  9
$PDMODE
 70
     0
  9
$PDSIZE
 40
0.0
  9
$PLINEWID
 40
0.0
  9
$COORDS
 70
     1
  9
$SPLFRAME
 70
     0
  9
$SPLINETYPE
 70
     6
  9
$SPLINESEGS
 70
     8
  9
$ATTDIA
 70
     0
  9
$ATTREQ
 70
     1
  9
$HANDLING
 70
     1
  9
$HANDSEED
  5
115
  9
$SURFTAB1
 70
     6
  9
$SURFTAB2
 70
     6
  9
$SURFTYPE
 70
     6
  9
$SURFU
 70
     6
  9
$SURFV
 70
     6
  9
$UCSNAME
  2

  9
$UCSORG
 10
0.0
 20
0.0
 30
0.0
  9
$UCSXDIR
 10
1.0
 20
0.0
 30
0.0
  9
$UCSYDIR
 10
0.0
 20
1.0
 30
0.0
  9
$PUCSNAME
  2

  9
$PUCSORG
 10
0.0
 20
0.0
 30
0.0
  9
$PUCSXDIR
 10
1.0
 20
0.0
 30
0.0
  9
$PUCSYDIR
 10
0.0
 20
1.0
 30
0.0
  9
$USERI1
 70
     0
  9
$USERI2
 70
     0
  9
$USERI3
 70
     0
  9
$USERI4
 70
     0
  9
$USERI5
 70
     0
  9
$USERR1
 40
0.0
  9
$USERR2
 40
0.0
  9
$USERR3
 40
0.0
  9
$USERR4
 40
0.0
  9
$USERR5
 40
0.0
  9
$WORLDVIEW
 70
     1
  9
$SHADEDGE
 70
     3
  9
$SHADEDIF
 70
    70
  9
$TILEMODE
 70
     1
  9
$MAXACTVP
 70
    64
  9
$PLIMCHECK
 70
     0
  9
$PEXTMIN
 10
0.0
 20
0.0
 30
0.0
  9
$PEXTMAX
 10
0.0
 20
0.0
 30
0.0
  9
$PLIMMIN
 10
0.0
 20
0.0
  9
$PLIMMAX
 10
12.0
 20
9.0
  9
$UNITMODE
 70
     0
  9
$VISRETAIN
 70
     1
  9
$PLINEGEN
 70
     0
  9
$PSLTSCALE
 70
     1
  0
ENDSEC
  0
SECTION
  2
TABLES
  0
TABLE
  2
VPORT
 70
     1
  0
VPORT
  2
*ACTIVE
 70
     0
 10
0.0
 20
0.0
 11
1.0
 21
1.0
 12
82.422908713715969
 22
164.6279460868266
 13
0.0
 23
0.0
 14
0.5
 24
0.5
 15
0.5
 25
0.5
 16
0.0
 26
0.0
 36
2461.9816898515451
 17
1111.2260093654561
 27
-1733.361314645115
 37
0.0
 40
51.593414009585608
 41
2.0174050632911391
 42
50.0
 43
0.0
 44
0.0
 50
0.0
 51
0.0
 71
     0
 72
  1000
 73
     1
 74
     3
 75
     0
 76
     0
 77
     0
 78
     0
  0
ENDTAB
  0
TABLE
  2
LTYPE
 70
     1
  0
LTYPE
  2
CONTINUOUS
 70
     0
  3
Solid line
 72
    65
 73
     0
 40
0.0
  0
ENDTAB
  0
TABLE
  2
LAYER
 70
     1
  0
LAYER
  2
0
 70
     0
 62
     7
  6
CONTINUOUS
  0
ENDTAB
  0
TABLE
  2
STYLE
 70
     1
  0
STYLE
  2
STANDARD
 70
     0
 40
0.0
 41
1.0
 50
0.0
 71
     0
 42
0.2
  3
txt
  4

  0
ENDTAB
  0
TABLE
  2
VIEW
 70
     0
  0
ENDTAB
  0
TABLE
  2
UCS
 70
     0
  0
ENDTAB
  0
TABLE
  2
APPID
 70
     3
  0
APPID
  2
ACAD
 70
     0
  0
APPID
  2
ACAD_MLEADERVER
 70
     0
  0
APPID
  2
ACADSTRINGINFO
 70
     0
  0
ENDTAB
  0
TABLE
  2
DIMSTYLE
 70
     1
  0
DIMSTYLE
  2
STANDARD
 70
     0
  3

  4

  5

  6

  7

 40
1.0
 41
0.18
 42
0.0625
 43
0.38
 44
0.18
 45
0.0
 46
0.0
 47
0.0
 48
0.0
140
0.18
141
0.09
142
0.0
143
25.399999999999999
144
1.0
145
0.0
146
1.0
147
0.09
 71
     0
 72
     0
 73
     1
 74
     1
 75
     0
 76
     0
 77
     0
 78
     0
170
     0
171
     2
172
     0
173
     0
174
     0
175
     0
176
     0
177
     0
178
     0
  0
ENDTAB
  0
ENDSEC
  0
SECTION
  2
BLOCKS
  0
BLOCK
  8
0
  2
$MODEL_SPACE
 70
     0
 10
0.0
 20
0.0
 30
0.0
  3
$MODEL_SPACE
  1

  0
ENDBLK
  5
9
  8
0
  0
BLOCK
 67
     1
  8
0
  2
$PAPER_SPACE
 70
     0
 10
0.0
 20
0.0
 30
0.0
  3
$PAPER_SPACE
  1

  0
ENDBLK
  5
E
 67
     1
  8
0
  0
BLOCK
  8
0
 62
     7
  2
A$C326B0231
 70
     0
 10
0.0
 20
0.0
 30
0.0
  3
A$C326B0231
  1

  0
POLYLINE
  5
29
  8
0
 62
     7
 66
     1
 10
0.0
 20
0.0
 30
0.0
  0
VERTEX
  5
F3
  8
0
 62
     7
 10
15.96671362838606
 20
86.071683919465386
 30
0.0
  0
VERTEX
  5
F4
  8
0
 62
     7
 10
-2.8110781500490698
 20
86.071683919465386
 30
0.0
  0
SEQEND
  5
F5
  8
0
 62
     7
  0
LINE
  5
2A
  8
0
 62
     7
 10
-2.8110781500492972
 20
77.168356759174685
 30
0.0
 11
15.9667136283856
 21
77.168356759174685
 31
0.0
  0
POLYLINE
  5
2B
  8
0
 62
     7
 66
     1
 10
0.0
 20
0.0
 30
0.0
  0
VERTEX
  5
F6
  8
0
 62
     7
 10
-2.8110781500490698
 20
35.533194039534237
 30
0.0
  0
VERTEX
  5
F7
  8
0
 62
     7
 10
16.153215906314021
 20
35.533194039534237
 30
0.0
  0
SEQEND
  5
F8
  8
0
 62
     7
  0
POLYLINE
  5
2C
  8
0
 62
     7
 66
     1
 10
0.0
 20
0.0
 30
0.0
  0
VERTEX
  5
F9
  8
0
 62
     7
 10
13.535325750804301
 20
86.119204690057131
 30
0.0
  0
VERTEX
  5
FA
  8
0
 62
     7
 10
14.33561018802493
 20
86.642162837151773
 30
0.0
  0
VERTEX
  5
FB
  8
0
 62
     7
 10
16.950400923498361
 20
86.642162837151773
 30
0.0
  0
VERTEX
  5
FC
  8
0
 62
     7
 10
16.950400923498361
 20
84.019448493389305
 30
0.0
  0
VERTEX
  5
FD
  8
0
 62
     7
 10
16.68892184995093
 20
83.496490346294408
 30
0.0
  0
SEQEND
  5
FE
  8
0
 62
     7
  0
ARC
  5
2D
  8
0
 62
     7
 10
15.807615863931231
 20
85.189647441907709
 30
0.0
 40
0.8962702976205768
 50
10.48461804078956
 51
79.775188664032655
  0
ARC
  5
2E
  8
0
 62
     7
 10
15.807615863931231
 20
78.050393236732361
 30
0.0
 40
0.8962702976205768
 50
280.22481133596727
 51
349.5153819592104
  0
ARC
  5
2F
  8
0
 62
     7
 10
16.033869841679
 20
36.183804781677281
 30
0.0
 40
0.661466417088454
 50
280.39460268583531
 51
352.01428826319801
  0
POLYLINE
  5
30
  8
0
 62
     7
 66
     1
 10
0.0
 20
0.0
 30
0.0
  0
VERTEX
  5
FF
  8
0
 62
     7
 10
16.68892184995093
 20
36.091909801429672
 30
0.0
  0
VERTEX
  5
100
  8
0
 62
     7
 10
16.68892184995093
 20
85.352743135911865
 30
0.0
  0
SEQEND
  5
101
  8
0
 62
     7
  0
POLYLINE
  5
31
  8
0
 62
     7
 66
     1
 10
0.0
 20
0.0
 30
0.0
  0
VERTEX
  5
102
  8
0
 62
     7
 10
-2.8110781500490698
 20
35.533194039534237
 30
0.0
  0
VERTEX
  5
103
  8
0
 62
     7
 10
-21.775372206412161
 20
35.533194039534237
 30
0.0
  0
SEQEND
  5
104
  8
0
 62
     7
  0
POLYLINE
  5
32
  8
0
 62
     7
 66
     1
 10
0.0
 20
0.0
 30
0.0
  0
VERTEX
  5
105
  8
0
 62
     7
 10
-22.31107815004907
 20
36.091909801429672
 30
0.0
  0
VERTEX
  5
106
  8
0
 62
     7
 10
-22.31107815004907
 20
85.352743135911865
 30
0.0
  0
SEQEND
  5
107
  8
0
 62
     7
  0
ARC
  5
33
  8
0
 62
     7
 10
-21.656026141777151
 20
36.183804781677281
 30
0.0
 40
0.661466417088454
 50
187.98571173680199
 51
259.60539731416469
  0
ARC
  5
34
  8
0
 62
     7
 10
-21.429772164029369
 20
78.050393236732361
 30
0.0
 40
0.8962702976205768
 50
190.48461804078951
 51
259.77518866403273
  0
ARC
  5
35
  8
0
 62
     7
 10
-21.429772164029369
 20
85.189647441907709
 30
0.0
 40
0.8962702976205768
 50
100.2248113359673
 51
169.5153819592104
  0
POLYLINE
  5
36
  8
0
 62
     7
 66
     1
 10
0.0
 20
0.0
 30
0.0
  0
VERTEX
  5
108
  8
0
 62
     7
 10
-19.157482050902441
 20
86.119204690057131
 30
0.0
  0
VERTEX
  5
109
  8
0
 62
     7
 10
-19.95776648812307
 20
86.642162837151773
 30
0.0
  0
VERTEX
  5
10A
  8
0
 62
     7
 10
-22.572557223596501
 20
86.642162837151773
 30
0.0
  0
VERTEX
  5
10B
  8
0
 62
     7
 10
-22.572557223596501
 20
84.019448493389305
 30
0.0
  0
VERTEX
  5
10C
  8
0
 62
     7
 10
-22.31107815004907
 20
83.496490346294408
 30
0.0
  0
SEQEND
  5
10D
  8
0
 62
     7
  0
LINE
  5
37
  8
0
 62
     7
 10
-2.811078150048842
 20
77.168356759174685
 30
0.0
 11
-21.588869928483739
 21
77.168356759174685
 31
0.0
  0
POLYLINE
  5
38
  8
0
 62
     7
 66
     1
 10
0.0
 20
0.0
 30
0.0
  0
VERTEX
  5
10E
  8
0
 62
     7
 10
-21.5888699284842
 20
86.071683919465386
 30
0.0
  0
VERTEX
  5
10F
  8
0
 62
     7
 10
-2.8110781500490698
 20
86.071683919465386
 30
0.0
  0
SEQEND
  5
110
  8
0
 62
     7
  0
ENDBLK
  5
39
  8
0
 62
     7
  0
ENDSEC
  0
SECTION
  2
ENTITIES
  0
INSERT
  5
26
  8
0
 62
     7
  2
A$C326B0231
 10
1196.4599962292209
 20
-1629.821046991631
 30
0.0
  0
ENDSEC
  0
EOF
