  0
SECTION
  2
HEADER
  9
$ACADVER
  1
AC1009
  9
$INSBASE
 10
1188.699522777124
 20
-1894.9467080892359
 30
0.0
  9
$EXTMIN
 10
1161.2248486820581
 20
-1950.573852387924
 30
-0.00000001
  9
$EXTMAX
 10
1200.8741927789299
 20
-1849.7470170264951
 30
0.00000001
  9
$LIMMIN
 10
0.0
 20
0.0
  9
$LIMMAX
 10
12.0
 20
9.0
  9
$ORTHOMODE
 70
     1
  9
$REGENMODE
 70
     1
  9
$FILLMODE
 70
     1
  9
$QTEXTMODE
 70
     0
  9
$MIRRTEXT
 70
     0
  9
$DRAGMODE
 70
     2
  9
$LTSCALE
 40
1.0
  9
$OSMODE
 70
    37
  9
$ATTMODE
 70
     1
  9
$TEXTSIZE
 40
0.2
  9
$TRACEWID
 40
0.05
  9
$TEXTSTYLE
  7
STANDARD
  9
$CLAYER
  8
0
  9
$CELTYPE
  6
BYLAYER
  9
$CECOLOR
 62
     7
  9
$DIMSCALE
 40
1.0
  9
$DIMASZ
 40
0.18
  9
$DIMEXO
 40
0.0625
  9
$DIMDLI
 40
0.38
  9
$DIMRND
 40
0.0
  9
$DIMDLE
 40
0.0
  9
$DIMEXE
 40
0.18
  9
$DIMTP
 40
0.0
  9
$DIMTM
 40
0.0
  9
$DIMTXT
 40
0.18
  9
$DIMCEN
 40
0.09
  9
$DIMTSZ
 40
0.0
  9
$DIMTOL
 70
     0
  9
$DIMLIM
 70
     0
  9
$DIMTIH
 70
     1
  9
$DIMTOH
 70
     1
  9
$DIMSE1
 70
     0
  9
$DIMSE2
 70
     0
  9
$DIMTAD
 70
     0
  9
$DIMZIN
 70
     0
  9
$DIMBLK
  1

  9
$DIMASO
 70
     1
  9
$DIMSHO
 70
     1
  9
$DIMPOST
  1

  9
$DIMAPOST
  1

  9
$DIMALT
 70
     0
  9
$DIMALTD
 70
     2
  9
$DIMALTF
 40
25.399999999999999
  9
$DIMLFAC
 40
1.0
  9
$DIMTOFL
 70
     0
  9
$DIMTVP
 40
0.0
  9
$DIMTIX
 70
     0
  9
$DIMSOXD
 70
     0
  9
$DIMSAH
 70
     0
  9
$DIMBLK1
  1

  9
$DIMBLK2
  1

  9
$DIMSTYLE
  2
STANDARD
  9
$DIMCLRD
 70
     0
  9
$DIMCLRE
 70
     0
  9
$DIMCLRT
 70
     0
  9
$DIMTFAC
 40
1.0
  9
$DIMGAP
 40
0.09
  9
$LUNITS
 70
     2
  9
$LUPREC
 70
     4
  9
$SKETCHINC
 40
0.1
  9
$FILLETRAD
 40
0.0
  9
$AUNITS
 70
     0
  9
$AUPREC
 70
     0
  9
$MENU
  1
.
  9
$ELEVATION
 40
0.0
  9
$PELEVATION
 40
0.0
  9
$THICKNESS
 40
0.0
  9
$LIMCHECK
 70
     0
  9
$BLIPMODE
 70
     0
  9
$CHAMFERA
 40
0.0
  9
$CHAMFERB
 40
0.0
  9
$SKPOLY
 70
     0
  9
$TDCREATE
 40
2454847.1667784262
  9
$TDUPDATE
 40
2454853.730993669
  9
$TDINDWG
 40
0.3796674884
  9
$TDUSRTIMER
 40
0.3796674884
  9
$USRTIMER
 70
     1
  9
$ANGBASE
 50
0.0
  9
$ANGDIR
 70
     0
  9
$PDMODE
 70
     0
  9
$PDSIZE
 40
0.0
  9
$PLINEWID
 40
0.0
  9
$COORDS
 70
     1
  9
$SPLFRAME
 70
     0
  9
$SPLINETYPE
 70
     6
  9
$SPLINESEGS
 70
     8
  9
$ATTDIA
 70
     0
  9
$ATTREQ
 70
     1
  9
$HANDLING
 70
     1
  9
$HANDSEED
  5
135
  9
$SURFTAB1
 70
     6
  9
$SURFTAB2
 70
     6
  9
$SURFTYPE
 70
     6
  9
$SURFU
 70
     6
  9
$SURFV
 70
     6
  9
$UCSNAME
  2

  9
$UCSORG
 10
0.0
 20
0.0
 30
0.0
  9
$UCSXDIR
 10
1.0
 20
0.0
 30
0.0
  9
$UCSYDIR
 10
0.0
 20
1.0
 30
0.0
  9
$PUCSNAME
  2

  9
$PUCSORG
 10
0.0
 20
0.0
 30
0.0
  9
$PUCSXDIR
 10
1.0
 20
0.0
 30
0.0
  9
$PUCSYDIR
 10
0.0
 20
1.0
 30
0.0
  9
$USERI1
 70
     0
  9
$USERI2
 70
     0
  9
$USERI3
 70
     0
  9
$USERI4
 70
     0
  9
$USERI5
 70
     0
  9
$USERR1
 40
0.0
  9
$USERR2
 40
0.0
  9
$USERR3
 40
0.0
  9
$USERR4
 40
0.0
  9
$USERR5
 40
0.0
  9
$WORLDVIEW
 70
     1
  9
$SHADEDGE
 70
     3
  9
$SHADEDIF
 70
    70
  9
$TILEMODE
 70
     1
  9
$MAXACTVP
 70
    64
  9
$PLIMCHECK
 70
     0
  9
$PEXTMIN
 10
0.0
 20
0.0
 30
0.0
  9
$PEXTMAX
 10
0.0
 20
0.0
 30
0.0
  9
$PLIMMIN
 10
0.0
 20
0.0
  9
$PLIMMAX
 10
12.0
 20
9.0
  9
$UNITMODE
 70
     0
  9
$VISRETAIN
 70
     1
  9
$PLINEGEN
 70
     0
  9
$PSLTSCALE
 70
     1
  0
ENDSEC
  0
SECTION
  2
TABLES
  0
TABLE
  2
VPORT
 70
     1
  0
VPORT
  2
*ACTIVE
 70
     0
 10
0.0
 20
0.0
 11
1.0
 21
1.0
 12
69.823511365038044
 22
-166.799120062095
 13
0.0
 23
0.0
 14
0.5
 24
0.5
 15
0.5
 25
0.5
 16
0.0
 26
0.0
 36
2511.7024390488791
 17
1111.2260093654561
 27
-1733.361314645115
 37
0.0
 40
101.7825399620112
 41
2.0174050632911391
 42
50.0
 43
0.0
 44
0.0
 50
0.0
 51
0.0
 71
     0
 72
  1000
 73
     1
 74
     3
 75
     0
 76
     0
 77
     0
 78
     0
  0
ENDTAB
  0
TABLE
  2
LTYPE
 70
     1
  0
LTYPE
  2
CONTINUOUS
 70
     0
  3
Solid line
 72
    65
 73
     0
 40
0.0
  0
ENDTAB
  0
TABLE
  2
LAYER
 70
     1
  0
LAYER
  2
0
 70
     0
 62
     7
  6
CONTINUOUS
  0
ENDTAB
  0
TABLE
  2
STYLE
 70
     1
  0
STYLE
  2
STANDARD
 70
     0
 40
0.0
 41
1.0
 50
0.0
 71
     0
 42
0.2
  3
txt
  4

  0
ENDTAB
  0
TABLE
  2
VIEW
 70
     0
  0
ENDTAB
  0
TABLE
  2
UCS
 70
     0
  0
ENDTAB
  0
TABLE
  2
APPID
 70
     3
  0
APPID
  2
ACAD
 70
     0
  0
APPID
  2
ACAD_MLEADERVER
 70
     0
  0
APPID
  2
ACADSTRINGINFO
 70
     0
  0
ENDTAB
  0
TABLE
  2
DIMSTYLE
 70
     1
  0
DIMSTYLE
  2
STANDARD
 70
     0
  3

  4

  5

  6

  7

 40
1.0
 41
0.18
 42
0.0625
 43
0.38
 44
0.18
 45
0.0
 46
0.0
 47
0.0
 48
0.0
140
0.18
141
0.09
142
0.0
143
25.399999999999999
144
1.0
145
0.0
146
1.0
147
0.09
 71
     0
 72
     0
 73
     1
 74
     1
 75
     0
 76
     0
 77
     0
 78
     0
170
     0
171
     2
172
     0
173
     0
174
     0
175
     0
176
     0
177
     0
178
     0
  0
ENDTAB
  0
ENDSEC
  0
SECTION
  2
BLOCKS
  0
BLOCK
  8
0
  2
$MODEL_SPACE
 70
     0
 10
0.0
 20
0.0
 30
0.0
  3
$MODEL_SPACE
  1

  0
ENDBLK
  5
9
  8
0
  0
BLOCK
 67
     1
  8
0
  2
$PAPER_SPACE
 70
     0
 10
0.0
 20
0.0
 30
0.0
  3
$PAPER_SPACE
  1

  0
ENDBLK
  5
E
 67
     1
  8
0
  0
BLOCK
  8
0
 62
     7
  2
A$C0D2536CE
 70
     0
 10
0.0
 20
0.0
 30
0.0
  3
A$C0D2536CE
  1

  0
POLYLINE
  5
29
  8
0
 62
     7
 66
     1
 10
0.0
 20
0.0
 30
0.0
  0
VERTEX
  5
10F
  8
0
 62
     7
 10
39.491025770324768
 20
99.894863283220715
 30
0.0
  0
VERTEX
  5
110
  8
0
 62
     7
 10
58.025879488749752
 20
99.894863283220715
 30
0.0
  0
SEQEND
  5
111
  8
0
 62
     7
  0
POLYLINE
  5
2A
  8
0
 62
     7
 66
     1
 10
0.0
 20
0.0
 30
0.0
  0
VERTEX
  5
112
  8
0
 62
     7
 10
43.071288166852582
 20
54.695172220479662
 30
0.0
  0
VERTEX
  5
113
  8
0
 62
     7
 10
40.808422374723477
 20
-0.9319720782082185
 30
0.0
  0
VERTEX
  5
114
  8
0
 62
     7
 10
38.201207440313972
 20
-0.9319720782082185
 30
0.0
  0
VERTEX
  5
115
  8
0
 62
     7
 10
39.499895634057573
 20
54.695172220479662
 30
0.0
  0
SEQEND
  5
116
  8
0
 62
     7
  0
POLYLINE
  5
2B
  8
0
 62
     7
 66
     1
 10
0.0
 20
0.0
 30
0.0
  0
VERTEX
  5
117
  8
0
 62
     7
 10
41.536429604274637
 20
16.96434477345678
 30
0.0
  0
VERTEX
  5
118
  8
0
 62
     7
 10
58.025879488749752
 20
16.96434477345678
 30
0.0
  0
SEQEND
  5
119
  8
0
 62
     7
  0
LINE
  5
2C
  8
0
 62
     7
 10
41.430370277264728
 20
14.3571298390475
 30
0.0
 11
58.025879488749752
 21
14.357129839047269
 31
0.0
  0
POLYLINE
  5
2D
  8
0
 62
     7
 66
     1
 10
0.0
 20
0.0
 30
0.0
 70
     4
 75
     6
  0
VERTEX
  5
2E
  8
0
 62
     7
 10
39.49102577032432
 20
99.894863283220516
 30
0.0
 70
    16
  0
VERTEX
  5
2F
  8
0
 62
     7
 10
39.49102577032432
 20
99.894863283220516
 30
0.0
 70
     8
  0
VERTEX
  5
30
  8
0
 62
     7
 10
39.280164182842562
 20
99.796834279434066
 30
0.0
 70
     8
  0
VERTEX
  5
31
  8
0
 62
     7
 10
39.109838862527567
 20
99.667863280749998
 30
0.0
 70
     8
  0
VERTEX
  5
32
  8
0
 62
     7
 10
38.972670004693548
 20
99.505532162343798
 30
0.0
 70
     8
  0
VERTEX
  5
33
  8
0
 62
     7
 10
38.861277804655401
 20
99.307422799391134
 30
0.0
 70
     8
  0
VERTEX
  5
34
  8
0
 62
     7
 10
38.76828245772731
 20
99.071117067066993
 30
0.0
 70
     8
  0
VERTEX
  5
35
  8
0
 62
     7
 10
38.686304159224157
 20
98.794196840546874
 30
0.0
 70
     8
  0
VERTEX
  5
36
  8
0
 62
     7
 10
38.607963104460168
 20
98.474243995006645
 30
0.0
 70
     8
  0
VERTEX
  5
37
  8
0
 62
     7
 10
38.525879488749752
 20
98.108840405621564
 30
0.0
 70
     8
  0
VERTEX
  5
38
  8
0
 62
     7
 10
38.868120021096964
 20
99.672559155364965
 30
0.0
 70
    16
  0
VERTEX
  5
39
  8
0
 62
     7
 10
38.756319038292759
 20
99.146000413396905
 30
0.0
 70
    16
  0
VERTEX
  5
3A
  8
0
 62
     7
 10
38.525879488749752
 20
98.108840405621791
 30
0.0
 70
    16
  0
SEQEND
  5
3B
  8
0
 62
     7
  0
POLYLINE
  5
3C
  8
0
 62
     7
 66
     1
 10
0.0
 20
0.0
 30
0.0
  0
VERTEX
  5
11A
  8
0
 62
     7
 10
58.025879488749752
 20
54.695172220479662
 30
0.0
  0
VERTEX
  5
11B
  8
0
 62
     7
 10
39.177256640990208
 20
54.695172220479662
 30
0.0
  0
SEQEND
  5
11C
  8
0
 62
     7
  0
POLYLINE
  5
3D
  8
0
 62
     7
 66
     1
 10
0.0
 20
0.0
 30
0.0
  0
VERTEX
  5
11D
  8
0
 62
     7
 10
58.025879488749752
 20
54.695172220479662
 30
0.0
  0
VERTEX
  5
11E
  8
0
 62
     7
 10
76.874502336509295
 20
54.695172220479662
 30
0.0
  0
SEQEND
  5
11F
  8
0
 62
     7
  0
POLYLINE
  5
3E
  8
0
 62
     7
 66
     1
 10
0.0
 20
0.0
 30
0.0
 70
     4
 75
     6
  0
VERTEX
  5
3F
  8
0
 62
     7
 10
76.56073320717519
 20
99.894863283220516
 30
0.0
 70
    16
  0
VERTEX
  5
40
  8
0
 62
     7
 10
76.56073320717519
 20
99.894863283220516
 30
0.0
 70
     8
  0
VERTEX
  5
41
  8
0
 62
     7
 10
76.771594794656949
 20
99.796834279434066
 30
0.0
 70
     8
  0
VERTEX
  5
42
  8
0
 62
     7
 10
76.941920114971936
 20
99.667863280749998
 30
0.0
 70
     8
  0
VERTEX
  5
43
  8
0
 62
     7
 10
77.079088972805948
 20
99.505532162343798
 30
0.0
 70
     8
  0
VERTEX
  5
44
  8
0
 62
     7
 10
77.190481172844102
 20
99.307422799391134
 30
0.0
 70
     8
  0
VERTEX
  5
45
  8
0
 62
     7
 10
77.283476519772194
 20
99.071117067066993
 30
0.0
 70
     8
  0
VERTEX
  5
46
  8
0
 62
     7
 10
77.365454818275325
 20
98.794196840546874
 30
0.0
 70
     8
  0
VERTEX
  5
47
  8
0
 62
     7
 10
77.443795873039335
 20
98.474243995006645
 30
0.0
 70
     8
  0
VERTEX
  5
48
  8
0
 62
     7
 10
77.525879488749752
 20
98.108840405621564
 30
0.0
 70
     8
  0
VERTEX
  5
49
  8
0
 62
     7
 10
77.183638956402547
 20
99.672559155364965
 30
0.0
 70
    16
  0
VERTEX
  5
4A
  8
0
 62
     7
 10
77.295439939206744
 20
99.146000413396905
 30
0.0
 70
    16
  0
VERTEX
  5
4B
  8
0
 62
     7
 10
77.525879488749752
 20
98.108840405621791
 30
0.0
 70
    16
  0
SEQEND
  5
4C
  8
0
 62
     7
  0
LINE
  5
4D
  8
0
 62
     7
 10
74.621388700234775
 20
14.3571298390475
 30
0.0
 11
58.025879488749752
 21
14.357129839047269
 31
0.0
  0
POLYLINE
  5
4E
  8
0
 62
     7
 66
     1
 10
0.0
 20
0.0
 30
0.0
  0
VERTEX
  5
120
  8
0
 62
     7
 10
74.515329373224859
 20
16.96434477345678
 30
0.0
  0
VERTEX
  5
121
  8
0
 62
     7
 10
58.025879488749752
 20
16.96434477345678
 30
0.0
  0
SEQEND
  5
122
  8
0
 62
     7
  0
POLYLINE
  5
4F
  8
0
 62
     7
 66
     1
 10
0.0
 20
0.0
 30
0.0
  0
VERTEX
  5
123
  8
0
 62
     7
 10
72.980470810646921
 20
54.695172220479662
 30
0.0
  0
VERTEX
  5
124
  8
0
 62
     7
 10
75.243336602776026
 20
-0.9319720782082185
 30
0.0
  0
VERTEX
  5
125
  8
0
 62
     7
 10
77.850551537185538
 20
-0.9319720782082185
 30
0.0
  0
VERTEX
  5
126
  8
0
 62
     7
 10
76.551863343441937
 20
54.695172220479662
 30
0.0
  0
SEQEND
  5
127
  8
0
 62
     7
  0
POLYLINE
  5
50
  8
0
 62
     7
 66
     1
 10
0.0
 20
0.0
 30
0.0
  0
VERTEX
  5
128
  8
0
 62
     7
 10
76.560733207174735
 20
99.894863283220715
 30
0.0
  0
VERTEX
  5
129
  8
0
 62
     7
 10
58.025879488749752
 20
99.894863283220715
 30
0.0
  0
SEQEND
  5
12A
  8
0
 62
     7
  0
ARC
  5
51
  8
0
 62
     7
 10
39.255764524761837
 20
55.42589058908743
 30
0.0
 40
0.7349236844973078
 50
173.28691758261789
 51
263.86770373806797
  0
POLYLINE
  5
52
  8
0
 62
     7
 66
     1
 10
0.0
 20
0.0
 30
0.0
  0
VERTEX
  5
12B
  8
0
 62
     7
 10
38.525879488749752
 20
55.339979843306082
 30
0.0
  0
VERTEX
  5
12C
  8
0
 62
     7
 10
38.525879488749752
 20
98.108840405621564
 30
0.0
  0
SEQEND
  5
12D
  8
0
 62
     7
  0
ARC
  5
53
  8
0
 62
     7
 10
76.795994452737645
 20
55.42589058908743
 30
0.0
 40
0.7349236844973078
 50
276.13229626193203
 51
6.7130824173820809
  0
POLYLINE
  5
54
  8
0
 62
     7
 66
     1
 10
0.0
 20
0.0
 30
0.0
  0
VERTEX
  5
12E
  8
0
 62
     7
 10
77.525879488749752
 20
55.339979843306082
 30
0.0
  0
VERTEX
  5
12F
  8
0
 62
     7
 10
77.525879488749752
 20
98.108840405621564
 30
0.0
  0
SEQEND
  5
130
  8
0
 62
     7
  0
ENDBLK
  5
55
  8
0
 62
     7
  0
ENDSEC
  0
SECTION
  2
ENTITIES
  0
INSERT
  5
26
  8
0
 62
     7
  2
A$C0D2536CE
 10
1123.0236412417439
 20
-1949.641880309716
 30
0.0
  0
ENDSEC
  0
EOF
