  0
SECTION
  2
HEADER
  9
$ACADVER
  1
AC1009
  9
$INSBASE
 10
1184.58144658059
 20
-1682.6474044210411
 30
0.0
  9
$EXTMIN
 10
1164.7567745321551
 20
-1749.0084034119591
 30
-0.00000001
  9
$EXTMAX
 10
1204.406118629026
 20
-1648.181568050529
 30
0.00000001
  9
$LIMMIN
 10
0.0
 20
0.0
  9
$LIMMAX
 10
12.0
 20
9.0
  9
$ORTHOMODE
 70
     1
  9
$REGENMODE
 70
     1
  9
$FILLMODE
 70
     1
  9
$QTEXTMODE
 70
     0
  9
$MIRRTEXT
 70
     0
  9
$DRAGMODE
 70
     2
  9
$LTSCALE
 40
1.0
  9
$OSMODE
 70
    37
  9
$ATTMODE
 70
     1
  9
$TEXTSIZE
 40
0.2
  9
$TRACEWID
 40
0.05
  9
$TEXTSTYLE
  7
STANDARD
  9
$CLAYER
  8
0
  9
$CELTYPE
  6
BYLAYER
  9
$CECOLOR
 62
     7
  9
$DIMSCALE
 40
1.0
  9
$DIMASZ
 40
0.18
  9
$DIMEXO
 40
0.0625
  9
$DIMDLI
 40
0.38
  9
$DIMRND
 40
0.0
  9
$DIMDLE
 40
0.0
  9
$DIMEXE
 40
0.18
  9
$DIMTP
 40
0.0
  9
$DIMTM
 40
0.0
  9
$DIMTXT
 40
0.18
  9
$DIMCEN
 40
0.09
  9
$DIMTSZ
 40
0.0
  9
$DIMTOL
 70
     0
  9
$DIMLIM
 70
     0
  9
$DIMTIH
 70
     1
  9
$DIMTOH
 70
     1
  9
$DIMSE1
 70
     0
  9
$DIMSE2
 70
     0
  9
$DIMTAD
 70
     0
  9
$DIMZIN
 70
     0
  9
$DIMBLK
  1

  9
$DIMASO
 70
     1
  9
$DIMSHO
 70
     1
  9
$DIMPOST
  1

  9
$DIMAPOST
  1

  9
$DIMALT
 70
     0
  9
$DIMALTD
 70
     2
  9
$DIMALTF
 40
25.399999999999999
  9
$DIMLFAC
 40
1.0
  9
$DIMTOFL
 70
     0
  9
$DIMTVP
 40
0.0
  9
$DIMTIX
 70
     0
  9
$DIMSOXD
 70
     0
  9
$DIMSAH
 70
     0
  9
$DIMBLK1
  1

  9
$DIMBLK2
  1

  9
$DIMSTYLE
  2
STANDARD
  9
$DIMCLRD
 70
     0
  9
$DIMCLRE
 70
     0
  9
$DIMCLRT
 70
     0
  9
$DIMTFAC
 40
1.0
  9
$DIMGAP
 40
0.09
  9
$LUNITS
 70
     2
  9
$LUPREC
 70
     4
  9
$SKETCHINC
 40
0.1
  9
$FILLETRAD
 40
0.0
  9
$AUNITS
 70
     0
  9
$AUPREC
 70
     0
  9
$MENU
  1
.
  9
$ELEVATION
 40
0.0
  9
$PELEVATION
 40
0.0
  9
$THICKNESS
 40
0.0
  9
$LIMCHECK
 70
     0
  9
$BLIPMODE
 70
     0
  9
$CHAMFERA
 40
0.0
  9
$CHAMFERB
 40
0.0
  9
$SKPOLY
 70
     0
  9
$TDCREATE
 40
2454847.1667784262
  9
$TDUPDATE
 40
2454853.7308409959
  9
$TDINDWG
 40
0.3791435995
  9
$TDUSRTIMER
 40
0.3791435995
  9
$USRTIMER
 70
     1
  9
$ANGBASE
 50
0.0
  9
$ANGDIR
 70
     0
  9
$PDMODE
 70
     0
  9
$PDSIZE
 40
0.0
  9
$PLINEWID
 40
0.0
  9
$COORDS
 70
     1
  9
$SPLFRAME
 70
     0
  9
$SPLINETYPE
 70
     6
  9
$SPLINESEGS
 70
     8
  9
$ATTDIA
 70
     0
  9
$ATTREQ
 70
     1
  9
$HANDLING
 70
     1
  9
$HANDSEED
  5
155
  9
$SURFTAB1
 70
     6
  9
$SURFTAB2
 70
     6
  9
$SURFTYPE
 70
     6
  9
$SURFU
 70
     6
  9
$SURFV
 70
     6
  9
$UCSNAME
  2

  9
$UCSORG
 10
0.0
 20
0.0
 30
0.0
  9
$UCSXDIR
 10
1.0
 20
0.0
 30
0.0
  9
$UCSYDIR
 10
0.0
 20
1.0
 30
0.0
  9
$PUCSNAME
  2

  9
$PUCSORG
 10
0.0
 20
0.0
 30
0.0
  9
$PUCSXDIR
 10
1.0
 20
0.0
 30
0.0
  9
$PUCSYDIR
 10
0.0
 20
1.0
 30
0.0
  9
$USERI1
 70
     0
  9
$USERI2
 70
     0
  9
$USERI3
 70
     0
  9
$USERI4
 70
     0
  9
$USERI5
 70
     0
  9
$USERR1
 40
0.0
  9
$USERR2
 40
0.0
  9
$USERR3
 40
0.0
  9
$USERR4
 40
0.0
  9
$USERR5
 40
0.0
  9
$WORLDVIEW
 70
     1
  9
$SHADEDGE
 70
     3
  9
$SHADEDIF
 70
    70
  9
$TILEMODE
 70
     1
  9
$MAXACTVP
 70
    64
  9
$PLIMCHECK
 70
     0
  9
$PEXTMIN
 10
0.0
 20
0.0
 30
0.0
  9
$PEXTMAX
 10
0.0
 20
0.0
 30
0.0
  9
$PLIMMIN
 10
0.0
 20
0.0
  9
$PLIMMAX
 10
12.0
 20
9.0
  9
$UNITMODE
 70
     0
  9
$VISRETAIN
 70
     1
  9
$PLINEGEN
 70
     0
  9
$PSLTSCALE
 70
     1
  0
ENDSEC
  0
SECTION
  2
TABLES
  0
TABLE
  2
VPORT
 70
     1
  0
VPORT
  2
*ACTIVE
 70
     0
 10
0.0
 20
0.0
 11
1.0
 21
1.0
 12
73.355437215134316
 22
34.766328913870673
 13
0.0
 23
0.0
 14
0.5
 24
0.5
 15
0.5
 25
0.5
 16
0.0
 26
0.0
 36
2566.2342126569129
 17
1111.2260093654561
 27
-1733.361314645115
 37
0.0
 40
101.7825399620112
 41
2.0174050632911391
 42
50.0
 43
0.0
 44
0.0
 50
0.0
 51
0.0
 71
     0
 72
  1000
 73
     1
 74
     3
 75
     0
 76
     0
 77
     0
 78
     0
  0
ENDTAB
  0
TABLE
  2
LTYPE
 70
     1
  0
LTYPE
  2
CONTINUOUS
 70
     0
  3
Solid line
 72
    65
 73
     0
 40
0.0
  0
ENDTAB
  0
TABLE
  2
LAYER
 70
     1
  0
LAYER
  2
0
 70
     0
 62
     7
  6
CONTINUOUS
  0
ENDTAB
  0
TABLE
  2
STYLE
 70
     1
  0
STYLE
  2
STANDARD
 70
     0
 40
0.0
 41
1.0
 50
0.0
 71
     0
 42
0.2
  3
txt
  4

  0
ENDTAB
  0
TABLE
  2
VIEW
 70
     0
  0
ENDTAB
  0
TABLE
  2
UCS
 70
     0
  0
ENDTAB
  0
TABLE
  2
APPID
 70
     3
  0
APPID
  2
ACAD
 70
     0
  0
APPID
  2
ACAD_MLEADERVER
 70
     0
  0
APPID
  2
ACADSTRINGINFO
 70
     0
  0
ENDTAB
  0
TABLE
  2
DIMSTYLE
 70
     1
  0
DIMSTYLE
  2
STANDARD
 70
     0
  3

  4

  5

  6

  7

 40
1.0
 41
0.18
 42
0.0625
 43
0.38
 44
0.18
 45
0.0
 46
0.0
 47
0.0
 48
0.0
140
0.18
141
0.09
142
0.0
143
25.399999999999999
144
1.0
145
0.0
146
1.0
147
0.09
 71
     0
 72
     0
 73
     1
 74
     1
 75
     0
 76
     0
 77
     0
 78
     0
170
     0
171
     2
172
     0
173
     0
174
     0
175
     0
176
     0
177
     0
178
     0
  0
ENDTAB
  0
ENDSEC
  0
SECTION
  2
BLOCKS
  0
BLOCK
  8
0
  2
$MODEL_SPACE
 70
     0
 10
0.0
 20
0.0
 30
0.0
  3
$MODEL_SPACE
  1

  0
ENDBLK
  5
9
  8
0
  0
BLOCK
 67
     1
  8
0
  2
$PAPER_SPACE
 70
     0
 10
0.0
 20
0.0
 30
0.0
  3
$PAPER_SPACE
  1

  0
ENDBLK
  5
E
 67
     1
  8
0
  0
BLOCK
  8
0
 62
     7
  2
A$C7EEC2389
 70
     0
 10
0.0
 20
0.0
 30
0.0
  3
A$C7EEC2389
  1

  0
POLYLINE
  5
29
  8
0
 62
     7
 66
     1
 10
0.0
 20
0.0
 30
0.0
  0
VERTEX
  5
12F
  8
0
 62
     7
 10
-4.6911078567864024
 20
80.661923529604337
 30
0.0
  0
VERTEX
  5
130
  8
0
 62
     7
 10
-4.6911078567864024
 20
123.4307840919198
 30
0.0
  0
SEQEND
  5
131
  8
0
 62
     7
  0
ARC
  5
2A
  8
0
 62
     7
 10
-5.4209928927984938
 20
80.747834275385685
 30
0.0
 40
0.7349236844973078
 50
276.13229626193203
 51
6.7130824173820809
  0
POLYLINE
  5
2B
  8
0
 62
     7
 66
     1
 10
0.0
 20
0.0
 30
0.0
  0
VERTEX
  5
132
  8
0
 62
     7
 10
-43.691107856786402
 20
80.661923529604337
 30
0.0
  0
VERTEX
  5
133
  8
0
 62
     7
 10
-43.691107856786402
 20
123.4307840919198
 30
0.0
  0
SEQEND
  5
134
  8
0
 62
     7
  0
ARC
  5
2C
  8
0
 62
     7
 10
-42.96122282077431
 20
80.747834275385685
 30
0.0
 40
0.7349236844973078
 50
173.28691758261789
 51
263.86770373806797
  0
POLYLINE
  5
2D
  8
0
 62
     7
 66
     1
 10
0.0
 20
0.0
 30
0.0
  0
VERTEX
  5
135
  8
0
 62
     7
 10
-5.656254138361418
 20
125.216806969519
 30
0.0
  0
VERTEX
  5
136
  8
0
 62
     7
 10
-24.191107856786399
 20
125.216806969519
 30
0.0
  0
SEQEND
  5
137
  8
0
 62
     7
  0
POLYLINE
  5
2E
  8
0
 62
     7
 66
     1
 10
0.0
 20
0.0
 30
0.0
  0
VERTEX
  5
138
  8
0
 62
     7
 10
-9.2365165348892333
 20
80.017115906777903
 30
0.0
  0
VERTEX
  5
139
  8
0
 62
     7
 10
-6.9736507427601282
 20
24.38997160809004
 30
0.0
  0
VERTEX
  5
13A
  8
0
 62
     7
 10
-4.366435808350615
 20
24.38997160809004
 30
0.0
  0
VERTEX
  5
13B
  8
0
 62
     7
 10
-5.665124002094216
 20
80.017115906777903
 30
0.0
  0
SEQEND
  5
13C
  8
0
 62
     7
  0
POLYLINE
  5
2F
  8
0
 62
     7
 66
     1
 10
0.0
 20
0.0
 30
0.0
  0
VERTEX
  5
13D
  8
0
 62
     7
 10
-7.7016579723112946
 20
42.286288459755042
 30
0.0
  0
VERTEX
  5
13E
  8
0
 62
     7
 10
-24.191107856786399
 20
42.286288459755042
 30
0.0
  0
SEQEND
  5
13F
  8
0
 62
     7
  0
LINE
  5
30
  8
0
 62
     7
 10
-7.5955986453013793
 20
39.679073525345757
 30
0.0
 11
-24.191107856786399
 21
39.67907352534553
 31
0.0
  0
LINE
  5
31
  8
0
 62
     7
 10
-5.6562541383611906
 20
90.750970599007815
 30
0.0
 11
-24.191107856786399
 21
90.750970599007815
 31
0.0
  0
POLYLINE
  5
32
  8
0
 62
     7
 66
     1
 10
0.0
 20
0.0
 30
0.0
 70
     4
 75
     6
  0
VERTEX
  5
33
  8
0
 62
     7
 10
-5.6562541383609641
 20
90.750970599007587
 30
0.0
 70
    16
  0
VERTEX
  5
34
  8
0
 62
     7
 10
-5.6562541383609641
 20
90.750970599007587
 30
0.0
 70
     8
  0
VERTEX
  5
35
  8
0
 62
     7
 10
-5.4453925508792054
 20
90.652941595221137
 30
0.0
 70
     8
  0
VERTEX
  5
36
  8
0
 62
     7
 10
-5.2750672305642183
 20
90.523970596537083
 30
0.0
 70
     8
  0
VERTEX
  5
37
  8
0
 62
     7
 10
-5.1378983727302048
 20
90.361639478130883
 30
0.0
 70
     8
  0
VERTEX
  5
38
  8
0
 62
     7
 10
-5.0265061726920521
 20
90.163530115178204
 30
0.0
 70
     8
  0
VERTEX
  5
39
  8
0
 62
     7
 10
-4.9335108257639604
 20
89.927224382854106
 30
0.0
 70
     8
  0
VERTEX
  5
3A
  8
0
 62
     7
 10
-4.8515325272608152
 20
89.650304156333959
 30
0.0
 70
     8
  0
VERTEX
  5
3B
  8
0
 62
     7
 10
-4.7731914724968192
 20
89.330351310793731
 30
0.0
 70
     8
  0
VERTEX
  5
3C
  8
0
 62
     7
 10
-4.6911078567864024
 20
88.964947721408635
 30
0.0
 70
     8
  0
VERTEX
  5
3D
  8
0
 62
     7
 10
-5.0333483891336073
 20
90.528666471152064
 30
0.0
 70
    16
  0
VERTEX
  5
3E
  8
0
 62
     7
 10
-4.9215474063294087
 20
90.002107729183976
 30
0.0
 70
    16
  0
VERTEX
  5
3F
  8
0
 62
     7
 10
-4.6911078567864024
 20
88.964947721408862
 30
0.0
 70
    16
  0
SEQEND
  5
40
  8
0
 62
     7
  0
POLYLINE
  5
41
  8
0
 62
     7
 66
     1
 10
0.0
 20
0.0
 30
0.0
 70
     4
 75
     6
  0
VERTEX
  5
42
  8
0
 62
     7
 10
-5.6562541383609641
 20
125.2168069695187
 30
0.0
 70
    16
  0
VERTEX
  5
43
  8
0
 62
     7
 10
-5.6562541383609641
 20
125.2168069695187
 30
0.0
 70
     8
  0
VERTEX
  5
44
  8
0
 62
     7
 10
-5.4453925508792054
 20
125.11877796573231
 30
0.0
 70
     8
  0
VERTEX
  5
45
  8
0
 62
     7
 10
-5.2750672305642183
 20
124.9898069670482
 30
0.0
 70
     8
  0
VERTEX
  5
46
  8
0
 62
     7
 10
-5.1378983727302048
 20
124.827475848642
 30
0.0
 70
     8
  0
VERTEX
  5
47
  8
0
 62
     7
 10
-5.0265061726920521
 20
124.6293664856894
 30
0.0
 70
     8
  0
VERTEX
  5
48
  8
0
 62
     7
 10
-4.9335108257639604
 20
124.39306075336521
 30
0.0
 70
     8
  0
VERTEX
  5
49
  8
0
 62
     7
 10
-4.8515325272608152
 20
124.1161405268451
 30
0.0
 70
     8
  0
VERTEX
  5
4A
  8
0
 62
     7
 10
-4.7731914724968192
 20
123.7961876813049
 30
0.0
 70
     8
  0
VERTEX
  5
4B
  8
0
 62
     7
 10
-4.6911078567864024
 20
123.4307840919198
 30
0.0
 70
     8
  0
VERTEX
  5
4C
  8
0
 62
     7
 10
-5.0333483891336073
 20
124.99450284166321
 30
0.0
 70
    16
  0
VERTEX
  5
4D
  8
0
 62
     7
 10
-4.9215474063294087
 20
124.4679440996951
 30
0.0
 70
    16
  0
VERTEX
  5
4E
  8
0
 62
     7
 10
-4.6911078567864024
 20
123.43078409192
 30
0.0
 70
    16
  0
SEQEND
  5
4F
  8
0
 62
     7
  0
POLYLINE
  5
50
  8
0
 62
     7
 66
     1
 10
0.0
 20
0.0
 30
0.0
  0
VERTEX
  5
140
  8
0
 62
     7
 10
-24.191107856786399
 20
80.017115906777903
 30
0.0
  0
VERTEX
  5
141
  8
0
 62
     7
 10
-5.3424850090268592
 20
80.017115906777903
 30
0.0
  0
SEQEND
  5
142
  8
0
 62
     7
  0
POLYLINE
  5
51
  8
0
 62
     7
 66
     1
 10
0.0
 20
0.0
 30
0.0
  0
VERTEX
  5
143
  8
0
 62
     7
 10
-24.191107856786399
 20
80.017115906777903
 30
0.0
  0
VERTEX
  5
144
  8
0
 62
     7
 10
-43.039730704545953
 20
80.017115906777903
 30
0.0
  0
SEQEND
  5
145
  8
0
 62
     7
  0
POLYLINE
  5
52
  8
0
 62
     7
 66
     1
 10
0.0
 20
0.0
 30
0.0
 70
     4
 75
     6
  0
VERTEX
  5
53
  8
0
 62
     7
 10
-42.725961575211841
 20
125.2168069695187
 30
0.0
 70
    16
  0
VERTEX
  5
54
  8
0
 62
     7
 10
-42.725961575211841
 20
125.2168069695187
 30
0.0
 70
     8
  0
VERTEX
  5
55
  8
0
 62
     7
 10
-42.936823162693599
 20
125.11877796573231
 30
0.0
 70
     8
  0
VERTEX
  5
56
  8
0
 62
     7
 10
-43.107148483008579
 20
124.9898069670482
 30
0.0
 70
     8
  0
VERTEX
  5
57
  8
0
 62
     7
 10
-43.244317340842592
 20
124.827475848642
 30
0.0
 70
     8
  0
VERTEX
  5
58
  8
0
 62
     7
 10
-43.355709540880753
 20
124.6293664856894
 30
0.0
 70
     8
  0
VERTEX
  5
59
  8
0
 62
     7
 10
-43.448704887808837
 20
124.39306075336521
 30
0.0
 70
     8
  0
VERTEX
  5
5A
  8
0
 62
     7
 10
-43.53068318631199
 20
124.1161405268451
 30
0.0
 70
     8
  0
VERTEX
  5
5B
  8
0
 62
     7
 10
-43.609024241075993
 20
123.7961876813049
 30
0.0
 70
     8
  0
VERTEX
  5
5C
  8
0
 62
     7
 10
-43.691107856786402
 20
123.4307840919198
 30
0.0
 70
     8
  0
VERTEX
  5
5D
  8
0
 62
     7
 10
-43.34886732443919
 20
124.99450284166321
 30
0.0
 70
    16
  0
VERTEX
  5
5E
  8
0
 62
     7
 10
-43.460668307243388
 20
124.4679440996951
 30
0.0
 70
    16
  0
VERTEX
  5
5F
  8
0
 62
     7
 10
-43.691107856786402
 20
123.43078409192
 30
0.0
 70
    16
  0
SEQEND
  5
60
  8
0
 62
     7
  0
POLYLINE
  5
61
  8
0
 62
     7
 66
     1
 10
0.0
 20
0.0
 30
0.0
 70
     4
 75
     6
  0
VERTEX
  5
62
  8
0
 62
     7
 10
-42.725961575211841
 20
90.750970599007587
 30
0.0
 70
    16
  0
VERTEX
  5
63
  8
0
 62
     7
 10
-42.725961575211841
 20
90.750970599007587
 30
0.0
 70
     8
  0
VERTEX
  5
64
  8
0
 62
     7
 10
-42.936823162693599
 20
90.652941595221137
 30
0.0
 70
     8
  0
VERTEX
  5
65
  8
0
 62
     7
 10
-43.107148483008579
 20
90.523970596537083
 30
0.0
 70
     8
  0
VERTEX
  5
66
  8
0
 62
     7
 10
-43.244317340842592
 20
90.361639478130883
 30
0.0
 70
     8
  0
VERTEX
  5
67
  8
0
 62
     7
 10
-43.355709540880753
 20
90.163530115178204
 30
0.0
 70
     8
  0
VERTEX
  5
68
  8
0
 62
     7
 10
-43.448704887808837
 20
89.927224382854106
 30
0.0
 70
     8
  0
VERTEX
  5
69
  8
0
 62
     7
 10
-43.53068318631199
 20
89.650304156333959
 30
0.0
 70
     8
  0
VERTEX
  5
6A
  8
0
 62
     7
 10
-43.609024241075993
 20
89.330351310793731
 30
0.0
 70
     8
  0
VERTEX
  5
6B
  8
0
 62
     7
 10
-43.691107856786402
 20
88.964947721408635
 30
0.0
 70
     8
  0
VERTEX
  5
6C
  8
0
 62
     7
 10
-43.34886732443919
 20
90.528666471152064
 30
0.0
 70
    16
  0
VERTEX
  5
6D
  8
0
 62
     7
 10
-43.460668307243388
 20
90.002107729183976
 30
0.0
 70
    16
  0
VERTEX
  5
6E
  8
0
 62
     7
 10
-43.691107856786402
 20
88.964947721408862
 30
0.0
 70
    16
  0
SEQEND
  5
6F
  8
0
 62
     7
  0
LINE
  5
70
  8
0
 62
     7
 10
-42.725961575211613
 20
90.750970599007815
 30
0.0
 11
-24.191107856786399
 21
90.750970599007815
 31
0.0
  0
LINE
  5
71
  8
0
 62
     7
 10
-40.786617068271418
 20
39.679073525345757
 30
0.0
 11
-24.191107856786399
 21
39.67907352534553
 31
0.0
  0
POLYLINE
  5
72
  8
0
 62
     7
 66
     1
 10
0.0
 20
0.0
 30
0.0
  0
VERTEX
  5
146
  8
0
 62
     7
 10
-40.680557741261502
 20
42.286288459755042
 30
0.0
  0
VERTEX
  5
147
  8
0
 62
     7
 10
-24.191107856786399
 20
42.286288459755042
 30
0.0
  0
SEQEND
  5
148
  8
0
 62
     7
  0
POLYLINE
  5
73
  8
0
 62
     7
 66
     1
 10
0.0
 20
0.0
 30
0.0
  0
VERTEX
  5
149
  8
0
 62
     7
 10
-39.145699178683572
 20
80.017115906777903
 30
0.0
  0
VERTEX
  5
14A
  8
0
 62
     7
 10
-41.408564970812677
 20
24.38997160809004
 30
0.0
  0
VERTEX
  5
14B
  8
0
 62
     7
 10
-44.015779905222189
 20
24.38997160809004
 30
0.0
  0
VERTEX
  5
14C
  8
0
 62
     7
 10
-42.717091711478581
 20
80.017115906777903
 30
0.0
  0
SEQEND
  5
14D
  8
0
 62
     7
  0
POLYLINE
  5
74
  8
0
 62
     7
 66
     1
 10
0.0
 20
0.0
 30
0.0
  0
VERTEX
  5
14E
  8
0
 62
     7
 10
-42.725961575211379
 20
125.216806969519
 30
0.0
  0
VERTEX
  5
14F
  8
0
 62
     7
 10
-24.191107856786399
 20
125.216806969519
 30
0.0
  0
SEQEND
  5
150
  8
0
 62
     7
  0
ENDBLK
  5
75
  8
0
 62
     7
  0
ENDSEC
  0
SECTION
  2
ENTITIES
  0
INSERT
  5
26
  8
0
 62
     7
  2
A$C7EEC2389
 10
1208.772554437377
 20
-1773.3983750200489
 30
0.0
  0
ENDSEC
  0
EOF
