  0
SECTION
  2
HEADER
  9
$ACADVER
  1
AC1009
  9
$INSBASE
 10
0.0
 20
0.0
 30
0.0
  9
$EXTMIN
 10
-19.477296829223629
 20
-25.711307525634769
 30
-2.3493571281433101
  9
$EXTMAX
 10
20.680173873901371
 20
25.90932464599609
 30
99.558914184570313
  9
$LIMMIN
 10
0.0
 20
0.0
  9
$LIMMAX
 10
12.0
 20
9.0
  9
$ORTHOMODE
 70
     1
  9
$REGENMODE
 70
     1
  9
$FILLMODE
 70
     1
  9
$QTEXTMODE
 70
     0
  9
$MIRRTEXT
 70
     1
  9
$DRAGMODE
 70
     2
  9
$LTSCALE
 40
1.0
  9
$OSMODE
 70
    37
  9
$ATTMODE
 70
     1
  9
$TEXTSIZE
 40
0.2
  9
$TRACEWID
 40
0.05
  9
$TEXTSTYLE
  7
STANDARD
  9
$CLAYER
  8
0
  9
$CELTYPE
  6
BYLAYER
  9
$CECOLOR
 62
   256
  9
$DIMSCALE
 40
1.0
  9
$DIMASZ
 40
0.18
  9
$DIMEXO
 40
0.0625
  9
$DIMDLI
 40
0.38
  9
$DIMRND
 40
0.0
  9
$DIMDLE
 40
0.0
  9
$DIMEXE
 40
0.18
  9
$DIMTP
 40
0.0
  9
$DIMTM
 40
0.0
  9
$DIMTXT
 40
0.18
  9
$DIMCEN
 40
0.09
  9
$DIMTSZ
 40
0.0
  9
$DIMTOL
 70
     0
  9
$DIMLIM
 70
     0
  9
$DIMTIH
 70
     1
  9
$DIMTOH
 70
     1
  9
$DIMSE1
 70
     0
  9
$DIMSE2
 70
     0
  9
$DIMTAD
 70
     0
  9
$DIMZIN
 70
     0
  9
$DIMBLK
  1

  9
$DIMASO
 70
     1
  9
$DIMSHO
 70
     1
  9
$DIMPOST
  1

  9
$DIMAPOST
  1

  9
$DIMALT
 70
     0
  9
$DIMALTD
 70
     2
  9
$DIMALTF
 40
25.399999999999999
  9
$DIMLFAC
 40
1.0
  9
$DIMTOFL
 70
     0
  9
$DIMTVP
 40
0.0
  9
$DIMTIX
 70
     0
  9
$DIMSOXD
 70
     0
  9
$DIMSAH
 70
     0
  9
$DIMBLK1
  1

  9
$DIMBLK2
  1

  9
$DIMSTYLE
  2
STANDARD
  9
$DIMCLRD
 70
     0
  9
$DIMCLRE
 70
     0
  9
$DIMCLRT
 70
     0
  9
$DIMTFAC
 40
1.0
  9
$DIMGAP
 40
0.09
  9
$LUNITS
 70
     2
  9
$LUPREC
 70
     4
  9
$SKETCHINC
 40
0.1
  9
$FILLETRAD
 40
0.5
  9
$AUNITS
 70
     0
  9
$AUPREC
 70
     0
  9
$MENU
  1
.
  9
$ELEVATION
 40
0.0
  9
$PELEVATION
 40
0.0
  9
$THICKNESS
 40
0.0
  9
$LIMCHECK
 70
     0
  9
$BLIPMODE
 70
     0
  9
$CHAMFERA
 40
0.5
  9
$CHAMFERB
 40
0.5
  9
$SKPOLY
 70
     0
  9
$TDCREATE
 40
2451380.847099063
  9
$TDUPDATE
 40
2454853.73036162
  9
$TDINDWG
 40
0.0149230903
  9
$TDUSRTIMER
 40
0.0149140509
  9
$USRTIMER
 70
     1
  9
$ANGBASE
 50
0.0
  9
$ANGDIR
 70
     0
  9
$PDMODE
 70
     0
  9
$PDSIZE
 40
0.0
  9
$PLINEWID
 40
0.0
  9
$COORDS
 70
     1
  9
$SPLFRAME
 70
     0
  9
$SPLINETYPE
 70
     6
  9
$SPLINESEGS
 70
     8
  9
$ATTDIA
 70
     0
  9
$ATTREQ
 70
     1
  9
$HANDLING
 70
     1
  9
$HANDSEED
  5
993
  9
$SURFTAB1
 70
     6
  9
$SURFTAB2
 70
     6
  9
$SURFTYPE
 70
     6
  9
$SURFU
 70
     6
  9
$SURFV
 70
     6
  9
$UCSNAME
  2

  9
$UCSORG
 10
0.0
 20
0.0
 30
0.0
  9
$UCSXDIR
 10
0.0
 20
1.0
 30
0.0
  9
$UCSYDIR
 10
0.0
 20
0.0
 30
1.0
  9
$PUCSNAME
  2

  9
$PUCSORG
 10
0.0
 20
0.0
 30
0.0
  9
$PUCSXDIR
 10
1.0
 20
0.0
 30
0.0
  9
$PUCSYDIR
 10
0.0
 20
1.0
 30
0.0
  9
$USERI1
 70
     0
  9
$USERI2
 70
     0
  9
$USERI3
 70
     0
  9
$USERI4
 70
     0
  9
$USERI5
 70
     0
  9
$USERR1
 40
0.0
  9
$USERR2
 40
0.0
  9
$USERR3
 40
0.0
  9
$USERR4
 40
0.0
  9
$USERR5
 40
0.0
  9
$WORLDVIEW
 70
     1
  9
$SHADEDGE
 70
     3
  9
$SHADEDIF
 70
    70
  9
$TILEMODE
 70
     1
  9
$MAXACTVP
 70
    64
  9
$PLIMCHECK
 70
     0
  9
$PEXTMIN
 10
1.0000000000000000E+020
 20
1.0000000000000000E+020
 30
1.0000000000000000E+020
  9
$PEXTMAX
 10
-1.0000000000000000E+020
 20
-1.0000000000000000E+020
 30
-1.0000000000000000E+020
  9
$PLIMMIN
 10
0.0
 20
0.0
  9
$PLIMMAX
 10
12.0
 20
9.0
  9
$UNITMODE
 70
     0
  9
$VISRETAIN
 70
     1
  9
$PLINEGEN
 70
     0
  9
$PSLTSCALE
 70
     1
  0
ENDSEC
  0
SECTION
  2
TABLES
  0
TABLE
  2
VPORT
 70
     1
  0
VPORT
  2
*ACTIVE
 70
     0
 10
0.0
 20
0.0
 11
1.0
 21
1.0
 12
0.3552716333133645
 22
43.881386807593458
 13
0.0
 23
0.0
 14
0.5
 24
0.5
 15
0.5
 25
0.5
 16
-1.0
 26
-1.0
 36
1.0
 17
0.0
 27
0.0
 37
0.0
 40
118.17893575286909
 41
2.0174050632911391
 42
50.0
 43
0.0
 44
0.0
 50
0.0
 51
0.0
 71
     0
 72
   100
 73
     1
 74
     3
 75
     0
 76
     0
 77
     0
 78
     0
  0
ENDTAB
  0
TABLE
  2
LTYPE
 70
     1
  0
LTYPE
  2
CONTINUOUS
 70
     0
  3
Solid line
 72
    65
 73
     0
 40
0.0
  0
ENDTAB
  0
TABLE
  2
LAYER
 70
     2
  0
LAYER
  2
0
 70
     0
 62
   156
  6
CONTINUOUS
  0
LAYER
  2
ASHADE
 70
     4
 62
     7
  6
CONTINUOUS
  0
ENDTAB
  0
TABLE
  2
STYLE
 70
     1
  0
STYLE
  2
STANDARD
 70
     0
 40
0.0
 41
1.0
 50
0.0
 71
     0
 42
0.2
  3
txt
  4

  0
ENDTAB
  0
TABLE
  2
VIEW
 70
     0
  0
ENDTAB
  0
TABLE
  2
UCS
 70
     0
  0
ENDTAB
  0
TABLE
  2
APPID
 70
     7
  0
APPID
  2
ACAD
 70
     0
  0
APPID
  2
AVE_RENDER
 70
     0
  0
APPID
  2
AVE_ENTITY_MATERIAL
 70
     0
  0
APPID
  2
AVE_FINISH
 70
     0
  0
APPID
  2
AVE_MATERIAL
 70
     0
  0
APPID
  2
AVE_GLOBAL
 70
     0
  0
APPID
  2
ACAD_MLEADERVER
 70
     0
  0
ENDTAB
  0
TABLE
  2
DIMSTYLE
 70
     1
  0
DIMSTYLE
  2
STANDARD
 70
     0
  3

  4

  5

  6

  7

 40
1.0
 41
0.18
 42
0.0625
 43
0.38
 44
0.18
 45
0.0
 46
0.0
 47
0.0
 48
0.0
140
0.18
141
0.09
142
0.0
143
25.399999999999999
144
1.0
145
0.0
146
1.0
147
0.09
 71
     0
 72
     0
 73
     1
 74
     1
 75
     0
 76
     0
 77
     0
 78
     0
170
     0
171
     2
172
     0
173
     0
174
     0
175
     0
176
     0
177
     0
178
     0
  0
ENDTAB
  0
ENDSEC
  0
SECTION
  2
BLOCKS
  0
BLOCK
  8
0
  2
$MODEL_SPACE
 70
     0
 10
0.0
 20
0.0
 30
0.0
  3
$MODEL_SPACE
  1

  0
ENDBLK
  5
21
  8
0
  0
BLOCK
 67
     1
  8
0
  2
$PAPER_SPACE
 70
     0
 10
0.0
 20
0.0
 30
0.0
  3
$PAPER_SPACE
  1

  0
ENDBLK
  5
1D
 67
     1
  8
0
  0
BLOCK
  8
ASHADE
  2
AVE_RENDER
 70
     0
 10
0.0
 20
0.0
 30
0.0
  3
AVE_RENDER
  1
AVE_RENDER
  0
ENDBLK
  5
93
  8
0
  0
BLOCK
  8
ASHADE
  2
AVE_GLOBAL
 70
     0
 10
0.0
 20
0.0
 30
0.0
  3
AVE_GLOBAL
  1
AVE_GLOBAL
  0
ENDBLK
  5
A1
  8
0
  0
ENDSEC
  0
SECTION
  2
ENTITIES
  0
INSERT
  5
94
  8
ASHADE
 62
     1
  2
AVE_RENDER
 10
0.0
 20
0.0
 30
0.0
1001
AVE_RENDER
1002
{
1070
     7
1000
Pref
1070
    30
1070
    20
1070
     1
1070
     0
1000

1070
    10
1070
     1
1070
    10
1040
1.0
1070
     1
1040
0.3
1040
0.7
1040
0.0
1040
10.0
1010
-1.0
1020
-1.0
1030
-1.0
1040
0.3
1070
    49
1070
     0
1070
     0
1010
1.0
1020
1.0
1030
1.0
1040
45.0
1070
     1
1070
     0
1000
WCS
1040
0.0
1070
     0
1040
10.0
1002
}
  0
INSERT
  5
95
  8
ASHADE
 62
     3
  2
AVE_RENDER
 10
0.0
 20
0.0
 30
0.0
1001
AVE_RENDER
1002
{
1070
     0
1000
Full Opt
1070
     0
1070
     1
1070
     1
1070
     1
1070
     0
1070
     0
1070
     0
1070
     1
1070
     1
1040
0.0001
1040
0.0001
1002
}
  0
INSERT
  5
96
  8
ASHADE
 62
     4
  2
AVE_RENDER
 10
0.0
 20
0.0
 30
0.0
1001
AVE_RENDER
1002
{
1070
     0
1000
Quick Opt
1070
     0
1070
     1
1070
     1
1070
     1
1070
     0
1070
     0
1070
     1
1002
}
  0
INSERT
  5
97
  8
ASHADE
 62
     5
  2
AVE_RENDER
 10
0.0
 20
0.0
 30
0.0
1001
AVE_RENDER
1002
{
1070
     1
1000
Scanl Opt
1070
     2
1070
     0
1070
     2
1040
2.0
1040
4.0
1070
     0
1070
     1
1070
     0
1040
0.03
1002
}
  0
INSERT
  5
98
  8
ASHADE
 62
     6
  2
AVE_RENDER
 10
0.0
 20
0.0
 30
0.0
1001
AVE_RENDER
1002
{
1070
     2
1000
Raytr Opt
1070
     2
1070
     0
1070
     2
1040
2.0
1040
4.0
1070
     0
1070
     1
1070
     1
1040
0.03
1070
     3
1040
0.03
1002
}
  0
INSERT
  5
99
  8
ASHADE
 62
     7
  2
AVE_RENDER
 10
0.0
 20
0.0
 30
0.0
1001
AVE_RENDER
1002
{
1070
     0
1000
RFile Opt
1070
     1
1070
   640
1070
   480
1070
 10000
1070
     1
1070
     8
1070
     8
1070
     0
1070
     0
1070
     0
1070
     0
1070
     0
1070
     0
1070
     0
1002
}
  0
INSERT
  5
9A
  8
ASHADE
 62
     8
  2
AVE_RENDER
 10
0.0
 20
0.0
 30
0.0
1001
AVE_RENDER
1002
{
1070
     0
1000
Fog Opt
1070
     0
1070
     0
1040
0.0
1040
1.0
1040
0.0
1040
1.0
1010
0.5
1020
0.5
1030
0.5
1002
}
  0
INSERT
  5
9B
  8
ASHADE
 62
     9
  2
AVE_RENDER
 10
0.0
 20
0.0
 30
0.0
1001
AVE_RENDER
1002
{
1070
     0
1000
BG Opt
1070
     0
1070
     1
1010
0.0
1020
0.0
1030
0.0
1010
1.0
1020
0.0
1030
0.0
1010
0.0
1020
1.0
1030
0.0
1010
0.0
1020
0.0
1030
1.0
1040
0.5
1040
0.33
1040
0.0
1000

1070
     1
1000

1070
     1
1070
     1
1040
1.0
1040
1.0
1040
0.0
1040
0.0
1070
     0
1002
}
  0
INSERT
  5
A2
  8
ASHADE
 62
     1
  2
AVE_GLOBAL
 10
0.0
 20
0.0
 30
0.0
1001
AVE_MATERIAL
1002
{
1000
*GLOBAL*
1000
2
1000
Global finish.
1002
{
1002
}
1002
{
1070
    63
1002
{
1002
{
1010
-1.0
1020
-1.0
1030
-1.0
1002
}
1040
0.1000000014901161
1000

1040
0.0
1002
{
1002
}
1040
0.0
1002
{
1002
}
1040
0.0
1002
}
1002
{
1002
{
1010
-1.0
1020
-1.0
1030
-1.0
1002
}
1040
0.699999988079071
1000

1040
0.0
1002
{
1002
}
1040
0.0
1002
{
1002
}
1040
0.0
1002
}
1002
{
1002
{
1010
-1.0
1020
-1.0
1030
-1.0
1002
}
1040
0.2000000029802322
1000

1040
0.0
1002
{
1002
}
1040
0.0
1002
{
1002
}
1040
0.0
1002
}
1002
{
1070
     0
1002
{
1070
     1
1002
{
1040
1.0
1040
1.0
1000

1040
0.0
1002
{
1002
}
1040
0.0
1002
{
1002
}
1040
0.0
1002
}
1002
}
1040
1.0
1040
0.0
1040
0.0
1002
}
1002
{
1040
1.0
1040
1.0
1000

1040
0.0
1002
{
1002
}
1040
0.0
1002
{
1002
}
1040
0.0
1002
}
1002
{
1040
0.5
1040
1.0
1000

1040
0.0
1002
{
1002
}
1040
0.0
1002
{
1002
}
1040
0.0
1002
}
1002
{
1070
     0
1040
0.0
1002
{
1002
}
1040
1.0
1002
{
1002
}
1040
0.0
1002
}
1002
{
1040
0.0
1002
{
1002
{
1010
0.0
1020
0.0
1030
0.0
1002
}
1040
1.0
1000

1040
0.0
1002
{
1002
}
1040
0.0
1002
{
1002
}
1040
0.0
1002
}
1002
}
1002
{
1002
{
1070
     1
1002
{
1040
0.0
1040
1.0
1000

1040
0.0
1002
{
1002
}
1040
0.0
1002
{
1002
}
1040
0.0
1002
}
1002
}
1040
0.0
1002
{
1002
}
1010
1.0
1020
0.0
1030
0.0
1010
0.0
1020
1.0
1030
0.0
1010
0.0
1020
0.0
1030
1.0
1070
     0
1002
}
1002
{
1002
{
1040
1.0
1040
1.0
1002
{
1070
     1
1002
{
1040
1.0
1040
1.0
1000

1040
0.0
1002
{
1002
}
1040
0.0
1002
{
1002
}
1040
0.0
1002
}
1002
}
1002
}
1070
     0
1040
0.0
1002
{
1002
}
1002
}
1002
{
1002
}
1002
}
1002
{
1071
        3
1070
     3
1070
     0
1002
{
1070
     2
1070
     0
1070
     0
1040
0.0
1002
}
1070
     0
1070
     2
1002
{
1002
}
1002
}
1002
{
1040
8030.0
1040
190.30000305175781
1040
0.3050000071525574
1040
228.0
1040
545.0
1040
14.0
1040
17.39999961853027
1040
0.4560000002384186
1002
}
1002
}
  0
POLYLINE
  5
FC
  8
0
 62
   206
 66
     1
 10
0.0
 20
0.0
 30
0.0
 70
    64
 71
   375
 72
   742
  0
VERTEX
  5
FD
  8
0
 62
   206
 10
-19.029226303100579
 20
24.104976654052731
 30
98.9078369140625
 70
   192
  0
VERTEX
  5
FE
  8
0
 62
   206
 10
-19.140727996826168
 20
-24.675960540771481
 30
53.965389251708977
 70
   192
  0
VERTEX
  5
FF
  8
0
 62
   206
 10
-19.04243278503418
 20
22.994316101074219
 30
53.965389251708977
 70
   192
  0
VERTEX
  5
100
  8
0
 62
   206
 10
-19.03699874877929
 20
20.70331954956055
 30
98.915458679199233
 70
   192
  0
VERTEX
  5
101
  8
0
 62
   206
 10
-19.21556282043457
 20
17.254680633544918
 30
53.965389251708977
 70
   192
  0
VERTEX
  5
102
  8
0
 62
   206
 10
-19.14154052734375
 20
-25.03041839599609
 30
61.944358825683601
 70
   192
  0
VERTEX
  5
103
  8
0
 62
   206
 10
-19.122322082519531
 20
24.210845947265629
 30
63.193885803222649
 70
   192
  0
VERTEX
  5
104
  8
0
 62
   206
 10
-19.183124542236332
 20
16.511722564697259
 30
63.725067138671882
 70
   192
  0
VERTEX
  5
105
  8
0
 62
   206
 10
-19.134712219238281
 20
18.79051208496093
 30
93.347694396972656
 70
   192
  0
VERTEX
  5
106
  8
0
 62
   206
 10
-13.64119148254394
 20
24.684818267822269
 30
99.191970825195313
 70
   192
  0
VERTEX
  5
107
  8
0
 62
   206
 10
-13.75216484069824
 20
-23.867961883544918
 30
53.897518157958977
 70
   192
  0
VERTEX
  5
108
  8
0
 62
   206
 10
-13.649886131286619
 20
23.507305145263668
 30
53.89752197265625
 70
   192
  0
VERTEX
  5
109
  8
0
 62
   206
 10
-13.651163101196291
 20
20.318080902099609
 30
99.197677612304687
 70
   192
  0
VERTEX
  5
10A
  8
0
 62
   206
 10
-13.755452156066889
 20
-25.301513671875
 30
63.1348876953125
 70
   192
  0
VERTEX
  5
10B
  8
0
 62
   206
 10
-13.639626502990721
 20
25.365627288818359
 30
63.193527221679687
 70
   192
  0
VERTEX
  5
10C
  8
0
 62
   206
 10
-13.661812782287599
 20
15.658650398254389
 30
64.727066040039063
 70
   192
  0
VERTEX
  5
10D
  8
0
 62
   206
 10
-13.656832695007321
 20
17.836894989013668
 30
93.352340698242188
 70
   192
  0
VERTEX
  5
10E
  8
0
 62
   206
 10
-19.16282844543457
 20
9.1157913208007813
 30
53.897518157958977
 70
   192
  0
VERTEX
  5
10F
  8
0
 62
   206
 10
-19.21797943115234
 20
-17.637409210205082
 30
53.89752197265625
 70
   192
  0
VERTEX
  5
110
  8
0
 62
   206
 10
-19.220638275146481
 20
-18.799819946289059
 30
63.1348876953125
 70
   192
  0
VERTEX
  5
111
  8
0
 62
   206
 10
-19.157415390014648
 20
8.8582954406738281
 30
63.1348876953125
 70
   192
  0
VERTEX
  5
112
  8
0
 62
   206
 10
-13.677390098571779
 20
8.8457651138305664
 30
64.665580749511719
 70
   192
  0
VERTEX
  5
113
  8
0
 62
   206
 10
-13.740615844726561
 20
-18.812351226806641
 30
64.665580749511719
 70
   192
  0
VERTEX
  5
114
  8
0
 62
   206
 10
-13.721579551696779
 20
-10.486063003540041
 30
53.810272216796868
 70
   192
  0
VERTEX
  5
115
  8
0
 62
   206
 10
-13.68126773834228
 20
9.7761554718017578
 30
53.810272216796868
 70
   192
  0
VERTEX
  5
116
  8
0
 62
   206
 10
-19.121805191040039
 20
24.43706130981445
 30
93.319847106933594
 70
   192
  0
VERTEX
  5
117
  8
0
 62
   206
 10
-13.639632225036619
 20
25.365627288818359
 30
93.315200805664063
 70
   192
  0
VERTEX
  5
118
  8
0
 62
   206
 10
-19.122354507446289
 20
24.19720458984375
 30
55.951690673828118
 70
   192
  0
VERTEX
  5
119
  8
0
 62
   206
 10
-19.235469818115231
 20
-25.288986206054691
 30
55.951690673828118
 70
   192
  0
VERTEX
  5
11A
  8
0
 62
   206
 10
-19.259401321411129
 20
16.743270874023441
 30
55.951690673828118
 70
   192
  0
VERTEX
  5
11B
  8
0
 62
   206
 10
-13.75620746612549
 20
-25.634239196777351
 30
55.951690673828118
 70
   192
  0
VERTEX
  5
11C
  8
0
 62
   206
 10
-13.639632225036619
 20
25.365627288818359
 30
55.951690673828118
 70
   192
  0
VERTEX
  5
11D
  8
0
 62
   206
 10
-19.277423858642582
 20
8.8585681915283203
 30
55.951690673828118
 70
   192
  0
VERTEX
  5
11E
  8
0
 62
   206
 10
-19.340644836425781
 20
-18.7995491027832
 30
55.951690673828118
 70
   192
  0
VERTEX
  5
11F
  8
0
 62
   206
 10
-19.13680458068848
 20
17.87542724609375
 30
70.859237670898438
 70
   192
  0
VERTEX
  5
120
  8
0
 62
   206
 10
-19.122104644775391
 20
24.306331634521481
 30
70.842094421386705
 70
   192
  0
VERTEX
  5
121
  8
0
 62
   206
 10
-13.63962841033935
 20
25.365627288818359
 30
70.839241027832031
 70
   192
  0
VERTEX
  5
122
  8
0
 62
   206
 10
-13.65922260284424
 20
16.791080474853509
 30
70.862098693847656
 70
   192
  0
VERTEX
  5
123
  8
0
 62
   206
 10
-19.309076309204102
 20
-4.9883704185485831
 30
60.631008148193352
 70
   192
  0
VERTEX
  5
124
  8
0
 62
   206
 10
-19.248964309692379
 20
21.309421539306641
 30
81.940200805664063
 70
   192
  0
VERTEX
  5
125
  8
0
 62
   206
 10
-19.250459671020501
 20
20.65461349487305
 30
60.631004333496087
 70
   192
  0
VERTEX
  5
126
  8
0
 62
   206
 10
-18.87620735168457
 20
-25.62253570556641
 30
60.631008148193352
 70
   192
  0
VERTEX
  5
127
  8
0
 62
   206
 10
-18.75963020324707
 20
25.3773307800293
 30
54.159263610839837
 70
   192
  0
VERTEX
  5
128
  8
0
 62
   206
 10
-18.765851974487301
 20
22.65409088134766
 30
99.558914184570313
 70
   192
  0
VERTEX
  5
129
  8
0
 62
   206
 10
-18.759622573852539
 20
25.3773307800293
 30
64.900100708007813
 70
   192
  0
VERTEX
  5
12A
  8
0
 62
   206
 10
-18.778224945068359
 20
17.239322662353509
 30
81.957351684570327
 70
   192
  0
VERTEX
  5
12B
  8
0
 62
   206
 10
-18.82904052734375
 20
-4.9894685745239249
 30
64.665580749511719
 70
   192
  0
VERTEX
  5
12C
  8
0
 62
   206
 10
-18.8229866027832
 20
-2.3414525985717769
 30
53.810276031494141
 70
   192
  0
VERTEX
  5
12D
  8
0
 62
   206
 10
-18.774650573730469
 20
18.8033561706543
 30
98.113967895507827
 70
   192
  0
VERTEX
  5
12E
  8
0
 62
   206
 10
-19.264627456665039
 20
14.45685195922851
 30
60.631008148193352
 70
   192
  0
VERTEX
  5
12F
  8
0
 62
   206
 10
-19.35319709777832
 20
-24.290542602539059
 30
54.159263610839837
 70
   192
  0
VERTEX
  5
130
  8
0
 62
   206
 10
-18.873165130615231
 20
-24.2916374206543
 30
64.665580749511719
 70
   192
  0
VERTEX
  5
131
  8
0
 62
   206
 10
-18.784589767456051
 20
14.455751419067379
 30
64.665580749511719
 70
   192
  0
VERTEX
  5
132
  8
0
 62
   206
 10
-18.872280120849609
 20
18.09613037109375
 30
53.810272216796868
 70
   192
  0
VERTEX
  5
133
  8
0
 62
   206
 10
-18.86586761474609
 20
-21.101516723632809
 30
53.810276031494141
 70
   192
  0
VERTEX
  5
134
  8
0
 62
   206
 10
-18.75963020324707
 20
25.3773307800293
 30
98.091110229492188
 70
   192
  0
VERTEX
  5
135
  8
0
 62
   206
 10
-19.247175216674801
 20
22.091438293457031
 30
98.1025390625
 70
   192
  0
VERTEX
  5
136
  8
0
 62
   206
 10
-19.309076309204102
 20
-4.9883737564086914
 30
54.159263610839837
 70
   192
  0
VERTEX
  5
137
  8
0
 62
   206
 10
-19.250459671020501
 20
20.65461349487305
 30
54.159263610839837
 70
   192
  0
VERTEX
  5
138
  8
0
 62
   206
 10
-18.876201629638668
 20
-25.62253570556641
 30
54.159263610839837
 70
   192
  0
VERTEX
  5
139
  8
0
 62
   206
 10
-18.759624481201168
 20
25.3773307800293
 30
60.631004333496087
 70
   192
  0
VERTEX
  5
13A
  8
0
 62
   206
 10
-19.264627456665039
 20
14.456850051879879
 30
54.159263610839837
 70
   192
  0
VERTEX
  5
13B
  8
0
 62
   206
 10
-19.35319709777832
 20
-24.290542602539059
 30
60.631004333496087
 70
   192
  0
VERTEX
  5
13C
  8
0
 62
   206
 10
-19.24996185302734
 20
20.872882843017582
 30
64.90582275390625
 70
   192
  0
VERTEX
  5
13D
  8
0
 62
   206
 10
-18.759626388549801
 20
25.3773307800293
 30
81.923065185546875
 70
   192
  0
VERTEX
  5
13E
  8
0
 62
   206
 10
-18.780220031738281
 20
16.366245269775391
 30
64.911529541015625
 70
   192
  0
VERTEX
  5
13F
  8
0
 62
   206
 10
-19.126201629638668
 20
22.51397705078125
 30
99.194824218750014
 70
   192
  0
VERTEX
  5
140
  8
0
 62
   206
 10
-19.122356414794918
 20
24.197200775146491
 30
54.159263610839837
 70
   192
  0
VERTEX
  5
141
  8
0
 62
   206
 10
-18.873615264892571
 20
-24.492282867431641
 30
53.89752197265625
 70
   192
  0
VERTEX
  5
142
  8
0
 62
   206
 10
-19.166542053222649
 20
15.36666965484619
 30
53.89752197265625
 70
   192
  0
VERTEX
  5
143
  8
0
 62
   206
 10
-19.155918121337891
 20
20.01499176025391
 30
53.89752197265625
 70
   192
  0
VERTEX
  5
144
  8
0
 62
   206
 10
-18.771160125732418
 20
20.32978439331055
 30
99.197677612304687
 70
   192
  0
VERTEX
  5
145
  8
0
 62
   206
 10
-19.137676239013668
 20
17.493453979492191
 30
64.910102844238281
 70
   192
  0
VERTEX
  5
146
  8
0
 62
   206
 10
-19.235471725463871
 20
-25.288986206054691
 30
60.631004333496087
 70
   192
  0
VERTEX
  5
147
  8
0
 62
   206
 10
-19.12222862243652
 20
24.251766204833981
 30
64.901535034179673
 70
   192
  0
VERTEX
  5
148
  8
0
 62
   206
 10
-19.259401321411129
 20
16.743267059326168
 30
60.631004333496087
 70
   192
  0
VERTEX
  5
149
  8
0
 62
   206
 10
-18.759622573852539
 20
25.3773307800293
 30
63.193527221679687
 70
   192
  0
VERTEX
  5
14A
  8
0
 62
   206
 10
-19.23319053649902
 20
-24.290813446044918
 30
63.1348876953125
 70
   192
  0
VERTEX
  5
14B
  8
0
 62
   206
 10
-19.250335693359371
 20
20.709182739257809
 30
63.1949462890625
 70
   192
  0
VERTEX
  5
14C
  8
0
 62
   206
 10
-18.78181076049805
 20
15.67035293579101
 30
64.727066040039063
 70
   192
  0
VERTEX
  5
14D
  8
0
 62
   206
 10
-19.132802963256829
 20
19.62592697143555
 30
98.111114501953125
 70
   192
  0
VERTEX
  5
14E
  8
0
 62
   206
 10
-18.776832580566399
 20
17.848598480224609
 30
93.352340698242188
 70
   192
  0
VERTEX
  5
14F
  8
0
 62
   206
 10
-18.761186599731442
 20
24.696517944335941
 30
99.191963195800795
 70
   192
  0
VERTEX
  5
150
  8
0
 62
   206
 10
-18.78779411315918
 20
23.55702972412109
 30
53.89752197265625
 70
   192
  0
VERTEX
  5
151
  8
0
 62
   206
 10
-18.875446319580071
 20
-25.289810180664059
 30
63.1348876953125
 70
   192
  0
VERTEX
  5
152
  8
0
 62
   206
 10
-13.75621318817138
 20
-25.634239196777351
 30
60.631004333496087
 70
   192
  0
VERTEX
  5
153
  8
0
 62
   206
 10
-13.6396369934082
 20
25.365627288818359
 30
54.159263610839837
 70
   192
  0
VERTEX
  5
154
  8
0
 62
   206
 10
-13.645856857299799
 20
22.642387390136719
 30
99.558914184570313
 70
   192
  0
VERTEX
  5
155
  8
0
 62
   206
 10
-13.639625549316399
 20
25.365627288818359
 30
64.900100708007813
 70
   192
  0
VERTEX
  5
156
  8
0
 62
   206
 10
-13.65822601318359
 20
17.227619171142582
 30
81.957351684570327
 70
   192
  0
VERTEX
  5
157
  8
0
 62
   206
 10
-13.6645917892456
 20
14.44404888153076
 30
64.665580749511719
 70
   192
  0
VERTEX
  5
158
  8
0
 62
   206
 10
-13.740053176879879
 20
-18.569118499755859
 30
53.810276031494141
 70
   192
  0
VERTEX
  5
159
  8
0
 62
   206
 10
-13.65465068817139
 20
18.791652679443359
 30
98.113967895507827
 70
   192
  0
VERTEX
  5
15A
  8
0
 62
   206
 10
-19.187553405761719
 20
-4.3266444206237793
 30
53.89752197265625
 70
   192
  0
VERTEX
  5
15B
  8
0
 62
   206
 10
-19.231365203857418
 20
-23.4932861328125
 30
53.89752197265625
 70
   192
  0
VERTEX
  5
15C
  8
0
 62
   206
 10
-19.189067840576168
 20
-4.9886445999145499
 30
63.1348876953125
 70
   192
  0
VERTEX
  5
15D
  8
0
 62
   206
 10
-19.144618988037109
 20
14.456578254699711
 30
63.1348876953125
 70
   192
  0
VERTEX
  5
15E
  8
0
 62
   206
 10
-13.709043502807621
 20
-5.0011739730834961
 30
64.665580749511719
 70
   192
  0
VERTEX
  5
15F
  8
0
 62
   206
 10
-13.753170967102051
 20
-24.303340911865231
 30
64.665580749511719
 70
   192
  0
VERTEX
  5
160
  8
0
 62
   206
 10
-13.698451042175289
 20
-0.3671411275863647
 30
53.810276031494141
 70
   192
  0
VERTEX
  5
161
  8
0
 62
   206
 10
-13.680629730224609
 20
17.93233489990234
 30
53.810272216796868
 70
   192
  0
VERTEX
  5
162
  8
0
 62
   206
 10
-19.277423858642582
 20
8.8585691452026367
 30
60.631004333496087
 70
   192
  0
VERTEX
  5
163
  8
0
 62
   206
 10
-19.340644836425781
 20
-18.7995491027832
 30
54.159263610839837
 70
   192
  0
VERTEX
  5
164
  8
0
 62
   206
 10
-18.860610961914059
 20
-18.800643920898441
 30
64.665580749511719
 70
   192
  0
VERTEX
  5
165
  8
0
 62
   206
 10
-18.797388076782219
 20
8.8574695587158203
 30
64.665580749511719
 70
   192
  0
VERTEX
  5
166
  8
0
 62
   206
 10
-18.819038391113281
 20
9.8874645233154297
 30
53.810272216796868
 70
   192
  0
VERTEX
  5
167
  8
0
 62
   206
 10
-18.849981307983398
 20
-14.150991439819331
 30
53.810276031494141
 70
   192
  0
VERTEX
  5
168
  8
0
 62
   206
 10
-19.12153434753418
 20
24.5564079284668
 30
98.093971252441406
 70
   192
  0
VERTEX
  5
169
  8
0
 62
   206
 10
-13.63963794708252
 20
25.365627288818359
 30
98.091110229492188
 70
   192
  0
VERTEX
  5
16A
  8
0
 62
   206
 10
-18.759626388549801
 20
25.3773307800293
 30
93.315200805664063
 70
   192
  0
VERTEX
  5
16B
  8
0
 62
   206
 10
-19.248268127441399
 20
21.61406326293946
 30
93.333770751953125
 70
   192
  0
VERTEX
  5
16C
  8
0
 62
   206
 10
-19.122354507446289
 20
24.197200775146491
 30
60.631004333496087
 70
   192
  0
VERTEX
  5
16D
  8
0
 62
   206
 10
-19.235469818115231
 20
-25.288986206054691
 30
54.159263610839837
 70
   192
  0
VERTEX
  5
16E
  8
0
 62
   206
 10
-19.259401321411129
 20
16.743267059326168
 30
54.159263610839837
 70
   192
  0
VERTEX
  5
16F
  8
0
 62
   206
 10
-13.756202697753899
 20
-25.634239196777351
 30
54.159263610839837
 70
   192
  0
VERTEX
  5
170
  8
0
 62
   206
 10
-13.63962841033935
 20
25.365627288818359
 30
60.631004333496087
 70
   192
  0
VERTEX
  5
171
  8
0
 62
   206
 10
-19.277423858642582
 20
8.8585662841796875
 30
54.159263610839837
 70
   192
  0
VERTEX
  5
172
  8
0
 62
   206
 10
-19.340644836425781
 20
-18.7995491027832
 30
60.631004333496087
 70
   192
  0
VERTEX
  5
173
  8
0
 62
   206
 10
-19.309076309204102
 20
-4.9883723258972159
 30
55.951690673828118
 70
   192
  0
VERTEX
  5
174
  8
0
 62
   206
 10
-19.250459671020501
 20
20.65461349487305
 30
55.951690673828118
 70
   192
  0
VERTEX
  5
175
  8
0
 62
   206
 10
-18.876203536987301
 20
-25.62253570556641
 30
55.951690673828118
 70
   192
  0
VERTEX
  5
176
  8
0
 62
   206
 10
-18.759626388549801
 20
25.3773307800293
 30
55.951690673828118
 70
   192
  0
VERTEX
  5
177
  8
0
 62
   206
 10
-19.264627456665039
 20
14.456851005554199
 30
55.951690673828118
 70
   192
  0
VERTEX
  5
178
  8
0
 62
   206
 10
-19.35319709777832
 20
-24.290542602539059
 30
55.951690673828118
 70
   192
  0
VERTEX
  5
179
  8
0
 62
   206
 10
-19.135931015014648
 20
18.25739669799805
 30
81.953063964843736
 70
   192
  0
VERTEX
  5
17A
  8
0
 62
   206
 10
-19.121978759765621
 20
24.36090087890625
 30
81.927352905273423
 70
   192
  0
VERTEX
  5
17B
  8
0
 62
   206
 10
-13.639631271362299
 20
25.365627288818359
 30
81.923065185546875
 70
   192
  0
VERTEX
  5
17C
  8
0
 62
   206
 10
-13.66022205352783
 20
16.35454177856445
 30
64.911529541015625
 70
   192
  0
VERTEX
  5
17D
  8
0
 62
   206
 10
-19.24946212768555
 20
21.091152191162109
 30
70.850669860839844
 70
   192
  0
VERTEX
  5
17E
  8
0
 62
   206
 10
-18.759624481201168
 20
25.3773307800293
 30
70.839241027832031
 70
   192
  0
VERTEX
  5
17F
  8
0
 62
   206
 10
-18.77922248840332
 20
16.80278396606445
 30
70.862098693847656
 70
   192
  0
VERTEX
  5
180
  8
0
 62
   206
 10
-14.36986064910889
 20
24.64450836181641
 30
54.238151550292969
 70
   192
  0
VERTEX
  5
181
  8
0
 62
   206
 10
-17.99992752075195
 20
24.648929595947269
 30
54.238712310791009
 70
   192
  0
VERTEX
  5
182
  8
0
 62
   206
 10
-18.008504867553711
 20
20.89632415771484
 30
54.238162994384773
 70
   192
  0
VERTEX
  5
183
  8
0
 62
   206
 10
-14.378437995910639
 20
20.891899108886719
 30
54.237606048583977
 70
   192
  0
VERTEX
  5
184
  8
0
 62
   206
 10
-16.748113632202148
 20
25.906143188476559
 30
-2.337291717529296
 70
   192
  0
VERTEX
  5
185
  8
0
 62
   206
 10
-19.360748291015621
 20
25.90932464599609
 30
-2.3250491619110099
 70
   192
  0
VERTEX
  5
186
  8
0
 62
   206
 10
-19.366922378540039
 20
23.208492279052741
 30
-2.3371105194091788
 70
   192
  0
VERTEX
  5
187
  8
0
 62
   206
 10
-16.754287719726559
 20
23.2053108215332
 30
-2.3493530750274649
 70
   192
  0
VERTEX
  5
188
  8
0
 62
   206
 10
-14.480678558349609
 20
-23.83542633056641
 30
54.238151550292969
 70
   192
  0
VERTEX
  5
189
  8
0
 62
   206
 10
-18.110727310180661
 20
-23.823249816894531
 30
54.23870849609375
 70
   192
  0
VERTEX
  5
18A
  8
0
 62
   206
 10
-18.102149963378899
 20
-20.070648193359371
 30
54.2381591796875
 70
   192
  0
VERTEX
  5
18B
  8
0
 62
   206
 10
-14.47210121154785
 20
-20.082820892333981
 30
54.237602233886719
 70
   192
  0
VERTEX
  5
18C
  8
0
 62
   206
 10
-16.86467361450195
 20
-25.0861701965332
 30
-2.3372974395751949
 70
   192
  0
VERTEX
  5
18D
  8
0
 62
   206
 10
-19.477296829223629
 20
-25.077411651611332
 30
-2.3250544071197501
 70
   192
  0
VERTEX
  5
18E
  8
0
 62
   206
 10
-19.471122741699219
 20
-22.3765754699707
 30
-2.337116003036499
 70
   192
  0
VERTEX
  5
18F
  8
0
 62
   206
 10
-16.858501434326168
 20
-22.385337829589851
 30
-2.3493571281433101
 70
   192
  0
VERTEX
  5
190
  8
0
 62
   206
 10
-18.931943893432621
 20
25.512165069580082
 30
15.49819374084473
 70
   192
  0
VERTEX
  5
191
  8
0
 62
   206
 10
-15.99860191345215
 20
25.508537292480469
 30
15.49741744995117
 70
   192
  0
VERTEX
  5
192
  8
0
 62
   206
 10
-18.938816070556641
 20
22.479812622070309
 30
15.497426986694331
 70
   192
  0
VERTEX
  5
193
  8
0
 62
   206
 10
-16.00543022155761
 20
22.47613525390625
 30
15.496650695800779
 70
   192
  0
VERTEX
  5
194
  8
0
 62
   206
 10
-19.04668045043945
 20
-24.68221282958984
 30
15.498189926147459
 70
   192
  0
VERTEX
  5
195
  8
0
 62
   206
 10
-16.11335372924805
 20
-24.69199371337891
 30
15.497413635253899
 70
   192
  0
VERTEX
  5
196
  8
0
 62
   206
 10
-19.039690017700192
 20
-21.649860382080082
 30
15.497426986694331
 70
   192
  0
VERTEX
  5
197
  8
0
 62
   206
 10
-16.106317520141602
 20
-21.65959548950195
 30
15.49664878845215
 70
   192
  0
VERTEX
  5
198
  8
0
 62
   206
 10
-18.992753982543942
 20
25.568485260009769
 30
12.970588684082029
 70
   192
  0
VERTEX
  5
199
  8
0
 62
   206
 10
-16.104852676391602
 20
25.564899444580082
 30
12.97052383422851
 70
   192
  0
VERTEX
  5
19A
  8
0
 62
   206
 10
-18.999505996704102
 20
22.583110809326168
 30
12.97052383422851
 70
   192
  0
VERTEX
  5
19B
  8
0
 62
   206
 10
-16.111551284790039
 20
22.579463958740231
 30
12.970458984375
 70
   192
  0
VERTEX
  5
19C
  8
0
 62
   206
 10
-19.107748031616211
 20
-24.738262176513668
 30
12.9705867767334
 70
   192
  0
VERTEX
  5
19D
  8
0
 62
   206
 10
-16.2198600769043
 20
-24.74787521362305
 30
12.970521926879879
 70
   192
  0
VERTEX
  5
19E
  8
0
 62
   206
 10
-19.10085296630859
 20
-21.75288009643555
 30
12.970521926879879
 70
   192
  0
VERTEX
  5
19F
  8
0
 62
   206
 10
-16.212909698486332
 20
-21.762447357177731
 30
12.97045707702636
 70
   192
  0
VERTEX
  5
1A0
  8
0
 62
   206
 10
0.5419219732284546
 20
-25.666923522949219
 30
55.951690673828118
 70
   192
  0
VERTEX
  5
1A1
  8
0
 62
   206
 10
0.6584981679916382
 20
25.332942962646481
 30
63.193527221679687
 70
   192
  0
VERTEX
  5
1A2
  8
0
 62
   206
 10
0.6584981083869934
 20
25.332942962646481
 30
55.951690673828118
 70
   192
  0
VERTEX
  5
1A3
  8
0
 62
   206
 10
0.6469603776931763
 20
20.285400390625
 30
99.197677612304687
 70
   192
  0
VERTEX
  5
1A4
  8
0
 62
   206
 10
0.6584981083869934
 20
25.332942962646481
 30
98.091110229492188
 70
   192
  0
VERTEX
  5
1A5
  8
0
 62
   206
 10
0.6363097429275513
 20
15.625967025756831
 30
64.727066040039063
 70
   192
  0
VERTEX
  5
1A6
  8
0
 62
   206
 10
0.6379004716873169
 20
16.321857452392582
 30
64.911529541015625
 70
   192
  0
VERTEX
  5
1A7
  8
0
 62
   206
 10
0.6207367181777954
 20
8.8130836486816406
 30
64.665580749511719
 70
   192
  0
VERTEX
  5
1A8
  8
0
 62
   206
 10
0.5575156211853029
 20
-18.84503173828125
 30
64.665580749511719
 70
   192
  0
VERTEX
  5
1A9
  8
0
 62
   206
 10
0.5804722905158997
 20
-8.8018827438354492
 30
53.810276031494141
 70
   192
  0
VERTEX
  5
1AA
  8
0
 62
   206
 10
0.6412888765335083
 20
17.804214477539059
 30
93.352340698242188
 70
   192
  0
VERTEX
  5
1AB
  8
0
 62
   206
 10
0.6434712409973145
 20
18.758968353271481
 30
98.113967895507827
 70
   192
  0
VERTEX
  5
1AC
  8
0
 62
   206
 10
0.6335333585739136
 20
14.41136646270752
 30
64.665580749511719
 70
   192
  0
VERTEX
  5
1AD
  8
0
 62
   206
 10
0.5449645519256592
 20
-24.336025238037109
 30
64.665580749511719
 70
   192
  0
VERTEX
  5
1AE
  8
0
 62
   206
 10
0.5609108209609987
 20
-17.359661102294918
 30
53.810276031494141
 70
   192
  0
VERTEX
  5
1AF
  8
0
 62
   206
 10
0.6584981083869934
 20
25.332942962646481
 30
81.923065185546875
 70
   192
  0
VERTEX
  5
1B0
  8
0
 62
   206
 10
0.6584981083869934
 20
25.332942962646481
 30
70.839241027832031
 70
   192
  0
VERTEX
  5
1B1
  8
0
 62
   206
 10
0.6584981083869934
 20
25.332942962646481
 30
54.159263610839837
 70
   192
  0
VERTEX
  5
1B2
  8
0
 62
   206
 10
0.543897569179535
 20
-24.802639007568359
 30
15.57283973693848
 70
   192
  0
VERTEX
  5
1B3
  8
0
 62
   206
 10
0.5509889125823975
 20
-21.7003288269043
 30
15.500574111938469
 70
   192
  0
VERTEX
  5
1B4
  8
0
 62
   206
 10
0.5507532358169556
 20
-21.803421020507809
 30
12.97078704833984
 70
   192
  0
VERTEX
  5
1B5
  8
0
 62
   206
 10
0.5439291000366211
 20
-24.788848876953129
 30
12.970851898193359
 70
   192
  0
VERTEX
  5
1B6
  8
0
 62
   206
 10
14.8408203125
 20
-25.36688232421875
 30
63.1348876953125
 70
   192
  0
VERTEX
  5
1B7
  8
0
 62
   206
 10
14.840059280395501
 20
-25.699604034423832
 30
60.631004333496087
 70
   192
  0
VERTEX
  5
1B8
  8
0
 62
   206
 10
0.5419219732284546
 20
-25.666923522949219
 30
60.631008148193352
 70
   192
  0
VERTEX
  5
1B9
  8
0
 62
   206
 10
0.5426820516586304
 20
-25.334197998046879
 30
63.1348876953125
 70
   192
  0
VERTEX
  5
1BA
  8
0
 62
   206
 10
14.840053558349609
 20
-25.699604034423832
 30
55.951690673828118
 70
   192
  0
VERTEX
  5
1BB
  8
0
 62
   206
 10
14.956624031066889
 20
25.300262451171879
 30
63.193527221679687
 70
   192
  0
VERTEX
  5
1BC
  8
0
 62
   206
 10
0.6584981083869934
 20
25.332942962646481
 30
60.631004333496087
 70
   192
  0
VERTEX
  5
1BD
  8
0
 62
   206
 10
14.956624984741209
 20
25.300262451171879
 30
60.631004333496087
 70
   192
  0
VERTEX
  5
1BE
  8
0
 62
   206
 10
14.95662879943848
 20
25.300262451171879
 30
55.951690673828118
 70
   192
  0
VERTEX
  5
1BF
  8
0
 62
   206
 10
20.33567047119141
 20
-18.890239715576168
 30
63.1348876953125
 70
   192
  0
VERTEX
  5
1C0
  8
0
 62
   206
 10
20.36723709106445
 20
-5.0790624618530273
 30
63.1348876953125
 70
   192
  0
VERTEX
  5
1C1
  8
0
 62
   206
 10
20.487247467041019
 20
-5.0793375968933097
 30
60.631008148193352
 70
   192
  0
VERTEX
  5
1C2
  8
0
 62
   206
 10
20.455678939819329
 20
-18.89051437377929
 30
60.631004333496087
 70
   192
  0
VERTEX
  5
1C3
  8
0
 62
   206
 10
20.39888954162598
 20
8.7678775787353516
 30
63.1348876953125
 70
   192
  0
VERTEX
  5
1C4
  8
0
 62
   206
 10
20.518899917602539
 20
8.7676019668579102
 30
60.631004333496087
 70
   192
  0
VERTEX
  5
1C5
  8
0
 62
   206
 10
20.518899917602539
 20
8.7676010131835938
 30
55.951690673828118
 70
   192
  0
VERTEX
  5
1C6
  8
0
 62
   206
 10
20.487247467041019
 20
-5.0793395042419434
 30
55.951690673828118
 70
   192
  0
VERTEX
  5
1C7
  8
0
 62
   206
 10
20.455678939819329
 20
-18.89051437377929
 30
55.951690673828118
 70
   192
  0
VERTEX
  5
1C8
  8
0
 62
   206
 10
14.95507717132568
 20
24.619453430175781
 30
99.191970825195313
 70
   192
  0
VERTEX
  5
1C9
  8
0
 62
   206
 10
14.950404167175289
 20
22.577022552490231
 30
99.558914184570313
 70
   192
  0
VERTEX
  5
1CA
  8
0
 62
   206
 10
0.6522732973098755
 20
22.60970306396484
 30
99.558914184570313
 70
   192
  0
VERTEX
  5
1CB
  8
0
 62
   206
 10
0.6569418907165529
 20
24.652133941650391
 30
99.191970825195313
 70
   192
  0
VERTEX
  5
1CC
  8
0
 62
   206
 10
14.945084571838381
 20
20.252716064453129
 30
99.197677612304687
 70
   192
  0
VERTEX
  5
1CD
  8
0
 62
   206
 10
20.42159271240234
 20
18.700092315673832
 30
93.347694396972656
 70
   192
  0
VERTEX
  5
1CE
  8
0
 62
   206
 10
20.548055648803711
 20
21.523097991943359
 30
93.333770751953125
 70
   192
  0
VERTEX
  5
1CF
  8
0
 62
   206
 10
20.547359466552741
 20
21.21845626831055
 30
81.940200805664063
 70
   192
  0
VERTEX
  5
1D0
  8
0
 62
   206
 10
20.42037391662598
 20
18.166976928710941
 30
81.953063964843736
 70
   192
  0
VERTEX
  5
1D1
  8
0
 62
   206
 10
20.434499740600589
 20
24.346641540527351
 30
93.319847106933594
 70
   192
  0
VERTEX
  5
1D2
  8
0
 62
   206
 10
20.434326171875
 20
24.270481109619141
 30
81.927352905273423
 70
   192
  0
VERTEX
  5
1D3
  8
0
 62
   206
 10
20.434200286865241
 20
24.215911865234379
 30
70.842094421386705
 70
   192
  0
VERTEX
  5
1D4
  8
0
 62
   206
 10
20.54686164855957
 20
21.000186920166019
 30
70.850669860839844
 70
   192
  0
VERTEX
  5
1D5
  8
0
 62
   206
 10
20.419500350952148
 20
17.785007476806641
 30
70.859237670898438
 70
   192
  0
VERTEX
  5
1D6
  8
0
 62
   206
 10
14.95663452148437
 20
25.300262451171879
 30
98.091110229492188
 70
   192
  0
VERTEX
  5
1D7
  8
0
 62
   206
 10
14.95662879943848
 20
25.300262451171879
 30
93.315200805664063
 70
   192
  0
VERTEX
  5
1D8
  8
0
 62
   206
 10
0.6584981083869934
 20
25.332942962646481
 30
93.315193176269545
 70
   192
  0
VERTEX
  5
1D9
  8
0
 62
   206
 10
20.43398284912109
 20
24.120426177978519
 30
63.193885803222649
 70
   192
  0
VERTEX
  5
1DA
  8
0
 62
   206
 10
20.433950424194339
 20
24.106781005859379
 30
60.631004333496087
 70
   192
  0
VERTEX
  5
1DB
  8
0
 62
   206
 10
20.545864105224609
 20
20.56364822387696
 30
60.631004333496087
 70
   192
  0
VERTEX
  5
1DC
  8
0
 62
   206
 10
20.545988082885739
 20
20.618217468261719
 30
63.1949462890625
 70
   192
  0
VERTEX
  5
1DD
  8
0
 62
   206
 10
20.433950424194339
 20
24.106784820556641
 30
55.951690673828118
 70
   192
  0
VERTEX
  5
1DE
  8
0
 62
   206
 10
20.545864105224609
 20
20.56364822387696
 30
55.951690673828118
 70
   192
  0
VERTEX
  5
1DF
  8
0
 62
   206
 10
20.536922454833981
 20
16.65230560302734
 30
55.951690673828118
 70
   192
  0
VERTEX
  5
1E0
  8
0
 62
   206
 10
20.536922454833981
 20
16.652301788330082
 30
60.631004333496087
 70
   192
  0
VERTEX
  5
1E1
  8
0
 62
   206
 10
20.459587097167969
 20
16.421108245849609
 30
63.725067138671882
 70
   192
  0
VERTEX
  5
1E2
  8
0
 62
   206
 10
14.934432983398439
 20
15.59328556060791
 30
64.727066040039063
 70
   192
  0
VERTEX
  5
1E3
  8
0
 62
   206
 10
14.9360237121582
 20
16.289176940917969
 30
64.911529541015625
 70
   192
  0
VERTEX
  5
1E4
  8
0
 62
   206
 10
14.937021255493161
 20
16.725715637207031
 30
70.862098693847656
 70
   192
  0
VERTEX
  5
1E5
  8
0
 62
   206
 10
0.6388983130455017
 20
16.758399963378899
 30
70.862098693847656
 70
   192
  0
VERTEX
  5
1E6
  8
0
 62
   206
 10
14.91886520385742
 20
8.780400276184082
 30
64.665580749511719
 70
   192
  0
VERTEX
  5
1E7
  8
0
 62
   206
 10
14.887215614318849
 20
-5.0665402412414551
 30
64.665580749511719
 70
   192
  0
VERTEX
  5
1E8
  8
0
 62
   206
 10
0.589085340499878
 20
-5.033855438232421
 30
64.665580749511719
 70
   192
  0
VERTEX
  5
1E9
  8
0
 62
   206
 10
14.855648994445801
 20
-18.877716064453121
 30
64.665580749511719
 70
   192
  0
VERTEX
  5
1EA
  8
0
 62
   206
 10
14.87467575073242
 20
-10.55142784118652
 30
53.810272216796868
 70
   192
  0
VERTEX
  5
1EB
  8
0
 62
   206
 10
14.89780807495117
 20
-0.4325068295001984
 30
53.810276031494141
 70
   192
  0
VERTEX
  5
1EC
  8
0
 62
   206
 10
0.60117906332016
 20
0.2569314837455749
 30
53.810276031494141
 70
   192
  0
VERTEX
  5
1ED
  8
0
 62
   206
 10
14.9269962310791
 20
9.7107620239257812
 30
53.810272216796868
 70
   192
  0
VERTEX
  5
1EE
  8
0
 62
   206
 10
0.6216429471969605
 20
9.2094945907592773
 30
53.810276031494141
 70
   192
  0
VERTEX
  5
1EF
  8
0
 62
   206
 10
14.93941116333008
 20
17.77153015136718
 30
93.352340698242188
 70
   192
  0
VERTEX
  5
1F0
  8
0
 62
   206
 10
14.94159507751465
 20
18.726287841796871
 30
98.113967895507827
 70
   192
  0
VERTEX
  5
1F1
  8
0
 62
   206
 10
19.960811614990231
 20
-25.378582000732418
 30
63.1348876953125
 70
   192
  0
VERTEX
  5
1F2
  8
0
 62
   206
 10
19.960050582885739
 20
-25.711307525634769
 30
60.631008148193352
 70
   192
  0
VERTEX
  5
1F3
  8
0
 62
   206
 10
20.22808837890625
 20
-25.12041091918945
 30
61.944358825683601
 70
   192
  0
VERTEX
  5
1F4
  8
0
 62
   206
 10
20.32083702087402
 20
-25.3794059753418
 30
60.631004333496087
 70
   192
  0
VERTEX
  5
1F5
  8
0
 62
   206
 10
20.320835113525391
 20
-25.3794059753418
 30
55.951690673828118
 70
   192
  0
VERTEX
  5
1F6
  8
0
 62
   206
 10
19.96004676818848
 20
-25.711307525634769
 30
55.951690673828118
 70
   192
  0
VERTEX
  5
1F7
  8
0
 62
   206
 10
14.95838737487793
 20
23.441913604736332
 30
53.89752197265625
 70
   192
  0
VERTEX
  5
1F8
  8
0
 62
   206
 10
20.096467971801761
 20
23.468147277832031
 30
53.89752197265625
 70
   192
  0
VERTEX
  5
1F9
  8
0
 62
   206
 10
20.076627731323239
 20
25.288558959960941
 30
54.159263610839837
 70
   192
  0
VERTEX
  5
1FA
  8
0
 62
   206
 10
14.95663356781006
 20
25.300262451171879
 30
54.159263610839837
 70
   192
  0
VERTEX
  5
1FB
  8
0
 62
   206
 10
20.348531723022461
 20
22.90427398681641
 30
53.965389251708977
 70
   192
  0
VERTEX
  5
1FC
  8
0
 62
   206
 10
20.433952331542969
 20
24.106781005859379
 30
54.159263610839837
 70
   192
  0
VERTEX
  5
1FD
  8
0
 62
   206
 10
20.07662391662598
 20
25.288558959960941
 30
55.951690673828118
 70
   192
  0
VERTEX
  5
1FE
  8
0
 62
   206
 10
20.075071334838871
 20
24.607746124267582
 30
99.191963195800795
 70
   192
  0
VERTEX
  5
1FF
  8
0
 62
   206
 10
20.07039833068848
 20
22.5653190612793
 30
99.558914184570313
 70
   192
  0
VERTEX
  5
200
  8
0
 62
   206
 10
20.340402603149421
 20
24.014984130859379
 30
98.9078369140625
 70
   192
  0
VERTEX
  5
201
  8
0
 62
   206
 10
20.43010330200195
 20
22.423557281494141
 30
99.194824218750014
 70
   192
  0
VERTEX
  5
202
  8
0
 62
   206
 10
20.332626342773441
 20
20.613327026367191
 30
98.915458679199233
 70
   192
  0
VERTEX
  5
203
  8
0
 62
   206
 10
20.065082550048832
 20
20.241012573242191
 30
99.197677612304687
 70
   192
  0
VERTEX
  5
204
  8
0
 62
   206
 10
20.076620101928711
 20
25.288558959960941
 30
63.193527221679687
 70
   192
  0
VERTEX
  5
205
  8
0
 62
   206
 10
20.076620101928711
 20
25.288558959960941
 30
64.900100708007813
 70
   192
  0
VERTEX
  5
206
  8
0
 62
   206
 10
14.95662212371826
 20
25.300262451171879
 30
64.900100708007813
 70
   192
  0
VERTEX
  5
207
  8
0
 62
   206
 10
20.434076309204102
 20
24.161346435546879
 30
64.901535034179673
 70
   192
  0
VERTEX
  5
208
  8
0
 62
   206
 10
20.07662200927734
 20
25.288558959960941
 30
70.839241027832031
 70
   192
  0
VERTEX
  5
209
  8
0
 62
   206
 10
14.956624984741209
 20
25.300262451171879
 30
70.839241027832031
 70
   192
  0
VERTEX
  5
20A
  8
0
 62
   206
 10
20.05941009521484
 20
17.75982666015625
 30
93.352340698242188
 70
   192
  0
VERTEX
  5
20B
  8
0
 62
   206
 10
20.058017730712891
 20
17.150550842285149
 30
81.957351684570327
 70
   192
  0
VERTEX
  5
20C
  8
0
 62
   206
 10
14.93801975250244
 20
17.16225433349609
 30
81.957351684570327
 70
   192
  0
VERTEX
  5
20D
  8
0
 62
   206
 10
20.05702018737793
 20
16.71401214599609
 30
70.862098693847656
 70
   192
  0
VERTEX
  5
20E
  8
0
 62
   206
 10
20.007209777832031
 20
-5.0782413482666007
 30
64.665580749511719
 70
   192
  0
VERTEX
  5
20F
  8
0
 62
   206
 10
20.038862228393551
 20
8.7686977386474592
 30
64.665580749511719
 70
   192
  0
VERTEX
  5
210
  8
0
 62
   206
 10
19.975643157958981
 20
-18.8894157409668
 30
64.665580749511719
 70
   192
  0
VERTEX
  5
211
  8
0
 62
   206
 10
20.338325500488281
 20
-17.727828979492191
 30
53.89752197265625
 70
   192
  0
VERTEX
  5
212
  8
0
 62
   206
 10
20.368751525878899
 20
-4.4170627593994141
 30
53.89752197265625
 70
   192
  0
VERTEX
  5
213
  8
0
 62
   206
 10
20.013263702392582
 20
-2.430224895477294
 30
53.810276031494141
 70
   192
  0
VERTEX
  5
214
  8
0
 62
   206
 10
19.986268997192379
 20
-14.23976325988769
 30
53.810276031494141
 70
   192
  0
VERTEX
  5
215
  8
0
 62
   206
 10
20.40548133850098
 20
9.0253448486328125
 30
53.897518157958977
 70
   192
  0
VERTEX
  5
216
  8
0
 62
   206
 10
20.065219879150391
 20
9.7985820770263672
 30
53.810272216796868
 70
   192
  0
VERTEX
  5
217
  8
0
 62
   206
 10
20.061592102050781
 20
18.714584350585941
 30
98.113967895507827
 70
   192
  0
VERTEX
  5
218
  8
0
 62
   206
 10
20.423501968383789
 20
19.535507202148441
 30
98.111114501953125
 70
   192
  0
VERTEX
  5
219
  8
0
 62
   206
 10
20.411685943603509
 20
14.366159439086911
 30
63.1348876953125
 70
   192
  0
VERTEX
  5
21A
  8
0
 62
   206
 10
20.531696319580082
 20
14.365884780883791
 30
60.631008148193352
 70
   192
  0
VERTEX
  5
21B
  8
0
 62
   206
 10
20.531696319580082
 20
14.365883827209471
 30
55.951690673828118
 70
   192
  0
VERTEX
  5
21C
  8
0
 62
   206
 10
20.3249397277832
 20
-23.583705902099609
 30
53.89752197265625
 70
   192
  0
VERTEX
  5
21D
  8
0
 62
   206
 10
20.4431266784668
 20
-24.38150787353516
 30
54.159263610839837
 70
   192
  0
VERTEX
  5
21E
  8
0
 62
   206
 10
20.455678939819329
 20
-18.89051437377929
 30
54.159263610839837
 70
   192
  0
VERTEX
  5
21F
  8
0
 62
   206
 10
20.228897094726559
 20
-24.765953063964851
 30
53.965389251708977
 70
   192
  0
VERTEX
  5
220
  8
0
 62
   206
 10
20.320835113525391
 20
-25.3794059753418
 30
54.159263610839837
 70
   192
  0
VERTEX
  5
221
  8
0
 62
   206
 10
20.4431266784668
 20
-24.38150787353516
 30
55.951690673828118
 70
   192
  0
VERTEX
  5
222
  8
0
 62
   206
 10
14.931660652160639
 20
14.37868499755859
 30
64.665580749511719
 70
   192
  0
VERTEX
  5
223
  8
0
 62
   206
 10
14.84310150146484
 20
-24.368705749511719
 30
64.665580749511719
 70
   192
  0
VERTEX
  5
224
  8
0
 62
   206
 10
14.84408473968506
 20
-23.93332672119141
 30
53.897518157958977
 70
   192
  0
VERTEX
  5
225
  8
0
 62
   206
 10
14.856198310852051
 20
-18.63448333740234
 30
53.810276031494141
 70
   192
  0
VERTEX
  5
226
  8
0
 62
   206
 10
0.5466692447662354
 20
-23.590106964111332
 30
53.89752197265625
 70
   192
  0
VERTEX
  5
227
  8
0
 62
   206
 10
14.963644981384279
 20
17.866859436035149
 30
53.810272216796868
 70
   192
  0
VERTEX
  5
228
  8
0
 62
   206
 10
0.6404758095741272
 20
17.448524475097649
 30
53.810276031494141
 70
   192
  0
VERTEX
  5
229
  8
0
 62
   206
 10
0.6539925336837769
 20
23.36183929443359
 30
53.89752197265625
 70
   192
  0
VERTEX
  5
22A
  8
0
 62
   206
 10
20.323118209838871
 20
-24.381233215332031
 30
63.1348876953125
 70
   192
  0
VERTEX
  5
22B
  8
0
 62
   206
 10
19.963092803955071
 20
-24.38040924072266
 30
64.665580749511719
 70
   192
  0
VERTEX
  5
22C
  8
0
 62
   206
 10
20.051656723022461
 20
14.36698055267334
 30
64.665580749511719
 70
   192
  0
VERTEX
  5
22D
  8
0
 62
   206
 10
20.0544319152832
 20
15.581581115722649
 30
64.727066040039063
 70
   192
  0
VERTEX
  5
22E
  8
0
 62
   206
 10
20.437770843505859
 20
15.27614116668701
 30
53.89752197265625
 70
   192
  0
VERTEX
  5
22F
  8
0
 62
   206
 10
20.155990600585941
 20
18.00691986083984
 30
53.810272216796868
 70
   192
  0
VERTEX
  5
230
  8
0
 62
   206
 10
20.495420455932621
 20
17.163909912109371
 30
53.965389251708977
 70
   192
  0
VERTEX
  5
231
  8
0
 62
   206
 10
20.448394775390629
 20
19.924465179443359
 30
53.89752197265625
 70
   192
  0
VERTEX
  5
232
  8
0
 62
   206
 10
19.970378875732418
 20
-21.190288543701168
 30
53.810276031494141
 70
   192
  0
VERTEX
  5
233
  8
0
 62
   206
 10
19.962627410888668
 20
-24.5810546875
 30
53.89752197265625
 70
   192
  0
VERTEX
  5
234
  8
0
 62
   206
 10
14.95662784576416
 20
25.300262451171879
 30
81.923065185546875
 70
   192
  0
VERTEX
  5
235
  8
0
 62
   206
 10
20.434774398803711
 20
24.465988159179691
 30
98.093971252441406
 70
   192
  0
VERTEX
  5
236
  8
0
 62
   206
 10
20.076627731323239
 20
25.288558959960941
 30
98.091110229492188
 70
   192
  0
VERTEX
  5
237
  8
0
 62
   206
 10
20.07662391662598
 20
25.288558959960941
 30
93.315200805664063
 70
   192
  0
VERTEX
  5
238
  8
0
 62
   206
 10
20.549148559570309
 20
22.000473022460941
 30
98.1025390625
 70
   192
  0
VERTEX
  5
239
  8
0
 62
   206
 10
14.840048789978029
 20
-25.699604034423832
 30
54.159263610839837
 70
   192
  0
VERTEX
  5
23A
  8
0
 62
   206
 10
0.5419219732284546
 20
-25.666923522949219
 30
54.159263610839837
 70
   192
  0
VERTEX
  5
23B
  8
0
 62
   206
 10
20.518899917602539
 20
8.7675991058349592
 30
54.159263610839837
 70
   192
  0
VERTEX
  5
23C
  8
0
 62
   206
 10
20.487247467041019
 20
-5.0793409347534171
 30
54.159263610839837
 70
   192
  0
VERTEX
  5
23D
  8
0
 62
   206
 10
20.545864105224609
 20
20.56364822387696
 30
54.159263610839837
 70
   192
  0
VERTEX
  5
23E
  8
0
 62
   206
 10
20.536922454833981
 20
16.652301788330082
 30
54.159263610839837
 70
   192
  0
VERTEX
  5
23F
  8
0
 62
   206
 10
19.96004486083984
 20
-25.711307525634769
 30
54.159263610839837
 70
   192
  0
VERTEX
  5
240
  8
0
 62
   206
 10
20.07662200927734
 20
25.288558959960941
 30
60.631004333496087
 70
   192
  0
VERTEX
  5
241
  8
0
 62
   206
 10
20.531696319580082
 20
14.365882873535149
 30
54.159263610839837
 70
   192
  0
VERTEX
  5
242
  8
0
 62
   206
 10
20.4431266784668
 20
-24.38150787353516
 30
60.631004333496087
 70
   192
  0
VERTEX
  5
243
  8
0
 62
   206
 10
20.54636192321777
 20
20.781917572021481
 30
64.90582275390625
 70
   192
  0
VERTEX
  5
244
  8
0
 62
   206
 10
20.41862869262695
 20
17.403034210205082
 30
64.910102844238281
 70
   192
  0
VERTEX
  5
245
  8
0
 62
   206
 10
0.6398961544036866
 20
17.194938659667969
 30
81.957351684570327
 70
   192
  0
VERTEX
  5
246
  8
0
 62
   206
 10
20.07662391662598
 20
25.288558959960941
 30
81.923065185546875
 70
   192
  0
VERTEX
  5
247
  8
0
 62
   206
 10
20.056022644042969
 20
16.277473449707031
 30
64.911529541015625
 70
   192
  0
VERTEX
  5
248
  8
0
 62
   206
 10
0.658498227596283
 20
25.332942962646481
 30
64.900100708007813
 70
   192
  0
VERTEX
  5
249
  8
0
 62
   206
 10
15.683553695678709
 20
24.575813293457031
 30
54.238151550292969
 70
   192
  0
VERTEX
  5
24A
  8
0
 62
   206
 10
17.316228866577148
 20
25.4323844909668
 30
15.49741744995117
 70
   192
  0
VERTEX
  5
24B
  8
0
 62
   206
 10
20.249555587768558
 20
25.422603607177741
 30
15.49819374084473
 70
   192
  0
VERTEX
  5
24C
  8
0
 62
   206
 10
19.313602447509759
 20
24.56363677978516
 30
54.238712310791009
 70
   192
  0
VERTEX
  5
24D
  8
0
 62
   206
 10
20.2425651550293
 20
22.390251159667969
 30
15.497426986694331
 70
   192
  0
VERTEX
  5
24E
  8
0
 62
   206
 10
19.305025100708011
 20
20.811031341552741
 30
54.238162994384773
 70
   192
  0
VERTEX
  5
24F
  8
0
 62
   206
 10
17.30919075012207
 20
22.399982452392582
 30
15.496650695800779
 70
   192
  0
VERTEX
  5
250
  8
0
 62
   206
 10
15.67497634887695
 20
20.82320404052734
 30
54.237606048583977
 70
   192
  0
VERTEX
  5
251
  8
0
 62
   206
 10
20.67399978637695
 20
23.11696624755859
 30
-2.3371105194091788
 70
   192
  0
VERTEX
  5
252
  8
0
 62
   206
 10
20.680173873901371
 20
25.81779861450196
 30
-2.3250491619110099
 70
   192
  0
VERTEX
  5
253
  8
0
 62
   206
 10
18.067548751831051
 20
25.82656097412109
 30
-2.337291717529296
 70
   192
  0
VERTEX
  5
254
  8
0
 62
   206
 10
18.061374664306641
 20
23.125728607177731
 30
-2.3493530750274649
 70
   192
  0
VERTEX
  5
255
  8
0
 62
   206
 10
15.57273960113525
 20
-23.904121398925781
 30
54.238151550292969
 70
   192
  0
VERTEX
  5
256
  8
0
 62
   206
 10
19.20280647277832
 20
-23.908542633056641
 30
54.23870849609375
 70
   192
  0
VERTEX
  5
257
  8
0
 62
   206
 10
20.134822845458991
 20
-24.771774291992191
 30
15.498189926147459
 70
   192
  0
VERTEX
  5
258
  8
0
 62
   206
 10
17.201480865478509
 20
-24.768146514892582
 30
15.497413635253899
 70
   192
  0
VERTEX
  5
259
  8
0
 62
   206
 10
19.211383819580082
 20
-20.155941009521481
 30
54.2381591796875
 70
   192
  0
VERTEX
  5
25A
  8
0
 62
   206
 10
20.141695022583011
 20
-21.739421844482418
 30
15.497426986694331
 70
   192
  0
VERTEX
  5
25B
  8
0
 62
   206
 10
15.58131694793701
 20
-20.151515960693359
 30
54.237602233886719
 70
   192
  0
VERTEX
  5
25C
  8
0
 62
   206
 10
17.208307266235352
 20
-21.735748291015621
 30
15.49664878845215
 70
   192
  0
VERTEX
  5
25D
  8
0
 62
   206
 10
20.569803237915039
 20
-22.46810150146484
 30
-2.337116003036499
 70
   192
  0
VERTEX
  5
25E
  8
0
 62
   206
 10
17.9571647644043
 20
-22.464920043945309
 30
-2.3493571281433101
 70
   192
  0
VERTEX
  5
25F
  8
0
 62
   206
 10
17.950992584228509
 20
-25.165752410888668
 30
-2.3372974395751949
 70
   192
  0
VERTEX
  5
260
  8
0
 62
   206
 10
20.563629150390629
 20
-25.168937683105469
 30
-2.3250544071197501
 70
   192
  0
VERTEX
  5
261
  8
0
 62
   206
 10
20.31062126159668
 20
25.478645324707031
 30
12.970588684082029
 70
   192
  0
VERTEX
  5
262
  8
0
 62
   206
 10
17.422735214233398
 20
25.488262176513668
 30
12.97052383422851
 70
   192
  0
VERTEX
  5
263
  8
0
 62
   206
 10
20.30372428894043
 20
22.493270874023441
 30
12.97052383422851
 70
   192
  0
VERTEX
  5
264
  8
0
 62
   206
 10
17.41578483581543
 20
22.502826690673832
 30
12.970458984375
 70
   192
  0
VERTEX
  5
265
  8
0
 62
   206
 10
17.307731628417969
 20
-24.82451248168946
 30
12.970521926879879
 70
   192
  0
VERTEX
  5
266
  8
0
 62
   206
 10
20.19563102722168
 20
-24.82810211181641
 30
12.9705867767334
 70
   192
  0
VERTEX
  5
267
  8
0
 62
   206
 10
20.202384948730469
 20
-21.842720031738281
 30
12.970521926879879
 70
   192
  0
VERTEX
  5
268
  8
0
 62
   206
 10
17.314430236816399
 20
-21.839084625244141
 30
12.97045707702636
 70
   192
  0
VERTEX
  5
269
  8
0
 62
   206
 10
-16.166606903076168
 20
-24.719936370849609
 30
14.23396682739258
 70
   192
  0
VERTEX
  5
26A
  8
0
 62
   206
 10
0.5439932346343995
 20
-24.760787963867191
 30
14.23609542846679
 70
   192
  0
VERTEX
  5
26B
  8
0
 62
   206
 10
17.254604339599609
 20
-24.796329498291019
 30
14.23396682739258
 70
   192
  0
VERTEX
  5
26C
  8
0
 62
   206
 10
-16.106340408325192
 20
-21.65956878662109
 30
15.59664916992187
 70
   192
  0
VERTEX
  5
26D
  8
0
 62
   206
 10
-16.113544464111332
 20
-24.762821197509769
 30
15.56800651550293
 70
   192
  0
VERTEX
  5
26E
  8
0
 62
   206
 10
-16.166849136352539
 20
-24.819911956787109
 30
14.236188888549799
 70
   192
  0
VERTEX
  5
26F
  8
0
 62
   206
 10
0.5437647104263306
 20
-24.860763549804691
 30
14.23831176757812
 70
   192
  0
VERTEX
  5
270
  8
0
 62
   206
 10
17.254392623901371
 20
-24.896305084228519
 30
14.236188888549799
 70
   192
  0
VERTEX
  5
271
  8
0
 62
   206
 10
17.201347351074219
 20
-24.838973999023441
 30
15.56800651550293
 70
   192
  0
VERTEX
  5
272
  8
0
 62
   206
 10
17.208330154418942
 20
-21.735721588134769
 30
15.59664916992187
 70
   192
  0
VERTEX
  5
273
  8
0
 62
   206
 10
0.5509889125823975
 20
-21.7003059387207
 30
15.6005744934082
 70
   192
  0
VERTEX
  5
274
  8
0
 62
   206
 10
0.0
 20
0.0
 30
0.0
 70
   128
 71
    86
 72
   188
 73
  -189
 74
   -86
  0
VERTEX
  5
275
  8
0
 62
   206
 10
0.0
 20
0.0
 30
0.0
 70
   128
 71
   189
 72
    14
 73
   -86
 74
  -189
  0
VERTEX
  5
276
  8
0
 62
   206
 10
0.0
 20
0.0
 30
0.0
 70
   128
 71
   164
 72
   188
 73
   -86
 74
  -164
  0
VERTEX
  5
277
  8
0
 62
   206
 10
0.0
 20
0.0
 30
0.0
 70
   128
 71
    86
 72
    31
 73
  -164
 74
   -86
  0
VERTEX
  5
278
  8
0
 62
   206
 10
0.0
 20
0.0
 30
0.0
 70
   128
 71
   165
 72
   192
 73
  -116
 74
  -165
  0
VERTEX
  5
279
  8
0
 62
   206
 10
0.0
 20
0.0
 30
0.0
 70
   128
 71
   116
 72
    15
 73
  -165
 74
  -116
  0
VERTEX
  5
27A
  8
0
 62
   206
 10
0.0
 20
0.0
 30
0.0
 70
   128
 71
   116
 72
   192
 73
  -166
 74
  -116
  0
VERTEX
  5
27B
  8
0
 62
   206
 10
0.0
 20
0.0
 30
0.0
 70
   128
 71
   166
 72
    32
 73
  -116
 74
  -166
  0
VERTEX
  5
27C
  8
0
 62
   206
 10
0.0
 20
0.0
 30
0.0
 70
   128
 71
    20
 72
    96
 73
   -39
 74
   -20
  0
VERTEX
  5
27D
  8
0
 62
   206
 10
0.0
 20
0.0
 30
0.0
 70
   128
 71
    39
 72
   118
 73
   -20
 74
   -39
  0
VERTEX
  5
27E
  8
0
 62
   206
 10
0.0
 20
0.0
 30
0.0
 70
   128
 71
    21
 72
   102
 73
   -39
 74
   -21
  0
VERTEX
  5
27F
  8
0
 62
   206
 10
0.0
 20
0.0
 30
0.0
 70
   128
 71
    39
 72
    96
 73
   -21
 74
   -39
  0
VERTEX
  5
280
  8
0
 62
   206
 10
0.0
 20
0.0
 30
0.0
 70
   128
 71
    33
 72
   119
 73
   -39
 74
   -33
  0
VERTEX
  5
281
  8
0
 62
   206
 10
0.0
 20
0.0
 30
0.0
 70
   128
 71
    39
 72
   102
 73
   -33
 74
   -39
  0
VERTEX
  5
282
  8
0
 62
   206
 10
0.0
 20
0.0
 30
0.0
 70
   128
 71
    34
 72
   118
 73
   -39
 74
   -34
  0
VERTEX
  5
283
  8
0
 62
   206
 10
0.0
 20
0.0
 30
0.0
 70
   128
 71
    39
 72
   119
 73
   -34
 74
   -39
  0
VERTEX
  5
284
  8
0
 62
   206
 10
0.0
 20
0.0
 30
0.0
 70
   128
 71
    88
 72
   206
 73
  -207
 74
   -88
  0
VERTEX
  5
285
  8
0
 62
   206
 10
0.0
 20
0.0
 30
0.0
 70
   128
 71
   207
 72
    10
 73
   -88
 74
  -207
  0
VERTEX
  5
286
  8
0
 62
   206
 10
0.0
 20
0.0
 30
0.0
 70
   128
 71
   167
 72
   206
 73
   -88
 74
  -167
  0
VERTEX
  5
287
  8
0
 62
   206
 10
0.0
 20
0.0
 30
0.0
 70
   128
 71
    88
 72
    13
 73
  -167
 74
   -88
  0
VERTEX
  5
288
  8
0
 62
   206
 10
0.0
 20
0.0
 30
0.0
 70
   128
 71
     9
 72
   111
 73
   -40
 74
    -9
  0
VERTEX
  5
289
  8
0
 62
   206
 10
0.0
 20
0.0
 30
0.0
 70
   128
 71
    40
 72
   125
 73
    -9
 74
   -40
  0
VERTEX
  5
28A
  8
0
 62
   206
 10
0.0
 20
0.0
 30
0.0
 70
   128
 71
    26
 72
   126
 73
   -40
 74
   -26
  0
VERTEX
  5
28B
  8
0
 62
   206
 10
0.0
 20
0.0
 30
0.0
 70
   128
 71
    40
 72
   111
 73
   -26
 74
   -40
  0
VERTEX
  5
28C
  8
0
 62
   206
 10
0.0
 20
0.0
 30
0.0
 70
   128
 71
    36
 72
   129
 73
   -40
 74
   -36
  0
VERTEX
  5
28D
  8
0
 62
   206
 10
0.0
 20
0.0
 30
0.0
 70
   128
 71
    40
 72
   126
 73
   -36
 74
   -40
  0
VERTEX
  5
28E
  8
0
 62
   206
 10
0.0
 20
0.0
 30
0.0
 70
   128
 71
    35
 72
   125
 73
   -40
 74
   -35
  0
VERTEX
  5
28F
  8
0
 62
   206
 10
0.0
 20
0.0
 30
0.0
 70
   128
 71
    40
 72
   129
 73
   -35
 74
   -40
  0
VERTEX
  5
290
  8
0
 62
   206
 10
0.0
 20
0.0
 30
0.0
 70
   128
 71
   207
 72
   168
 73
  -109
 74
  -207
  0
VERTEX
  5
291
  8
0
 62
   206
 10
0.0
 20
0.0
 30
0.0
 70
   128
 71
   109
 72
    10
 73
  -207
 74
  -109
  0
VERTEX
  5
292
  8
0
 62
   206
 10
0.0
 20
0.0
 30
0.0
 70
   128
 71
   109
 72
   168
 73
  -220
 74
  -109
  0
VERTEX
  5
293
  8
0
 62
   206
 10
0.0
 20
0.0
 30
0.0
 70
   128
 71
   220
 72
    27
 73
  -109
 74
  -220
  0
VERTEX
  5
294
  8
0
 62
   206
 10
0.0
 20
0.0
 30
0.0
 70
   128
 71
     7
 72
   112
 73
   -41
 74
    -7
  0
VERTEX
  5
295
  8
0
 62
   206
 10
0.0
 20
0.0
 30
0.0
 70
   128
 71
    41
 72
    79
 73
    -7
 74
   -41
  0
VERTEX
  5
296
  8
0
 62
   206
 10
0.0
 20
0.0
 30
0.0
 70
   128
 71
    28
 72
   120
 73
   -41
 74
   -28
  0
VERTEX
  5
297
  8
0
 62
   206
 10
0.0
 20
0.0
 30
0.0
 70
   128
 71
    41
 72
   112
 73
   -28
 74
   -41
  0
VERTEX
  5
298
  8
0
 62
   206
 10
0.0
 20
0.0
 30
0.0
 70
   128
 71
    30
 72
    76
 73
   -41
 74
   -30
  0
VERTEX
  5
299
  8
0
 62
   206
 10
0.0
 20
0.0
 30
0.0
 70
   128
 71
    41
 72
   120
 73
   -30
 74
   -41
  0
VERTEX
  5
29A
  8
0
 62
   206
 10
0.0
 20
0.0
 30
0.0
 70
   128
 71
     8
 72
    79
 73
   -41
 74
    -8
  0
VERTEX
  5
29B
  8
0
 62
   206
 10
0.0
 20
0.0
 30
0.0
 70
   128
 71
    41
 72
    76
 73
    -8
 74
   -41
  0
VERTEX
  5
29C
  8
0
 62
   206
 10
0.0
 20
0.0
 30
0.0
 70
   128
 71
   169
 72
   170
 73
  -128
 74
  -169
  0
VERTEX
  5
29D
  8
0
 62
   206
 10
0.0
 20
0.0
 30
0.0
 70
   128
 71
   128
 72
    16
 73
  -169
 74
  -128
  0
VERTEX
  5
29E
  8
0
 62
   206
 10
0.0
 20
0.0
 30
0.0
 70
   128
 71
   128
 72
   170
 73
  -233
 74
  -128
  0
VERTEX
  5
29F
  8
0
 62
   206
 10
0.0
 20
0.0
 30
0.0
 70
   128
 71
   233
 72
    38
 73
  -128
 74
  -233
  0
VERTEX
  5
2A0
  8
0
 62
   206
 10
0.0
 20
0.0
 30
0.0
 70
   128
 71
    98
 72
   236
 73
  -171
 74
   -98
  0
VERTEX
  5
2A1
  8
0
 62
   206
 10
0.0
 20
0.0
 30
0.0
 70
   128
 71
   171
 72
    22
 73
   -98
 74
  -171
  0
VERTEX
  5
2A2
  8
0
 62
   206
 10
0.0
 20
0.0
 30
0.0
 70
   128
 71
   172
 72
   236
 73
   -98
 74
  -172
  0
VERTEX
  5
2A3
  8
0
 62
   206
 10
0.0
 20
0.0
 30
0.0
 70
   128
 71
    98
 72
    23
 73
  -172
 74
   -98
  0
VERTEX
  5
2A4
  8
0
 62
   206
 10
0.0
 20
0.0
 30
0.0
 70
   128
 71
   100
 72
   240
 73
  -173
 74
  -100
  0
VERTEX
  5
2A5
  8
0
 62
   206
 10
0.0
 20
0.0
 30
0.0
 70
   128
 71
   173
 72
    24
 73
  -100
 74
  -173
  0
VERTEX
  5
2A6
  8
0
 62
   206
 10
0.0
 20
0.0
 30
0.0
 70
   128
 71
   242
 72
   240
 73
  -100
 74
  -242
  0
VERTEX
  5
2A7
  8
0
 62
   206
 10
0.0
 20
0.0
 30
0.0
 70
   128
 71
   100
 72
    25
 73
  -242
 74
  -100
  0
VERTEX
  5
2A8
  8
0
 62
   206
 10
0.0
 20
0.0
 30
0.0
 70
   128
 71
   174
 72
   175
 73
   -93
 74
  -174
  0
VERTEX
  5
2A9
  8
0
 62
   206
 10
0.0
 20
0.0
 30
0.0
 70
   128
 71
    93
 72
    17
 73
  -174
 74
   -93
  0
VERTEX
  5
2AA
  8
0
 62
   206
 10
0.0
 20
0.0
 30
0.0
 70
   128
 71
    93
 72
   175
 73
  -167
 74
   -93
  0
VERTEX
  5
2AB
  8
0
 62
   206
 10
0.0
 20
0.0
 30
0.0
 70
   128
 71
   167
 72
    13
 73
   -93
 74
  -167
  0
VERTEX
  5
2AC
  8
0
 62
   206
 10
0.0
 20
0.0
 30
0.0
 70
   128
 71
    14
 72
    85
 73
   -42
 74
   -14
  0
VERTEX
  5
2AD
  8
0
 62
   206
 10
0.0
 20
0.0
 30
0.0
 70
   128
 71
    42
 72
    86
 73
   -14
 74
   -42
  0
VERTEX
  5
2AE
  8
0
 62
   206
 10
0.0
 20
0.0
 30
0.0
 70
   128
 71
     6
 72
    74
 73
   -42
 74
    -6
  0
VERTEX
  5
2AF
  8
0
 62
   206
 10
0.0
 20
0.0
 30
0.0
 70
   128
 71
    42
 72
    85
 73
    -6
 74
   -42
  0
VERTEX
  5
2B0
  8
0
 62
   206
 10
0.0
 20
0.0
 30
0.0
 70
   128
 71
    29
 72
   121
 73
   -42
 74
   -29
  0
VERTEX
  5
2B1
  8
0
 62
   206
 10
0.0
 20
0.0
 30
0.0
 70
   128
 71
    42
 72
    74
 73
   -29
 74
   -42
  0
VERTEX
  5
2B2
  8
0
 62
   206
 10
0.0
 20
0.0
 30
0.0
 70
   128
 71
    31
 72
    86
 73
   -42
 74
   -31
  0
VERTEX
  5
2B3
  8
0
 62
   206
 10
0.0
 20
0.0
 30
0.0
 70
   128
 71
    42
 72
   121
 73
   -31
 74
   -42
  0
VERTEX
  5
2B4
  8
0
 62
   206
 10
0.0
 20
0.0
 30
0.0
 70
   128
 71
    12
 72
    84
 73
   -43
 74
   -12
  0
VERTEX
  5
2B5
  8
0
 62
   206
 10
0.0
 20
0.0
 30
0.0
 70
   128
 71
    43
 72
    87
 73
   -12
 74
   -43
  0
VERTEX
  5
2B6
  8
0
 62
   206
 10
0.0
 20
0.0
 30
0.0
 70
   128
 71
     3
 72
    68
 73
   -43
 74
    -3
  0
VERTEX
  5
2B7
  8
0
 62
   206
 10
0.0
 20
0.0
 30
0.0
 70
   128
 71
    43
 72
    84
 73
    -3
 74
   -43
  0
VERTEX
  5
2B8
  8
0
 62
   206
 10
0.0
 20
0.0
 30
0.0
 70
   128
 71
    28
 72
   122
 73
   -43
 74
   -28
  0
VERTEX
  5
2B9
  8
0
 62
   206
 10
0.0
 20
0.0
 30
0.0
 70
   128
 71
    43
 72
    68
 73
   -28
 74
   -43
  0
VERTEX
  5
2BA
  8
0
 62
   206
 10
0.0
 20
0.0
 30
0.0
 70
   128
 71
    32
 72
    87
 73
   -43
 74
   -32
  0
VERTEX
  5
2BB
  8
0
 62
   206
 10
0.0
 20
0.0
 30
0.0
 70
   128
 71
    43
 72
   122
 73
   -32
 74
   -43
  0
VERTEX
  5
2BC
  8
0
 62
   206
 10
0.0
 20
0.0
 30
0.0
 70
   128
 71
    10
 72
    83
 73
   -44
 74
   -10
  0
VERTEX
  5
2BD
  8
0
 62
   206
 10
0.0
 20
0.0
 30
0.0
 70
   128
 71
    44
 72
    88
 73
   -10
 74
   -44
  0
VERTEX
  5
2BE
  8
0
 62
   206
 10
0.0
 20
0.0
 30
0.0
 70
   128
 71
     1
 72
    67
 73
   -44
 74
    -1
  0
VERTEX
  5
2BF
  8
0
 62
   206
 10
0.0
 20
0.0
 30
0.0
 70
   128
 71
    44
 72
    83
 73
    -1
 74
   -44
  0
VERTEX
  5
2C0
  8
0
 62
   206
 10
0.0
 20
0.0
 30
0.0
 70
   128
 71
     4
 72
    72
 73
   -44
 74
    -4
  0
VERTEX
  5
2C1
  8
0
 62
   206
 10
0.0
 20
0.0
 30
0.0
 70
   128
 71
    44
 72
    67
 73
    -4
 74
   -44
  0
VERTEX
  5
2C2
  8
0
 62
   206
 10
0.0
 20
0.0
 30
0.0
 70
   128
 71
    13
 72
    88
 73
   -44
 74
   -13
  0
VERTEX
  5
2C3
  8
0
 62
   206
 10
0.0
 20
0.0
 30
0.0
 70
   128
 71
    44
 72
    72
 73
   -13
 74
   -44
  0
VERTEX
  5
2C4
  8
0
 62
   206
 10
0.0
 20
0.0
 30
0.0
 70
   128
 71
    15
 72
    77
 73
   -45
 74
   -15
  0
VERTEX
  5
2C5
  8
0
 62
   206
 10
0.0
 20
0.0
 30
0.0
 70
   128
 71
    45
 72
    89
 73
   -15
 74
   -45
  0
VERTEX
  5
2C6
  8
0
 62
   206
 10
0.0
 20
0.0
 30
0.0
 70
   128
 71
     7
 72
    75
 73
   -45
 74
    -7
  0
VERTEX
  5
2C7
  8
0
 62
   206
 10
0.0
 20
0.0
 30
0.0
 70
   128
 71
    45
 72
    77
 73
    -7
 74
   -45
  0
VERTEX
  5
2C8
  8
0
 62
   206
 10
0.0
 20
0.0
 30
0.0
 70
   128
 71
    36
 72
   130
 73
   -45
 74
   -36
  0
VERTEX
  5
2C9
  8
0
 62
   206
 10
0.0
 20
0.0
 30
0.0
 70
   128
 71
    45
 72
    75
 73
   -36
 74
   -45
  0
VERTEX
  5
2CA
  8
0
 62
   206
 10
0.0
 20
0.0
 30
0.0
 70
   128
 71
    37
 72
    89
 73
   -45
 74
   -37
  0
VERTEX
  5
2CB
  8
0
 62
   206
 10
0.0
 20
0.0
 30
0.0
 70
   128
 71
    45
 72
   130
 73
   -37
 74
   -45
  0
VERTEX
  5
2CC
  8
0
 62
   206
 10
0.0
 20
0.0
 30
0.0
 70
   128
 71
    17
 72
    82
 73
   -46
 74
   -17
  0
VERTEX
  5
2CD
  8
0
 62
   206
 10
0.0
 20
0.0
 30
0.0
 70
   128
 71
    46
 72
    90
 73
   -17
 74
   -46
  0
VERTEX
  5
2CE
  8
0
 62
   206
 10
0.0
 20
0.0
 30
0.0
 70
   128
 71
     9
 72
   125
 73
   -46
 74
    -9
  0
VERTEX
  5
2CF
  8
0
 62
   206
 10
0.0
 20
0.0
 30
0.0
 70
   128
 71
    46
 72
    82
 73
    -9
 74
   -46
  0
VERTEX
  5
2D0
  8
0
 62
   206
 10
0.0
 20
0.0
 30
0.0
 70
   128
 71
    35
 72
   131
 73
   -46
 74
   -35
  0
VERTEX
  5
2D1
  8
0
 62
   206
 10
0.0
 20
0.0
 30
0.0
 70
   128
 71
    46
 72
   125
 73
   -35
 74
   -46
  0
VERTEX
  5
2D2
  8
0
 62
   206
 10
0.0
 20
0.0
 30
0.0
 70
   128
 71
    38
 72
    90
 73
   -46
 74
   -38
  0
VERTEX
  5
2D3
  8
0
 62
   206
 10
0.0
 20
0.0
 30
0.0
 70
   128
 71
    46
 72
   131
 73
   -38
 74
   -46
  0
VERTEX
  5
2D4
  8
0
 62
   206
 10
0.0
 20
0.0
 30
0.0
 70
   128
 71
    21
 72
    96
 73
   -47
 74
   -21
  0
VERTEX
  5
2D5
  8
0
 62
   206
 10
0.0
 20
0.0
 30
0.0
 70
   128
 71
    47
 72
   105
 73
   -21
 74
   -47
  0
VERTEX
  5
2D6
  8
0
 62
   206
 10
0.0
 20
0.0
 30
0.0
 70
   128
 71
    20
 72
   104
 73
   -47
 74
   -20
  0
VERTEX
  5
2D7
  8
0
 62
   206
 10
0.0
 20
0.0
 30
0.0
 70
   128
 71
    47
 72
    96
 73
   -20
 74
   -47
  0
VERTEX
  5
2D8
  8
0
 62
   206
 10
0.0
 20
0.0
 30
0.0
 70
   128
 71
    23
 72
    98
 73
   -47
 74
   -23
  0
VERTEX
  5
2D9
  8
0
 62
   206
 10
0.0
 20
0.0
 30
0.0
 70
   128
 71
    47
 72
   104
 73
   -23
 74
   -47
  0
VERTEX
  5
2DA
  8
0
 62
   206
 10
0.0
 20
0.0
 30
0.0
 70
   128
 71
    22
 72
   105
 73
   -47
 74
   -22
  0
VERTEX
  5
2DB
  8
0
 62
   206
 10
0.0
 20
0.0
 30
0.0
 70
   128
 71
    47
 72
    98
 73
   -22
 74
   -47
  0
VERTEX
  5
2DC
  8
0
 62
   206
 10
0.0
 20
0.0
 30
0.0
 70
   128
 71
    19
 72
    94
 73
   -48
 74
   -19
  0
VERTEX
  5
2DD
  8
0
 62
   206
 10
0.0
 20
0.0
 30
0.0
 70
   128
 71
    48
 72
   107
 73
   -19
 74
   -48
  0
VERTEX
  5
2DE
  8
0
 62
   206
 10
0.0
 20
0.0
 30
0.0
 70
   128
 71
    18
 72
   106
 73
   -48
 74
   -18
  0
VERTEX
  5
2DF
  8
0
 62
   206
 10
0.0
 20
0.0
 30
0.0
 70
   128
 71
    48
 72
    94
 73
   -18
 74
   -48
  0
VERTEX
  5
2E0
  8
0
 62
   206
 10
0.0
 20
0.0
 30
0.0
 70
   128
 71
    25
 72
   100
 73
   -48
 74
   -25
  0
VERTEX
  5
2E1
  8
0
 62
   206
 10
0.0
 20
0.0
 30
0.0
 70
   128
 71
    48
 72
   106
 73
   -25
 74
   -48
  0
VERTEX
  5
2E2
  8
0
 62
   206
 10
0.0
 20
0.0
 30
0.0
 70
   128
 71
    24
 72
   107
 73
   -48
 74
   -24
  0
VERTEX
  5
2E3
  8
0
 62
   206
 10
0.0
 20
0.0
 30
0.0
 70
   128
 71
    48
 72
   100
 73
   -24
 74
   -48
  0
VERTEX
  5
2E4
  8
0
 62
   206
 10
0.0
 20
0.0
 30
0.0
 70
   128
 71
    13
 72
    72
 73
   -49
 74
   -13
  0
VERTEX
  5
2E5
  8
0
 62
   206
 10
0.0
 20
0.0
 30
0.0
 70
   128
 71
    49
 72
    93
 73
   -13
 74
   -49
  0
VERTEX
  5
2E6
  8
0
 62
   206
 10
0.0
 20
0.0
 30
0.0
 70
   128
 71
     4
 72
    81
 73
   -49
 74
    -4
  0
VERTEX
  5
2E7
  8
0
 62
   206
 10
0.0
 20
0.0
 30
0.0
 70
   128
 71
    49
 72
    72
 73
    -4
 74
   -49
  0
VERTEX
  5
2E8
  8
0
 62
   206
 10
0.0
 20
0.0
 30
0.0
 70
   128
 71
     9
 72
    82
 73
   -49
 74
    -9
  0
VERTEX
  5
2E9
  8
0
 62
   206
 10
0.0
 20
0.0
 30
0.0
 70
   128
 71
    49
 72
    81
 73
    -9
 74
   -49
  0
VERTEX
  5
2EA
  8
0
 62
   206
 10
0.0
 20
0.0
 30
0.0
 70
   128
 71
    17
 72
    93
 73
   -49
 74
   -17
  0
VERTEX
  5
2EB
  8
0
 62
   206
 10
0.0
 20
0.0
 30
0.0
 70
   128
 71
    49
 72
    82
 73
   -17
 74
   -49
  0
VERTEX
  5
2EC
  8
0
 62
   206
 10
0.0
 20
0.0
 30
0.0
 70
   128
 71
    21
 72
    97
 73
   -50
 74
   -21
  0
VERTEX
  5
2ED
  8
0
 62
   206
 10
0.0
 20
0.0
 30
0.0
 70
   128
 71
    50
 72
   102
 73
   -21
 74
   -50
  0
VERTEX
  5
2EE
  8
0
 62
   206
 10
0.0
 20
0.0
 30
0.0
 70
   128
 71
     8
 72
    76
 73
   -50
 74
    -8
  0
VERTEX
  5
2EF
  8
0
 62
   206
 10
0.0
 20
0.0
 30
0.0
 70
   128
 71
    50
 72
    97
 73
    -8
 74
   -50
  0
VERTEX
  5
2F0
  8
0
 62
   206
 10
0.0
 20
0.0
 30
0.0
 70
   128
 71
    30
 72
   123
 73
   -50
 74
   -30
  0
VERTEX
  5
2F1
  8
0
 62
   206
 10
0.0
 20
0.0
 30
0.0
 70
   128
 71
    50
 72
    76
 73
   -30
 74
   -50
  0
VERTEX
  5
2F2
  8
0
 62
   206
 10
0.0
 20
0.0
 30
0.0
 70
   128
 71
    33
 72
   102
 73
   -50
 74
   -33
  0
VERTEX
  5
2F3
  8
0
 62
   206
 10
0.0
 20
0.0
 30
0.0
 70
   128
 71
    50
 72
   123
 73
   -33
 74
   -50
  0
VERTEX
  5
2F4
  8
0
 62
   206
 10
0.0
 20
0.0
 30
0.0
 70
   128
 71
    19
 72
    95
 73
   -51
 74
   -19
  0
VERTEX
  5
2F5
  8
0
 62
   206
 10
0.0
 20
0.0
 30
0.0
 70
   128
 71
    51
 72
   103
 73
   -19
 74
   -51
  0
VERTEX
  5
2F6
  8
0
 62
   206
 10
0.0
 20
0.0
 30
0.0
 70
   128
 71
     2
 72
   113
 73
   -51
 74
    -2
  0
VERTEX
  5
2F7
  8
0
 62
   206
 10
0.0
 20
0.0
 30
0.0
 70
   128
 71
    51
 72
    95
 73
    -2
 74
   -51
  0
VERTEX
  5
2F8
  8
0
 62
   206
 10
0.0
 20
0.0
 30
0.0
 70
   128
 71
    29
 72
   124
 73
   -51
 74
   -29
  0
VERTEX
  5
2F9
  8
0
 62
   206
 10
0.0
 20
0.0
 30
0.0
 70
   128
 71
    51
 72
   113
 73
   -29
 74
   -51
  0
VERTEX
  5
2FA
  8
0
 62
   206
 10
0.0
 20
0.0
 30
0.0
 70
   128
 71
    34
 72
   103
 73
   -51
 74
   -34
  0
VERTEX
  5
2FB
  8
0
 62
   206
 10
0.0
 20
0.0
 30
0.0
 70
   128
 71
    51
 72
   124
 73
   -34
 74
   -51
  0
VERTEX
  5
2FC
  8
0
 62
   206
 10
0.0
 20
0.0
 30
0.0
 70
   128
 71
    91
 72
   176
 73
  -169
 74
   -91
  0
VERTEX
  5
2FD
  8
0
 62
   206
 10
0.0
 20
0.0
 30
0.0
 70
   128
 71
   169
 72
    16
 73
   -91
 74
  -169
  0
VERTEX
  5
2FE
  8
0
 62
   206
 10
0.0
 20
0.0
 30
0.0
 70
   128
 71
   171
 72
   176
 73
   -91
 74
  -171
  0
VERTEX
  5
2FF
  8
0
 62
   206
 10
0.0
 20
0.0
 30
0.0
 70
   128
 71
    91
 72
    22
 73
  -171
 74
   -91
  0
VERTEX
  5
300
  8
0
 62
   206
 10
0.0
 20
0.0
 30
0.0
 70
   128
 71
    99
 72
   177
 73
  -172
 74
   -99
  0
VERTEX
  5
301
  8
0
 62
   206
 10
0.0
 20
0.0
 30
0.0
 70
   128
 71
   172
 72
    23
 73
   -99
 74
  -172
  0
VERTEX
  5
302
  8
0
 62
   206
 10
0.0
 20
0.0
 30
0.0
 70
   128
 71
   189
 72
   177
 73
   -99
 74
  -189
  0
VERTEX
  5
303
  8
0
 62
   206
 10
0.0
 20
0.0
 30
0.0
 70
   128
 71
    99
 72
    14
 73
  -189
 74
   -99
  0
VERTEX
  5
304
  8
0
 62
   206
 10
0.0
 20
0.0
 30
0.0
 70
   128
 71
    92
 72
   178
 73
  -298
 74
   -92
  0
VERTEX
  5
305
  8
0
 62
   206
 10
0.0
 20
0.0
 30
0.0
 70
   128
 71
   298
 72
    11
 73
   -92
 74
  -298
  0
VERTEX
  5
306
  8
0
 62
   206
 10
0.0
 20
0.0
 30
0.0
 70
   128
 71
    24
 72
   173
 73
  -178
 74
   -24
  0
VERTEX
  5
307
  8
0
 62
   206
 10
0.0
 20
0.0
 30
0.0
 70
   128
 71
   178
 72
    92
 73
   -24
 74
  -178
  0
VERTEX
  5
308
  8
0
 62
   206
 10
0.0
 20
0.0
 30
0.0
 70
   128
 71
    25
 72
   101
 73
  -300
 74
   -25
  0
VERTEX
  5
309
  8
0
 62
   206
 10
0.0
 20
0.0
 30
0.0
 70
   128
 71
   300
 72
   242
 73
   -25
 74
  -300
  0
VERTEX
  5
30A
  8
0
 62
   206
 10
0.0
 20
0.0
 30
0.0
 70
   128
 71
   301
 72
   300
 73
  -101
 74
  -301
  0
VERTEX
  5
30B
  8
0
 62
   206
 10
0.0
 20
0.0
 30
0.0
 70
   128
 71
   101
 72
    12
 73
  -301
 74
  -101
  0
VERTEX
  5
30C
  8
0
 62
   206
 10
0.0
 20
0.0
 30
0.0
 70
   128
 71
    20
 72
    78
 73
   -52
 74
   -20
  0
VERTEX
  5
30D
  8
0
 62
   206
 10
0.0
 20
0.0
 30
0.0
 70
   128
 71
    52
 72
   104
 73
   -20
 74
   -52
  0
VERTEX
  5
30E
  8
0
 62
   206
 10
0.0
 20
0.0
 30
0.0
 70
   128
 71
     6
 72
    85
 73
   -52
 74
    -6
  0
VERTEX
  5
30F
  8
0
 62
   206
 10
0.0
 20
0.0
 30
0.0
 70
   128
 71
    52
 72
    78
 73
    -6
 74
   -52
  0
VERTEX
  5
310
  8
0
 62
   206
 10
0.0
 20
0.0
 30
0.0
 70
   128
 71
    14
 72
    99
 73
   -52
 74
   -14
  0
VERTEX
  5
311
  8
0
 62
   206
 10
0.0
 20
0.0
 30
0.0
 70
   128
 71
    52
 72
    85
 73
   -14
 74
   -52
  0
VERTEX
  5
312
  8
0
 62
   206
 10
0.0
 20
0.0
 30
0.0
 70
   128
 71
    23
 72
   104
 73
   -52
 74
   -23
  0
VERTEX
  5
313
  8
0
 62
   206
 10
0.0
 20
0.0
 30
0.0
 70
   128
 71
    52
 72
    99
 73
   -23
 74
   -52
  0
VERTEX
  5
314
  8
0
 62
   206
 10
0.0
 20
0.0
 30
0.0
 70
   128
 71
    22
 72
    91
 73
   -53
 74
   -22
  0
VERTEX
  5
315
  8
0
 62
   206
 10
0.0
 20
0.0
 30
0.0
 70
   128
 71
    53
 72
   105
 73
   -22
 74
   -53
  0
VERTEX
  5
316
  8
0
 62
   206
 10
0.0
 20
0.0
 30
0.0
 70
   128
 71
    16
 72
    80
 73
   -53
 74
   -16
  0
VERTEX
  5
317
  8
0
 62
   206
 10
0.0
 20
0.0
 30
0.0
 70
   128
 71
    53
 72
    91
 73
   -16
 74
   -53
  0
VERTEX
  5
318
  8
0
 62
   206
 10
0.0
 20
0.0
 30
0.0
 70
   128
 71
     8
 72
    97
 73
   -53
 74
    -8
  0
VERTEX
  5
319
  8
0
 62
   206
 10
0.0
 20
0.0
 30
0.0
 70
   128
 71
    53
 72
    80
 73
    -8
 74
   -53
  0
VERTEX
  5
31A
  8
0
 62
   206
 10
0.0
 20
0.0
 30
0.0
 70
   128
 71
    21
 72
   105
 73
   -53
 74
   -21
  0
VERTEX
  5
31B
  8
0
 62
   206
 10
0.0
 20
0.0
 30
0.0
 70
   128
 71
    53
 72
    97
 73
   -21
 74
   -53
  0
VERTEX
  5
31C
  8
0
 62
   206
 10
0.0
 20
0.0
 30
0.0
 70
   128
 71
    18
 72
    70
 73
   -54
 74
   -18
  0
VERTEX
  5
31D
  8
0
 62
   206
 10
0.0
 20
0.0
 30
0.0
 70
   128
 71
    54
 72
   106
 73
   -18
 74
   -54
  0
VERTEX
  5
31E
  8
0
 62
   206
 10
0.0
 20
0.0
 30
0.0
 70
   128
 71
     5
 72
    71
 73
   -54
 74
    -5
  0
VERTEX
  5
31F
  8
0
 62
   206
 10
0.0
 20
0.0
 30
0.0
 70
   128
 71
    54
 72
    70
 73
    -5
 74
   -54
  0
VERTEX
  5
320
  8
0
 62
   206
 10
0.0
 20
0.0
 30
0.0
 70
   128
 71
     3
 72
    84
 73
   -54
 74
    -3
  0
VERTEX
  5
321
  8
0
 62
   206
 10
0.0
 20
0.0
 30
0.0
 70
   128
 71
    54
 72
    71
 73
    -3
 74
   -54
  0
VERTEX
  5
322
  8
0
 62
   206
 10
0.0
 20
0.0
 30
0.0
 70
   128
 71
    12
 72
   101
 73
   -54
 74
   -12
  0
VERTEX
  5
323
  8
0
 62
   206
 10
0.0
 20
0.0
 30
0.0
 70
   128
 71
    54
 72
    84
 73
   -12
 74
   -54
  0
VERTEX
  5
324
  8
0
 62
   206
 10
0.0
 20
0.0
 30
0.0
 70
   128
 71
    25
 72
   106
 73
   -54
 74
   -25
  0
VERTEX
  5
325
  8
0
 62
   206
 10
0.0
 20
0.0
 30
0.0
 70
   128
 71
    54
 72
   101
 73
   -25
 74
   -54
  0
VERTEX
  5
326
  8
0
 62
   206
 10
0.0
 20
0.0
 30
0.0
 70
   128
 71
    24
 72
    92
 73
   -55
 74
   -24
  0
VERTEX
  5
327
  8
0
 62
   206
 10
0.0
 20
0.0
 30
0.0
 70
   128
 71
    55
 72
   107
 73
   -24
 74
   -55
  0
VERTEX
  5
328
  8
0
 62
   206
 10
0.0
 20
0.0
 30
0.0
 70
   128
 71
    11
 72
    69
 73
   -55
 74
   -11
  0
VERTEX
  5
329
  8
0
 62
   206
 10
0.0
 20
0.0
 30
0.0
 70
   128
 71
    55
 72
    92
 73
   -11
 74
   -55
  0
VERTEX
  5
32A
  8
0
 62
   206
 10
0.0
 20
0.0
 30
0.0
 70
   128
 71
     2
 72
    95
 73
   -55
 74
    -2
  0
VERTEX
  5
32B
  8
0
 62
   206
 10
0.0
 20
0.0
 30
0.0
 70
   128
 71
    55
 72
    69
 73
    -2
 74
   -55
  0
VERTEX
  5
32C
  8
0
 62
   206
 10
0.0
 20
0.0
 30
0.0
 70
   128
 71
    19
 72
   107
 73
   -55
 74
   -19
  0
VERTEX
  5
32D
  8
0
 62
   206
 10
0.0
 20
0.0
 30
0.0
 70
   128
 71
    55
 72
    95
 73
   -19
 74
   -55
  0
VERTEX
  5
32E
  8
0
 62
   206
 10
0.0
 20
0.0
 30
0.0
 70
   128
 71
   127
 72
   179
 73
  -180
 74
  -127
  0
VERTEX
  5
32F
  8
0
 62
   206
 10
0.0
 20
0.0
 30
0.0
 70
   128
 71
   180
 72
    37
 73
  -127
 74
  -180
  0
VERTEX
  5
330
  8
0
 62
   206
 10
0.0
 20
0.0
 30
0.0
 70
   128
 71
   220
 72
   179
 73
  -127
 74
  -220
  0
VERTEX
  5
331
  8
0
 62
   206
 10
0.0
 20
0.0
 30
0.0
 70
   128
 71
   127
 72
    27
 73
  -220
 74
  -127
  0
VERTEX
  5
332
  8
0
 62
   206
 10
0.0
 20
0.0
 30
0.0
 70
   128
 71
    26
 72
   108
 73
   -56
 74
   -26
  0
VERTEX
  5
333
  8
0
 62
   206
 10
0.0
 20
0.0
 30
0.0
 70
   128
 71
    56
 72
   110
 73
   -26
 74
   -56
  0
VERTEX
  5
334
  8
0
 62
   206
 10
0.0
 20
0.0
 30
0.0
 70
   128
 71
     1
 72
    83
 73
   -56
 74
    -1
  0
VERTEX
  5
335
  8
0
 62
   206
 10
0.0
 20
0.0
 30
0.0
 70
   128
 71
    56
 72
   108
 73
    -1
 74
   -56
  0
VERTEX
  5
336
  8
0
 62
   206
 10
0.0
 20
0.0
 30
0.0
 70
   128
 71
    10
 72
   109
 73
   -56
 74
   -10
  0
VERTEX
  5
337
  8
0
 62
   206
 10
0.0
 20
0.0
 30
0.0
 70
   128
 71
    56
 72
    83
 73
   -10
 74
   -56
  0
VERTEX
  5
338
  8
0
 62
   206
 10
0.0
 20
0.0
 30
0.0
 70
   128
 71
    27
 72
   110
 73
   -56
 74
   -27
  0
VERTEX
  5
339
  8
0
 62
   206
 10
0.0
 20
0.0
 30
0.0
 70
   128
 71
    56
 72
   109
 73
   -27
 74
   -56
  0
VERTEX
  5
33A
  8
0
 62
   206
 10
0.0
 20
0.0
 30
0.0
 70
   128
 71
     9
 72
    81
 73
   -57
 74
    -9
  0
VERTEX
  5
33B
  8
0
 62
   206
 10
0.0
 20
0.0
 30
0.0
 70
   128
 71
    57
 72
   111
 73
    -9
 74
   -57
  0
VERTEX
  5
33C
  8
0
 62
   206
 10
0.0
 20
0.0
 30
0.0
 70
   128
 71
     4
 72
    67
 73
   -57
 74
    -4
  0
VERTEX
  5
33D
  8
0
 62
   206
 10
0.0
 20
0.0
 30
0.0
 70
   128
 71
    57
 72
    81
 73
    -4
 74
   -57
  0
VERTEX
  5
33E
  8
0
 62
   206
 10
0.0
 20
0.0
 30
0.0
 70
   128
 71
     1
 72
   108
 73
   -57
 74
    -1
  0
VERTEX
  5
33F
  8
0
 62
   206
 10
0.0
 20
0.0
 30
0.0
 70
   128
 71
    57
 72
    67
 73
    -1
 74
   -57
  0
VERTEX
  5
340
  8
0
 62
   206
 10
0.0
 20
0.0
 30
0.0
 70
   128
 71
    26
 72
   111
 73
   -57
 74
   -26
  0
VERTEX
  5
341
  8
0
 62
   206
 10
0.0
 20
0.0
 30
0.0
 70
   128
 71
    57
 72
   108
 73
   -26
 74
   -57
  0
VERTEX
  5
342
  8
0
 62
   206
 10
0.0
 20
0.0
 30
0.0
 70
   128
 71
   115
 72
   318
 73
  -164
 74
  -115
  0
VERTEX
  5
343
  8
0
 62
   206
 10
0.0
 20
0.0
 30
0.0
 70
   128
 71
   164
 72
    31
 73
  -115
 74
  -164
  0
VERTEX
  5
344
  8
0
 62
   206
 10
0.0
 20
0.0
 30
0.0
 70
   128
 71
   298
 72
   318
 73
  -115
 74
  -298
  0
VERTEX
  5
345
  8
0
 62
   206
 10
0.0
 20
0.0
 30
0.0
 70
   128
 71
   115
 72
    11
 73
  -298
 74
  -115
  0
VERTEX
  5
346
  8
0
 62
   206
 10
0.0
 20
0.0
 30
0.0
 70
   128
 71
    87
 72
   181
 73
  -301
 74
   -87
  0
VERTEX
  5
347
  8
0
 62
   206
 10
0.0
 20
0.0
 30
0.0
 70
   128
 71
   301
 72
    12
 73
   -87
 74
  -301
  0
VERTEX
  5
348
  8
0
 62
   206
 10
0.0
 20
0.0
 30
0.0
 70
   128
 71
   166
 72
   181
 73
   -87
 74
  -166
  0
VERTEX
  5
349
  8
0
 62
   206
 10
0.0
 20
0.0
 30
0.0
 70
   128
 71
    87
 72
    32
 73
  -166
 74
   -87
  0
VERTEX
  5
34A
  8
0
 62
   206
 10
0.0
 20
0.0
 30
0.0
 70
   128
 71
    33
 72
   117
 73
   -58
 74
   -33
  0
VERTEX
  5
34B
  8
0
 62
   206
 10
0.0
 20
0.0
 30
0.0
 70
   128
 71
    58
 72
   119
 73
   -33
 74
   -58
  0
VERTEX
  5
34C
  8
0
 62
   206
 10
0.0
 20
0.0
 30
0.0
 70
   128
 71
    18
 72
    94
 73
   -58
 74
   -18
  0
VERTEX
  5
34D
  8
0
 62
   206
 10
0.0
 20
0.0
 30
0.0
 70
   128
 71
    58
 72
   117
 73
   -18
 74
   -58
  0
VERTEX
  5
34E
  8
0
 62
   206
 10
0.0
 20
0.0
 30
0.0
 70
   128
 71
    19
 72
   103
 73
   -58
 74
   -19
  0
VERTEX
  5
34F
  8
0
 62
   206
 10
0.0
 20
0.0
 30
0.0
 70
   128
 71
    58
 72
    94
 73
   -19
 74
   -58
  0
VERTEX
  5
350
  8
0
 62
   206
 10
0.0
 20
0.0
 30
0.0
 70
   128
 71
    34
 72
   119
 73
   -58
 74
   -34
  0
VERTEX
  5
351
  8
0
 62
   206
 10
0.0
 20
0.0
 30
0.0
 70
   128
 71
    58
 72
   103
 73
   -34
 74
   -58
  0
VERTEX
  5
352
  8
0
 62
   206
 10
0.0
 20
0.0
 30
0.0
 70
   128
 71
    28
 72
    68
 73
   -59
 74
   -28
  0
VERTEX
  5
353
  8
0
 62
   206
 10
0.0
 20
0.0
 30
0.0
 70
   128
 71
    59
 72
   120
 73
   -28
 74
   -59
  0
VERTEX
  5
354
  8
0
 62
   206
 10
0.0
 20
0.0
 30
0.0
 70
   128
 71
     3
 72
    71
 73
   -59
 74
    -3
  0
VERTEX
  5
355
  8
0
 62
   206
 10
0.0
 20
0.0
 30
0.0
 70
   128
 71
    59
 72
    68
 73
    -3
 74
   -59
  0
VERTEX
  5
356
  8
0
 62
   206
 10
0.0
 20
0.0
 30
0.0
 70
   128
 71
     5
 72
   114
 73
   -59
 74
    -5
  0
VERTEX
  5
357
  8
0
 62
   206
 10
0.0
 20
0.0
 30
0.0
 70
   128
 71
    59
 72
    71
 73
    -5
 74
   -59
  0
VERTEX
  5
358
  8
0
 62
   206
 10
0.0
 20
0.0
 30
0.0
 70
   128
 71
    30
 72
   120
 73
   -59
 74
   -30
  0
VERTEX
  5
359
  8
0
 62
   206
 10
0.0
 20
0.0
 30
0.0
 70
   128
 71
    59
 72
   114
 73
   -30
 74
   -59
  0
VERTEX
  5
35A
  8
0
 62
   206
 10
0.0
 20
0.0
 30
0.0
 70
   128
 71
    29
 72
   113
 73
   -60
 74
   -29
  0
VERTEX
  5
35B
  8
0
 62
   206
 10
0.0
 20
0.0
 30
0.0
 70
   128
 71
    60
 72
   121
 73
   -29
 74
   -60
  0
VERTEX
  5
35C
  8
0
 62
   206
 10
0.0
 20
0.0
 30
0.0
 70
   128
 71
     2
 72
    69
 73
   -60
 74
    -2
  0
VERTEX
  5
35D
  8
0
 62
   206
 10
0.0
 20
0.0
 30
0.0
 70
   128
 71
    60
 72
   113
 73
    -2
 74
   -60
  0
VERTEX
  5
35E
  8
0
 62
   206
 10
0.0
 20
0.0
 30
0.0
 70
   128
 71
    11
 72
   115
 73
   -60
 74
   -11
  0
VERTEX
  5
35F
  8
0
 62
   206
 10
0.0
 20
0.0
 30
0.0
 70
   128
 71
    60
 72
    69
 73
   -11
 74
   -60
  0
VERTEX
  5
360
  8
0
 62
   206
 10
0.0
 20
0.0
 30
0.0
 70
   128
 71
    31
 72
   121
 73
   -60
 74
   -31
  0
VERTEX
  5
361
  8
0
 62
   206
 10
0.0
 20
0.0
 30
0.0
 70
   128
 71
    60
 72
   115
 73
   -31
 74
   -60
  0
VERTEX
  5
362
  8
0
 62
   206
 10
0.0
 20
0.0
 30
0.0
 70
   128
 71
    28
 72
   112
 73
   -61
 74
   -28
  0
VERTEX
  5
363
  8
0
 62
   206
 10
0.0
 20
0.0
 30
0.0
 70
   128
 71
    61
 72
   122
 73
   -28
 74
   -61
  0
VERTEX
  5
364
  8
0
 62
   206
 10
0.0
 20
0.0
 30
0.0
 70
   128
 71
     7
 72
    77
 73
   -61
 74
    -7
  0
VERTEX
  5
365
  8
0
 62
   206
 10
0.0
 20
0.0
 30
0.0
 70
   128
 71
    61
 72
   112
 73
    -7
 74
   -61
  0
VERTEX
  5
366
  8
0
 62
   206
 10
0.0
 20
0.0
 30
0.0
 70
   128
 71
    15
 72
   116
 73
   -61
 74
   -15
  0
VERTEX
  5
367
  8
0
 62
   206
 10
0.0
 20
0.0
 30
0.0
 70
   128
 71
    61
 72
    77
 73
   -15
 74
   -61
  0
VERTEX
  5
368
  8
0
 62
   206
 10
0.0
 20
0.0
 30
0.0
 70
   128
 71
    32
 72
   122
 73
   -61
 74
   -32
  0
VERTEX
  5
369
  8
0
 62
   206
 10
0.0
 20
0.0
 30
0.0
 70
   128
 71
    61
 72
   116
 73
   -32
 74
   -61
  0
VERTEX
  5
36A
  8
0
 62
   206
 10
0.0
 20
0.0
 30
0.0
 70
   128
 71
    30
 72
   114
 73
   -62
 74
   -30
  0
VERTEX
  5
36B
  8
0
 62
   206
 10
0.0
 20
0.0
 30
0.0
 70
   128
 71
    62
 72
   123
 73
   -30
 74
   -62
  0
VERTEX
  5
36C
  8
0
 62
   206
 10
0.0
 20
0.0
 30
0.0
 70
   128
 71
     5
 72
    70
 73
   -62
 74
    -5
  0
VERTEX
  5
36D
  8
0
 62
   206
 10
0.0
 20
0.0
 30
0.0
 70
   128
 71
    62
 72
   114
 73
    -5
 74
   -62
  0
VERTEX
  5
36E
  8
0
 62
   206
 10
0.0
 20
0.0
 30
0.0
 70
   128
 71
    18
 72
   117
 73
   -62
 74
   -18
  0
VERTEX
  5
36F
  8
0
 62
   206
 10
0.0
 20
0.0
 30
0.0
 70
   128
 71
    62
 72
    70
 73
   -18
 74
   -62
  0
VERTEX
  5
370
  8
0
 62
   206
 10
0.0
 20
0.0
 30
0.0
 70
   128
 71
    33
 72
   123
 73
   -62
 74
   -33
  0
VERTEX
  5
371
  8
0
 62
   206
 10
0.0
 20
0.0
 30
0.0
 70
   128
 71
    62
 72
   117
 73
   -33
 74
   -62
  0
VERTEX
  5
372
  8
0
 62
   206
 10
0.0
 20
0.0
 30
0.0
 70
   128
 71
    29
 72
    74
 73
   -63
 74
   -29
  0
VERTEX
  5
373
  8
0
 62
   206
 10
0.0
 20
0.0
 30
0.0
 70
   128
 71
    63
 72
   124
 73
   -29
 74
   -63
  0
VERTEX
  5
374
  8
0
 62
   206
 10
0.0
 20
0.0
 30
0.0
 70
   128
 71
     6
 72
    78
 73
   -63
 74
    -6
  0
VERTEX
  5
375
  8
0
 62
   206
 10
0.0
 20
0.0
 30
0.0
 70
   128
 71
    63
 72
    74
 73
    -6
 74
   -63
  0
VERTEX
  5
376
  8
0
 62
   206
 10
0.0
 20
0.0
 30
0.0
 70
   128
 71
    20
 72
   118
 73
   -63
 74
   -20
  0
VERTEX
  5
377
  8
0
 62
   206
 10
0.0
 20
0.0
 30
0.0
 70
   128
 71
    63
 72
    78
 73
   -20
 74
   -63
  0
VERTEX
  5
378
  8
0
 62
   206
 10
0.0
 20
0.0
 30
0.0
 70
   128
 71
    34
 72
   124
 73
   -63
 74
   -34
  0
VERTEX
  5
379
  8
0
 62
   206
 10
0.0
 20
0.0
 30
0.0
 70
   128
 71
    63
 72
   118
 73
   -34
 74
   -63
  0
VERTEX
  5
37A
  8
0
 62
   206
 10
0.0
 20
0.0
 30
0.0
 70
   128
 71
    36
 72
    75
 73
   -64
 74
   -36
  0
VERTEX
  5
37B
  8
0
 62
   206
 10
0.0
 20
0.0
 30
0.0
 70
   128
 71
    64
 72
   129
 73
   -36
 74
   -64
  0
VERTEX
  5
37C
  8
0
 62
   206
 10
0.0
 20
0.0
 30
0.0
 70
   128
 71
     7
 72
    79
 73
   -64
 74
    -7
  0
VERTEX
  5
37D
  8
0
 62
   206
 10
0.0
 20
0.0
 30
0.0
 70
   128
 71
    64
 72
    75
 73
    -7
 74
   -64
  0
VERTEX
  5
37E
  8
0
 62
   206
 10
0.0
 20
0.0
 30
0.0
 70
   128
 71
     8
 72
    73
 73
   -64
 74
    -8
  0
VERTEX
  5
37F
  8
0
 62
   206
 10
0.0
 20
0.0
 30
0.0
 70
   128
 71
    64
 72
    79
 73
    -8
 74
   -64
  0
VERTEX
  5
380
  8
0
 62
   206
 10
0.0
 20
0.0
 30
0.0
 70
   128
 71
    35
 72
   129
 73
   -64
 74
   -35
  0
VERTEX
  5
381
  8
0
 62
   206
 10
0.0
 20
0.0
 30
0.0
 70
   128
 71
    64
 72
    73
 73
   -35
 74
   -64
  0
VERTEX
  5
382
  8
0
 62
   206
 10
0.0
 20
0.0
 30
0.0
 70
   128
 71
    90
 72
   329
 73
  -174
 74
   -90
  0
VERTEX
  5
383
  8
0
 62
   206
 10
0.0
 20
0.0
 30
0.0
 70
   128
 71
   174
 72
    17
 73
   -90
 74
  -174
  0
VERTEX
  5
384
  8
0
 62
   206
 10
0.0
 20
0.0
 30
0.0
 70
   128
 71
   233
 72
   329
 73
   -90
 74
  -233
  0
VERTEX
  5
385
  8
0
 62
   206
 10
0.0
 20
0.0
 30
0.0
 70
   128
 71
    90
 72
    38
 73
  -233
 74
   -90
  0
VERTEX
  5
386
  8
0
 62
   206
 10
0.0
 20
0.0
 30
0.0
 70
   128
 71
    36
 72
   126
 73
   -65
 74
   -36
  0
VERTEX
  5
387
  8
0
 62
   206
 10
0.0
 20
0.0
 30
0.0
 70
   128
 71
    65
 72
   130
 73
   -36
 74
   -65
  0
VERTEX
  5
388
  8
0
 62
   206
 10
0.0
 20
0.0
 30
0.0
 70
   128
 71
    26
 72
   110
 73
   -65
 74
   -26
  0
VERTEX
  5
389
  8
0
 62
   206
 10
0.0
 20
0.0
 30
0.0
 70
   128
 71
    65
 72
   126
 73
   -26
 74
   -65
  0
VERTEX
  5
38A
  8
0
 62
   206
 10
0.0
 20
0.0
 30
0.0
 70
   128
 71
    27
 72
   127
 73
   -65
 74
   -27
  0
VERTEX
  5
38B
  8
0
 62
   206
 10
0.0
 20
0.0
 30
0.0
 70
   128
 71
    65
 72
   110
 73
   -27
 74
   -65
  0
VERTEX
  5
38C
  8
0
 62
   206
 10
0.0
 20
0.0
 30
0.0
 70
   128
 71
    37
 72
   130
 73
   -65
 74
   -37
  0
VERTEX
  5
38D
  8
0
 62
   206
 10
0.0
 20
0.0
 30
0.0
 70
   128
 71
    65
 72
   127
 73
   -37
 74
   -65
  0
VERTEX
  5
38E
  8
0
 62
   206
 10
0.0
 20
0.0
 30
0.0
 70
   128
 71
    35
 72
    73
 73
   -66
 74
   -35
  0
VERTEX
  5
38F
  8
0
 62
   206
 10
0.0
 20
0.0
 30
0.0
 70
   128
 71
    66
 72
   131
 73
   -35
 74
   -66
  0
VERTEX
  5
390
  8
0
 62
   206
 10
0.0
 20
0.0
 30
0.0
 70
   128
 71
     8
 72
    80
 73
   -66
 74
    -8
  0
VERTEX
  5
391
  8
0
 62
   206
 10
0.0
 20
0.0
 30
0.0
 70
   128
 71
    66
 72
    73
 73
    -8
 74
   -66
  0
VERTEX
  5
392
  8
0
 62
   206
 10
0.0
 20
0.0
 30
0.0
 70
   128
 71
    16
 72
   128
 73
   -66
 74
   -16
  0
VERTEX
  5
393
  8
0
 62
   206
 10
0.0
 20
0.0
 30
0.0
 70
   128
 71
    66
 72
    80
 73
   -16
 74
   -66
  0
VERTEX
  5
394
  8
0
 62
   206
 10
0.0
 20
0.0
 30
0.0
 70
   128
 71
    38
 72
   131
 73
   -66
 74
   -38
  0
VERTEX
  5
395
  8
0
 62
   206
 10
0.0
 20
0.0
 30
0.0
 70
   128
 71
    66
 72
   128
 73
   -38
 74
   -66
  0
VERTEX
  5
396
  8
0
 62
   206
 10
0.0
 20
0.0
 30
0.0
 70
   128
 71
    89
 72
   332
 73
  -165
 74
   -89
  0
VERTEX
  5
397
  8
0
 62
   206
 10
0.0
 20
0.0
 30
0.0
 70
   128
 71
   165
 72
    15
 73
   -89
 74
  -165
  0
VERTEX
  5
398
  8
0
 62
   206
 10
0.0
 20
0.0
 30
0.0
 70
   128
 71
   180
 72
   332
 73
   -89
 74
  -180
  0
VERTEX
  5
399
  8
0
 62
   206
 10
0.0
 20
0.0
 30
0.0
 70
   128
 71
    89
 72
    37
 73
  -180
 74
   -89
  0
VERTEX
  5
39A
  8
0
 62
   206
 10
0.0
 20
0.0
 30
0.0
 70
   128
 71
   133
 72
   132
 73
  -149
 74
  -133
  0
VERTEX
  5
39B
  8
0
 62
   206
 10
0.0
 20
0.0
 30
0.0
 70
   128
 71
   149
 72
   148
 73
  -133
 74
  -149
  0
VERTEX
  5
39C
  8
0
 62
   206
 10
0.0
 20
0.0
 30
0.0
 70
   128
 71
   133
 72
   148
 73
  -150
 74
  -133
  0
VERTEX
  5
39D
  8
0
 62
   206
 10
0.0
 20
0.0
 30
0.0
 70
   128
 71
   150
 72
   134
 73
  -133
 74
  -150
  0
VERTEX
  5
39E
  8
0
 62
   206
 10
0.0
 20
0.0
 30
0.0
 70
   128
 71
   134
 72
   150
 73
  -151
 74
  -134
  0
VERTEX
  5
39F
  8
0
 62
   206
 10
0.0
 20
0.0
 30
0.0
 70
   128
 71
   151
 72
   135
 73
  -134
 74
  -151
  0
VERTEX
  5
3A0
  8
0
 62
   206
 10
0.0
 20
0.0
 30
0.0
 70
   128
 71
   132
 72
   135
 73
  -151
 74
  -132
  0
VERTEX
  5
3A1
  8
0
 62
   206
 10
0.0
 20
0.0
 30
0.0
 70
   128
 71
   151
 72
   149
 73
  -132
 74
  -151
  0
VERTEX
  5
3A2
  8
0
 62
   206
 10
0.0
 20
0.0
 30
0.0
 70
   128
 71
   134
 72
   135
 73
  -132
 74
  -134
  0
VERTEX
  5
3A3
  8
0
 62
   206
 10
0.0
 20
0.0
 30
0.0
 70
   128
 71
   132
 72
   133
 73
  -134
 74
  -132
  0
VERTEX
  5
3A4
  8
0
 62
   206
 10
0.0
 20
0.0
 30
0.0
 70
   128
 71
   136
 72
   139
 73
  -138
 74
  -136
  0
VERTEX
  5
3A5
  8
0
 62
   206
 10
0.0
 20
0.0
 30
0.0
 70
   128
 71
   138
 72
   137
 73
  -136
 74
  -138
  0
VERTEX
  5
3A6
  8
0
 62
   206
 10
0.0
 20
0.0
 30
0.0
 70
   128
 71
   153
 72
   140
 73
  -141
 74
  -153
  0
VERTEX
  5
3A7
  8
0
 62
   206
 10
0.0
 20
0.0
 30
0.0
 70
   128
 71
   141
 72
   152
 73
  -153
 74
  -141
  0
VERTEX
  5
3A8
  8
0
 62
   206
 10
0.0
 20
0.0
 30
0.0
 70
   128
 71
   141
 72
   142
 73
  -154
 74
  -141
  0
VERTEX
  5
3A9
  8
0
 62
   206
 10
0.0
 20
0.0
 30
0.0
 70
   128
 71
   154
 72
   152
 73
  -141
 74
  -154
  0
VERTEX
  5
3AA
  8
0
 62
   206
 10
0.0
 20
0.0
 30
0.0
 70
   128
 71
   142
 72
   143
 73
  -155
 74
  -142
  0
VERTEX
  5
3AB
  8
0
 62
   206
 10
0.0
 20
0.0
 30
0.0
 70
   128
 71
   155
 72
   154
 73
  -142
 74
  -155
  0
VERTEX
  5
3AC
  8
0
 62
   206
 10
0.0
 20
0.0
 30
0.0
 70
   128
 71
   155
 72
   143
 73
  -140
 74
  -155
  0
VERTEX
  5
3AD
  8
0
 62
   206
 10
0.0
 20
0.0
 30
0.0
 70
   128
 71
   140
 72
   153
 73
  -155
 74
  -140
  0
VERTEX
  5
3AE
  8
0
 62
   206
 10
0.0
 20
0.0
 30
0.0
 70
   128
 71
   142
 72
   141
 73
  -140
 74
  -142
  0
VERTEX
  5
3AF
  8
0
 62
   206
 10
0.0
 20
0.0
 30
0.0
 70
   128
 71
   140
 72
   143
 73
  -142
 74
  -140
  0
VERTEX
  5
3B0
  8
0
 62
   206
 10
0.0
 20
0.0
 30
0.0
 70
   128
 71
   144
 72
   145
 73
  -146
 74
  -144
  0
VERTEX
  5
3B1
  8
0
 62
   206
 10
0.0
 20
0.0
 30
0.0
 70
   128
 71
   146
 72
   147
 73
  -144
 74
  -146
  0
VERTEX
  5
3B2
  8
0
 62
   206
 10
0.0
 20
0.0
 30
0.0
 70
   128
 71
   156
 72
   157
 73
  -136
 74
  -156
  0
VERTEX
  5
3B3
  8
0
 62
   206
 10
0.0
 20
0.0
 30
0.0
 70
   128
 71
   136
 72
   137
 73
  -156
 74
  -136
  0
VERTEX
  5
3B4
  8
0
 62
   206
 10
0.0
 20
0.0
 30
0.0
 70
   128
 71
   138
 72
   158
 73
  -156
 74
  -138
  0
VERTEX
  5
3B5
  8
0
 62
   206
 10
0.0
 20
0.0
 30
0.0
 70
   128
 71
   156
 72
   137
 73
  -138
 74
  -156
  0
VERTEX
  5
3B6
  8
0
 62
   206
 10
0.0
 20
0.0
 30
0.0
 70
   128
 71
   139
 72
   159
 73
  -158
 74
  -139
  0
VERTEX
  5
3B7
  8
0
 62
   206
 10
0.0
 20
0.0
 30
0.0
 70
   128
 71
   158
 72
   138
 73
  -139
 74
  -158
  0
VERTEX
  5
3B8
  8
0
 62
   206
 10
0.0
 20
0.0
 30
0.0
 70
   128
 71
   157
 72
   159
 73
  -139
 74
  -157
  0
VERTEX
  5
3B9
  8
0
 62
   206
 10
0.0
 20
0.0
 30
0.0
 70
   128
 71
   139
 72
   136
 73
  -157
 74
  -139
  0
VERTEX
  5
3BA
  8
0
 62
   206
 10
0.0
 20
0.0
 30
0.0
 70
   128
 71
   144
 72
   161
 73
  -160
 74
  -144
  0
VERTEX
  5
3BB
  8
0
 62
   206
 10
0.0
 20
0.0
 30
0.0
 70
   128
 71
   160
 72
   145
 73
  -144
 74
  -160
  0
VERTEX
  5
3BC
  8
0
 62
   206
 10
0.0
 20
0.0
 30
0.0
 70
   128
 71
   160
 72
   162
 73
  -146
 74
  -160
  0
VERTEX
  5
3BD
  8
0
 62
   206
 10
0.0
 20
0.0
 30
0.0
 70
   128
 71
   146
 72
   145
 73
  -160
 74
  -146
  0
VERTEX
  5
3BE
  8
0
 62
   206
 10
0.0
 20
0.0
 30
0.0
 70
   128
 71
   162
 72
   163
 73
  -147
 74
  -162
  0
VERTEX
  5
3BF
  8
0
 62
   206
 10
0.0
 20
0.0
 30
0.0
 70
   128
 71
   147
 72
   146
 73
  -162
 74
  -147
  0
VERTEX
  5
3C0
  8
0
 62
   206
 10
0.0
 20
0.0
 30
0.0
 70
   128
 71
   147
 72
   163
 73
  -161
 74
  -147
  0
VERTEX
  5
3C1
  8
0
 62
   206
 10
0.0
 20
0.0
 30
0.0
 70
   128
 71
   161
 72
   144
 73
  -147
 74
  -161
  0
VERTEX
  5
3C2
  8
0
 62
   206
 10
0.0
 20
0.0
 30
0.0
 70
   128
 71
   148
 72
   149
 73
  -157
 74
  -148
  0
VERTEX
  5
3C3
  8
0
 62
   206
 10
0.0
 20
0.0
 30
0.0
 70
   128
 71
   157
 72
   156
 73
  -148
 74
  -157
  0
VERTEX
  5
3C4
  8
0
 62
   206
 10
0.0
 20
0.0
 30
0.0
 70
   128
 71
   150
 72
   148
 73
  -156
 74
  -150
  0
VERTEX
  5
3C5
  8
0
 62
   206
 10
0.0
 20
0.0
 30
0.0
 70
   128
 71
   156
 72
   158
 73
  -150
 74
  -156
  0
VERTEX
  5
3C6
  8
0
 62
   206
 10
0.0
 20
0.0
 30
0.0
 70
   128
 71
   149
 72
   151
 73
  -159
 74
  -149
  0
VERTEX
  5
3C7
  8
0
 62
   206
 10
0.0
 20
0.0
 30
0.0
 70
   128
 71
   159
 72
   157
 73
  -149
 74
  -159
  0
VERTEX
  5
3C8
  8
0
 62
   206
 10
0.0
 20
0.0
 30
0.0
 70
   128
 71
   153
 72
   152
 73
  -160
 74
  -153
  0
VERTEX
  5
3C9
  8
0
 62
   206
 10
0.0
 20
0.0
 30
0.0
 70
   128
 71
   160
 72
   161
 73
  -365
 74
  -160
  0
VERTEX
  5
3CA
  8
0
 62
   206
 10
0.0
 20
0.0
 30
0.0
 70
   128
 71
  -153
 72
  -160
 73
   365
 74
  -153
  0
VERTEX
  5
3CB
  8
0
 62
   206
 10
0.0
 20
0.0
 30
0.0
 70
   128
 71
   152
 72
   154
 73
  -162
 74
  -152
  0
VERTEX
  5
3CC
  8
0
 62
   206
 10
0.0
 20
0.0
 30
0.0
 70
   128
 71
   162
 72
   160
 73
  -152
 74
  -162
  0
VERTEX
  5
3CD
  8
0
 62
   206
 10
0.0
 20
0.0
 30
0.0
 70
   128
 71
   151
 72
   155
 73
  -163
 74
  -151
  0
VERTEX
  5
3CE
  8
0
 62
   206
 10
0.0
 20
0.0
 30
0.0
 70
   128
 71
   163
 72
   159
 73
  -151
 74
  -163
  0
VERTEX
  5
3CF
  8
0
 62
   206
 10
0.0
 20
0.0
 30
0.0
 70
   128
 71
   159
 72
   163
 73
  -162
 74
  -159
  0
VERTEX
  5
3D0
  8
0
 62
   206
 10
0.0
 20
0.0
 30
0.0
 70
   128
 71
   162
 72
   158
 73
  -159
 74
  -162
  0
VERTEX
  5
3D1
  8
0
 62
   206
 10
0.0
 20
0.0
 30
0.0
 70
   128
 71
   158
 72
   162
 73
  -154
 74
  -158
  0
VERTEX
  5
3D2
  8
0
 62
   206
 10
0.0
 20
0.0
 30
0.0
 70
   128
 71
   154
 72
   150
 73
  -158
 74
  -154
  0
VERTEX
  5
3D3
  8
0
 62
   206
 10
0.0
 20
0.0
 30
0.0
 70
   128
 71
   150
 72
   154
 73
  -155
 74
  -150
  0
VERTEX
  5
3D4
  8
0
 62
   206
 10
0.0
 20
0.0
 30
0.0
 70
   128
 71
   155
 72
   151
 73
  -150
 74
  -155
  0
VERTEX
  5
3D5
  8
0
 62
   206
 10
0.0
 20
0.0
 30
0.0
 70
   128
 71
   182
 72
   375
 73
  -368
 74
  -182
  0
VERTEX
  5
3D6
  8
0
 62
   206
 10
0.0
 20
0.0
 30
0.0
 70
   128
 71
   368
 72
   369
 73
  -182
 74
  -368
  0
VERTEX
  5
3D7
  8
0
 62
   206
 10
0.0
 20
0.0
 30
0.0
 70
   128
 71
   155
 72
   183
 73
  -184
 74
  -155
  0
VERTEX
  5
3D8
  8
0
 62
   206
 10
0.0
 20
0.0
 30
0.0
 70
   128
 71
   184
 72
   163
 73
  -155
 74
  -184
  0
VERTEX
  5
3D9
  8
0
 62
   206
 10
0.0
 20
0.0
 30
0.0
 70
   128
 71
   184
 72
   185
 73
  -161
 74
  -184
  0
VERTEX
  5
3DA
  8
0
 62
   206
 10
0.0
 20
0.0
 30
0.0
 70
   128
 71
   161
 72
   163
 73
  -184
 74
  -161
  0
VERTEX
  5
3DB
  8
0
 62
   206
 10
0.0
 20
0.0
 30
0.0
 70
   128
 71
   185
 72
   366
 73
  -365
 74
  -185
  0
VERTEX
  5
3DC
  8
0
 62
   206
 10
0.0
 20
0.0
 30
0.0
 70
   128
 71
   365
 72
   161
 73
  -185
 74
  -365
  0
VERTEX
  5
3DD
  8
0
 62
   206
 10
0.0
 20
0.0
 30
0.0
 70
   128
 71
   187
 72
   186
 73
  -189
 74
  -187
  0
VERTEX
  5
3DE
  8
0
 62
   206
 10
0.0
 20
0.0
 30
0.0
 70
   128
 71
   189
 72
   188
 73
  -187
 74
  -189
  0
VERTEX
  5
3DF
  8
0
 62
   206
 10
0.0
 20
0.0
 30
0.0
 70
   128
 71
   164
 72
   190
 73
  -187
 74
  -164
  0
VERTEX
  5
3E0
  8
0
 62
   206
 10
0.0
 20
0.0
 30
0.0
 70
   128
 71
   187
 72
   188
 73
  -164
 74
  -187
  0
VERTEX
  5
3E1
  8
0
 62
   206
 10
0.0
 20
0.0
 30
0.0
 70
   128
 71
   165
 72
   191
 73
  -193
 74
  -165
  0
VERTEX
  5
3E2
  8
0
 62
   206
 10
0.0
 20
0.0
 30
0.0
 70
   128
 71
   193
 72
   192
 73
  -165
 74
  -193
  0
VERTEX
  5
3E3
  8
0
 62
   206
 10
0.0
 20
0.0
 30
0.0
 70
   128
 71
   193
 72
   194
 73
  -166
 74
  -193
  0
VERTEX
  5
3E4
  8
0
 62
   206
 10
0.0
 20
0.0
 30
0.0
 70
   128
 71
   166
 72
   192
 73
  -193
 74
  -166
  0
VERTEX
  5
3E5
  8
0
 62
   206
 10
0.0
 20
0.0
 30
0.0
 70
   128
 71
   195
 72
   198
 73
  -197
 74
  -195
  0
VERTEX
  5
3E6
  8
0
 62
   206
 10
0.0
 20
0.0
 30
0.0
 70
   128
 71
   197
 72
   196
 73
  -195
 74
  -197
  0
VERTEX
  5
3E7
  8
0
 62
   206
 10
0.0
 20
0.0
 30
0.0
 70
   128
 71
   199
 72
   196
 73
  -197
 74
  -199
  0
VERTEX
  5
3E8
  8
0
 62
   206
 10
0.0
 20
0.0
 30
0.0
 70
   128
 71
   197
 72
   200
 73
  -199
 74
  -197
  0
VERTEX
  5
3E9
  8
0
 62
   206
 10
0.0
 20
0.0
 30
0.0
 70
   128
 71
   201
 72
   200
 73
  -197
 74
  -201
  0
VERTEX
  5
3EA
  8
0
 62
   206
 10
0.0
 20
0.0
 30
0.0
 70
   128
 71
   197
 72
   202
 73
  -201
 74
  -197
  0
VERTEX
  5
3EB
  8
0
 62
   206
 10
0.0
 20
0.0
 30
0.0
 70
   128
 71
   203
 72
   202
 73
  -197
 74
  -203
  0
VERTEX
  5
3EC
  8
0
 62
   206
 10
0.0
 20
0.0
 30
0.0
 70
   128
 71
   197
 72
   198
 73
  -203
 74
  -197
  0
VERTEX
  5
3ED
  8
0
 62
   206
 10
0.0
 20
0.0
 30
0.0
 70
   128
 71
   205
 72
   204
 73
  -207
 74
  -205
  0
VERTEX
  5
3EE
  8
0
 62
   206
 10
0.0
 20
0.0
 30
0.0
 70
   128
 71
   207
 72
   206
 73
  -205
 74
  -207
  0
VERTEX
  5
3EF
  8
0
 62
   206
 10
0.0
 20
0.0
 30
0.0
 70
   128
 71
   167
 72
   208
 73
  -205
 74
  -167
  0
VERTEX
  5
3F0
  8
0
 62
   206
 10
0.0
 20
0.0
 30
0.0
 70
   128
 71
   205
 72
   206
 73
  -167
 74
  -205
  0
VERTEX
  5
3F1
  8
0
 62
   206
 10
0.0
 20
0.0
 30
0.0
 70
   128
 71
   209
 72
   212
 73
  -211
 74
  -209
  0
VERTEX
  5
3F2
  8
0
 62
   206
 10
0.0
 20
0.0
 30
0.0
 70
   128
 71
   211
 72
   210
 73
  -209
 74
  -211
  0
VERTEX
  5
3F3
  8
0
 62
   206
 10
0.0
 20
0.0
 30
0.0
 70
   128
 71
   213
 72
   210
 73
  -211
 74
  -213
  0
VERTEX
  5
3F4
  8
0
 62
   206
 10
0.0
 20
0.0
 30
0.0
 70
   128
 71
   211
 72
   214
 73
  -213
 74
  -211
  0
VERTEX
  5
3F5
  8
0
 62
   206
 10
0.0
 20
0.0
 30
0.0
 70
   128
 71
   215
 72
   214
 73
  -211
 74
  -215
  0
VERTEX
  5
3F6
  8
0
 62
   206
 10
0.0
 20
0.0
 30
0.0
 70
   128
 71
   211
 72
   216
 73
  -215
 74
  -211
  0
VERTEX
  5
3F7
  8
0
 62
   206
 10
0.0
 20
0.0
 30
0.0
 70
   128
 71
   217
 72
   216
 73
  -211
 74
  -217
  0
VERTEX
  5
3F8
  8
0
 62
   206
 10
0.0
 20
0.0
 30
0.0
 70
   128
 71
   211
 72
   212
 73
  -217
 74
  -211
  0
VERTEX
  5
3F9
  8
0
 62
   206
 10
0.0
 20
0.0
 30
0.0
 70
   128
 71
   207
 72
   204
 73
  -218
 74
  -207
  0
VERTEX
  5
3FA
  8
0
 62
   206
 10
0.0
 20
0.0
 30
0.0
 70
   128
 71
   218
 72
   168
 73
  -207
 74
  -218
  0
VERTEX
  5
3FB
  8
0
 62
   206
 10
0.0
 20
0.0
 30
0.0
 70
   128
 71
   218
 72
   219
 73
  -220
 74
  -218
  0
VERTEX
  5
3FC
  8
0
 62
   206
 10
0.0
 20
0.0
 30
0.0
 70
   128
 71
   220
 72
   168
 73
  -218
 74
  -220
  0
VERTEX
  5
3FD
  8
0
 62
   206
 10
0.0
 20
0.0
 30
0.0
 70
   128
 71
   221
 72
   224
 73
  -223
 74
  -221
  0
VERTEX
  5
3FE
  8
0
 62
   206
 10
0.0
 20
0.0
 30
0.0
 70
   128
 71
   223
 72
   222
 73
  -221
 74
  -223
  0
VERTEX
  5
3FF
  8
0
 62
   206
 10
0.0
 20
0.0
 30
0.0
 70
   128
 71
   225
 72
   222
 73
  -223
 74
  -225
  0
VERTEX
  5
400
  8
0
 62
   206
 10
0.0
 20
0.0
 30
0.0
 70
   128
 71
   223
 72
   226
 73
  -225
 74
  -223
  0
VERTEX
  5
401
  8
0
 62
   206
 10
0.0
 20
0.0
 30
0.0
 70
   128
 71
   227
 72
   226
 73
  -223
 74
  -227
  0
VERTEX
  5
402
  8
0
 62
   206
 10
0.0
 20
0.0
 30
0.0
 70
   128
 71
   223
 72
   228
 73
  -227
 74
  -223
  0
VERTEX
  5
403
  8
0
 62
   206
 10
0.0
 20
0.0
 30
0.0
 70
   128
 71
   229
 72
   228
 73
  -223
 74
  -229
  0
VERTEX
  5
404
  8
0
 62
   206
 10
0.0
 20
0.0
 30
0.0
 70
   128
 71
   223
 72
   224
 73
  -229
 74
  -223
  0
VERTEX
  5
405
  8
0
 62
   206
 10
0.0
 20
0.0
 30
0.0
 70
   128
 71
   169
 72
   230
 73
  -231
 74
  -169
  0
VERTEX
  5
406
  8
0
 62
   206
 10
0.0
 20
0.0
 30
0.0
 70
   128
 71
   231
 72
   170
 73
  -169
 74
  -231
  0
VERTEX
  5
407
  8
0
 62
   206
 10
0.0
 20
0.0
 30
0.0
 70
   128
 71
   231
 72
   232
 73
  -233
 74
  -231
  0
VERTEX
  5
408
  8
0
 62
   206
 10
0.0
 20
0.0
 30
0.0
 70
   128
 71
   233
 72
   170
 73
  -231
 74
  -233
  0
VERTEX
  5
409
  8
0
 62
   206
 10
0.0
 20
0.0
 30
0.0
 70
   128
 71
   235
 72
   234
 73
  -171
 74
  -235
  0
VERTEX
  5
40A
  8
0
 62
   206
 10
0.0
 20
0.0
 30
0.0
 70
   128
 71
   171
 72
   236
 73
  -235
 74
  -171
  0
VERTEX
  5
40B
  8
0
 62
   206
 10
0.0
 20
0.0
 30
0.0
 70
   128
 71
   172
 72
   237
 73
  -235
 74
  -172
  0
VERTEX
  5
40C
  8
0
 62
   206
 10
0.0
 20
0.0
 30
0.0
 70
   128
 71
   235
 72
   236
 73
  -172
 74
  -235
  0
VERTEX
  5
40D
  8
0
 62
   206
 10
0.0
 20
0.0
 30
0.0
 70
   128
 71
   239
 72
   238
 73
  -173
 74
  -239
  0
VERTEX
  5
40E
  8
0
 62
   206
 10
0.0
 20
0.0
 30
0.0
 70
   128
 71
   173
 72
   240
 73
  -239
 74
  -173
  0
VERTEX
  5
40F
  8
0
 62
   206
 10
0.0
 20
0.0
 30
0.0
 70
   128
 71
   242
 72
   241
 73
  -239
 74
  -242
  0
VERTEX
  5
410
  8
0
 62
   206
 10
0.0
 20
0.0
 30
0.0
 70
   128
 71
   239
 72
   240
 73
  -242
 74
  -239
  0
VERTEX
  5
411
  8
0
 62
   206
 10
0.0
 20
0.0
 30
0.0
 70
   128
 71
   174
 72
   243
 73
  -244
 74
  -174
  0
VERTEX
  5
412
  8
0
 62
   206
 10
0.0
 20
0.0
 30
0.0
 70
   128
 71
   244
 72
   175
 73
  -174
 74
  -244
  0
VERTEX
  5
413
  8
0
 62
   206
 10
0.0
 20
0.0
 30
0.0
 70
   128
 71
   244
 72
   208
 73
  -167
 74
  -244
  0
VERTEX
  5
414
  8
0
 62
   206
 10
0.0
 20
0.0
 30
0.0
 70
   128
 71
   167
 72
   175
 73
  -244
 74
  -167
  0
VERTEX
  5
415
  8
0
 62
   206
 10
0.0
 20
0.0
 30
0.0
 70
   128
 71
   186
 72
   187
 73
  -246
 74
  -186
  0
VERTEX
  5
416
  8
0
 62
   206
 10
0.0
 20
0.0
 30
0.0
 70
   128
 71
   246
 72
   245
 73
  -186
 74
  -246
  0
VERTEX
  5
417
  8
0
 62
   206
 10
0.0
 20
0.0
 30
0.0
 70
   128
 71
   247
 72
   245
 73
  -246
 74
  -247
  0
VERTEX
  5
418
  8
0
 62
   206
 10
0.0
 20
0.0
 30
0.0
 70
   128
 71
   246
 72
   248
 73
  -247
 74
  -246
  0
VERTEX
  5
419
  8
0
 62
   206
 10
0.0
 20
0.0
 30
0.0
 70
   128
 71
   249
 72
   248
 73
  -246
 74
  -249
  0
VERTEX
  5
41A
  8
0
 62
   206
 10
0.0
 20
0.0
 30
0.0
 70
   128
 71
   246
 72
   250
 73
  -249
 74
  -246
  0
VERTEX
  5
41B
  8
0
 62
   206
 10
0.0
 20
0.0
 30
0.0
 70
   128
 71
   190
 72
   250
 73
  -246
 74
  -190
  0
VERTEX
  5
41C
  8
0
 62
   206
 10
0.0
 20
0.0
 30
0.0
 70
   128
 71
   246
 72
   187
 73
  -190
 74
  -246
  0
VERTEX
  5
41D
  8
0
 62
   206
 10
0.0
 20
0.0
 30
0.0
 70
   128
 71
   251
 72
   254
 73
  -253
 74
  -251
  0
VERTEX
  5
41E
  8
0
 62
   206
 10
0.0
 20
0.0
 30
0.0
 70
   128
 71
   253
 72
   252
 73
  -251
 74
  -253
  0
VERTEX
  5
41F
  8
0
 62
   206
 10
0.0
 20
0.0
 30
0.0
 70
   128
 71
   255
 72
   252
 73
  -253
 74
  -255
  0
VERTEX
  5
420
  8
0
 62
   206
 10
0.0
 20
0.0
 30
0.0
 70
   128
 71
   253
 72
   256
 73
  -255
 74
  -253
  0
VERTEX
  5
421
  8
0
 62
   206
 10
0.0
 20
0.0
 30
0.0
 70
   128
 71
   225
 72
   256
 73
  -253
 74
  -225
  0
VERTEX
  5
422
  8
0
 62
   206
 10
0.0
 20
0.0
 30
0.0
 70
   128
 71
   253
 72
   257
 73
  -225
 74
  -253
  0
VERTEX
  5
423
  8
0
 62
   206
 10
0.0
 20
0.0
 30
0.0
 70
   128
 71
   194
 72
   257
 73
  -253
 74
  -194
  0
VERTEX
  5
424
  8
0
 62
   206
 10
0.0
 20
0.0
 30
0.0
 70
   128
 71
   253
 72
   254
 73
  -194
 74
  -253
  0
VERTEX
  5
425
  8
0
 62
   206
 10
0.0
 20
0.0
 30
0.0
 70
   128
 71
   204
 72
   205
 73
  -259
 74
  -204
  0
VERTEX
  5
426
  8
0
 62
   206
 10
0.0
 20
0.0
 30
0.0
 70
   128
 71
   259
 72
   258
 73
  -204
 74
  -259
  0
VERTEX
  5
427
  8
0
 62
   206
 10
0.0
 20
0.0
 30
0.0
 70
   128
 71
   260
 72
   258
 73
  -259
 74
  -260
  0
VERTEX
  5
428
  8
0
 62
   206
 10
0.0
 20
0.0
 30
0.0
 70
   128
 71
   259
 72
   261
 73
  -260
 74
  -259
  0
VERTEX
  5
429
  8
0
 62
   206
 10
0.0
 20
0.0
 30
0.0
 70
   128
 71
   262
 72
   261
 73
  -259
 74
  -262
  0
VERTEX
  5
42A
  8
0
 62
   206
 10
0.0
 20
0.0
 30
0.0
 70
   128
 71
   259
 72
   263
 73
  -262
 74
  -259
  0
VERTEX
  5
42B
  8
0
 62
   206
 10
0.0
 20
0.0
 30
0.0
 70
   128
 71
   208
 72
   263
 73
  -259
 74
  -208
  0
VERTEX
  5
42C
  8
0
 62
   206
 10
0.0
 20
0.0
 30
0.0
 70
   128
 71
   259
 72
   205
 73
  -208
 74
  -259
  0
VERTEX
  5
42D
  8
0
 62
   206
 10
0.0
 20
0.0
 30
0.0
 70
   128
 71
   191
 72
   266
 73
  -265
 74
  -191
  0
VERTEX
  5
42E
  8
0
 62
   206
 10
0.0
 20
0.0
 30
0.0
 70
   128
 71
   265
 72
   264
 73
  -191
 74
  -265
  0
VERTEX
  5
42F
  8
0
 62
   206
 10
0.0
 20
0.0
 30
0.0
 70
   128
 71
   221
 72
   264
 73
  -265
 74
  -221
  0
VERTEX
  5
430
  8
0
 62
   206
 10
0.0
 20
0.0
 30
0.0
 70
   128
 71
   265
 72
   267
 73
  -221
 74
  -265
  0
VERTEX
  5
431
  8
0
 62
   206
 10
0.0
 20
0.0
 30
0.0
 70
   128
 71
   215
 72
   267
 73
  -265
 74
  -215
  0
VERTEX
  5
432
  8
0
 62
   206
 10
0.0
 20
0.0
 30
0.0
 70
   128
 71
   265
 72
   268
 73
  -215
 74
  -265
  0
VERTEX
  5
433
  8
0
 62
   206
 10
0.0
 20
0.0
 30
0.0
 70
   128
 71
   269
 72
   268
 73
  -265
 74
  -269
  0
VERTEX
  5
434
  8
0
 62
   206
 10
0.0
 20
0.0
 30
0.0
 70
   128
 71
   265
 72
   266
 73
  -269
 74
  -265
  0
VERTEX
  5
435
  8
0
 62
   206
 10
0.0
 20
0.0
 30
0.0
 70
   128
 71
   243
 72
   272
 73
  -271
 74
  -243
  0
VERTEX
  5
436
  8
0
 62
   206
 10
0.0
 20
0.0
 30
0.0
 70
   128
 71
   271
 72
   270
 73
  -243
 74
  -271
  0
VERTEX
  5
437
  8
0
 62
   206
 10
0.0
 20
0.0
 30
0.0
 70
   128
 71
   209
 72
   270
 73
  -271
 74
  -209
  0
VERTEX
  5
438
  8
0
 62
   206
 10
0.0
 20
0.0
 30
0.0
 70
   128
 71
   271
 72
   212
 73
  -209
 74
  -271
  0
VERTEX
  5
439
  8
0
 62
   206
 10
0.0
 20
0.0
 30
0.0
 70
   128
 71
   217
 72
   212
 73
  -271
 74
  -217
  0
VERTEX
  5
43A
  8
0
 62
   206
 10
0.0
 20
0.0
 30
0.0
 70
   128
 71
   271
 72
   273
 73
  -217
 74
  -271
  0
VERTEX
  5
43B
  8
0
 62
   206
 10
0.0
 20
0.0
 30
0.0
 70
   128
 71
   232
 72
   273
 73
  -271
 74
  -232
  0
VERTEX
  5
43C
  8
0
 62
   206
 10
0.0
 20
0.0
 30
0.0
 70
   128
 71
   271
 72
   272
 73
  -232
 74
  -271
  0
VERTEX
  5
43D
  8
0
 62
   206
 10
0.0
 20
0.0
 30
0.0
 70
   128
 71
   199
 72
   275
 73
  -274
 74
  -199
  0
VERTEX
  5
43E
  8
0
 62
   206
 10
0.0
 20
0.0
 30
0.0
 70
   128
 71
   274
 72
   196
 73
  -199
 74
  -274
  0
VERTEX
  5
43F
  8
0
 62
   206
 10
0.0
 20
0.0
 30
0.0
 70
   128
 71
   195
 72
   196
 73
  -274
 74
  -195
  0
VERTEX
  5
440
  8
0
 62
   206
 10
0.0
 20
0.0
 30
0.0
 70
   128
 71
   274
 72
   276
 73
  -195
 74
  -274
  0
VERTEX
  5
441
  8
0
 62
   206
 10
0.0
 20
0.0
 30
0.0
 70
   128
 71
   237
 72
   276
 73
  -274
 74
  -237
  0
VERTEX
  5
442
  8
0
 62
   206
 10
0.0
 20
0.0
 30
0.0
 70
   128
 71
   274
 72
   235
 73
  -237
 74
  -274
  0
VERTEX
  5
443
  8
0
 62
   206
 10
0.0
 20
0.0
 30
0.0
 70
   128
 71
   234
 72
   235
 73
  -274
 74
  -234
  0
VERTEX
  5
444
  8
0
 62
   206
 10
0.0
 20
0.0
 30
0.0
 70
   128
 71
   274
 72
   275
 73
  -234
 74
  -274
  0
VERTEX
  5
445
  8
0
 62
   206
 10
0.0
 20
0.0
 30
0.0
 70
   128
 71
   277
 72
   280
 73
  -279
 74
  -277
  0
VERTEX
  5
446
  8
0
 62
   206
 10
0.0
 20
0.0
 30
0.0
 70
   128
 71
   279
 72
   278
 73
  -277
 74
  -279
  0
VERTEX
  5
447
  8
0
 62
   206
 10
0.0
 20
0.0
 30
0.0
 70
   128
 71
   281
 72
   278
 73
  -279
 74
  -281
  0
VERTEX
  5
448
  8
0
 62
   206
 10
0.0
 20
0.0
 30
0.0
 70
   128
 71
   279
 72
   282
 73
  -281
 74
  -279
  0
VERTEX
  5
449
  8
0
 62
   206
 10
0.0
 20
0.0
 30
0.0
 70
   128
 71
   241
 72
   282
 73
  -279
 74
  -241
  0
VERTEX
  5
44A
  8
0
 62
   206
 10
0.0
 20
0.0
 30
0.0
 70
   128
 71
   279
 72
   239
 73
  -241
 74
  -279
  0
VERTEX
  5
44B
  8
0
 62
   206
 10
0.0
 20
0.0
 30
0.0
 70
   128
 71
   238
 72
   239
 73
  -279
 74
  -238
  0
VERTEX
  5
44C
  8
0
 62
   206
 10
0.0
 20
0.0
 30
0.0
 70
   128
 71
   279
 72
   280
 73
  -238
 74
  -279
  0
VERTEX
  5
44D
  8
0
 62
   206
 10
0.0
 20
0.0
 30
0.0
 70
   128
 71
   208
 72
   244
 73
  -283
 74
  -208
  0
VERTEX
  5
44E
  8
0
 62
   206
 10
0.0
 20
0.0
 30
0.0
 70
   128
 71
   283
 72
   263
 73
  -208
 74
  -283
  0
VERTEX
  5
44F
  8
0
 62
   206
 10
0.0
 20
0.0
 30
0.0
 70
   128
 71
   262
 72
   263
 73
  -283
 74
  -262
  0
VERTEX
  5
450
  8
0
 62
   206
 10
0.0
 20
0.0
 30
0.0
 70
   128
 71
   283
 72
   284
 73
  -262
 74
  -283
  0
VERTEX
  5
451
  8
0
 62
   206
 10
0.0
 20
0.0
 30
0.0
 70
   128
 71
   209
 72
   284
 73
  -283
 74
  -209
  0
VERTEX
  5
452
  8
0
 62
   206
 10
0.0
 20
0.0
 30
0.0
 70
   128
 71
   283
 72
   270
 73
  -209
 74
  -283
  0
VERTEX
  5
453
  8
0
 62
   206
 10
0.0
 20
0.0
 30
0.0
 70
   128
 71
   243
 72
   270
 73
  -283
 74
  -243
  0
VERTEX
  5
454
  8
0
 62
   206
 10
0.0
 20
0.0
 30
0.0
 70
   128
 71
   283
 72
   244
 73
  -243
 74
  -283
  0
VERTEX
  5
455
  8
0
 62
   206
 10
0.0
 20
0.0
 30
0.0
 70
   128
 71
   199
 72
   200
 73
  -286
 74
  -199
  0
VERTEX
  5
456
  8
0
 62
   206
 10
0.0
 20
0.0
 30
0.0
 70
   128
 71
   286
 72
   285
 73
  -199
 74
  -286
  0
VERTEX
  5
457
  8
0
 62
   206
 10
0.0
 20
0.0
 30
0.0
 70
   128
 71
   229
 72
   285
 73
  -286
 74
  -229
  0
VERTEX
  5
458
  8
0
 62
   206
 10
0.0
 20
0.0
 30
0.0
 70
   128
 71
   286
 72
   228
 73
  -229
 74
  -286
  0
VERTEX
  5
459
  8
0
 62
   206
 10
0.0
 20
0.0
 30
0.0
 70
   128
 71
   227
 72
   228
 73
  -286
 74
  -227
  0
VERTEX
  5
45A
  8
0
 62
   206
 10
0.0
 20
0.0
 30
0.0
 70
   128
 71
   286
 72
   287
 73
  -227
 74
  -286
  0
VERTEX
  5
45B
  8
0
 62
   206
 10
0.0
 20
0.0
 30
0.0
 70
   128
 71
   201
 72
   287
 73
  -286
 74
  -201
  0
VERTEX
  5
45C
  8
0
 62
   206
 10
0.0
 20
0.0
 30
0.0
 70
   128
 71
   286
 72
   200
 73
  -201
 74
  -286
  0
VERTEX
  5
45D
  8
0
 62
   206
 10
0.0
 20
0.0
 30
0.0
 70
   128
 71
   277
 72
   290
 73
  -289
 74
  -277
  0
VERTEX
  5
45E
  8
0
 62
   206
 10
0.0
 20
0.0
 30
0.0
 70
   128
 71
   289
 72
   288
 73
  -277
 74
  -289
  0
VERTEX
  5
45F
  8
0
 62
   206
 10
0.0
 20
0.0
 30
0.0
 70
   128
 71
   291
 72
   288
 73
  -289
 74
  -291
  0
VERTEX
  5
460
  8
0
 62
   206
 10
0.0
 20
0.0
 30
0.0
 70
   128
 71
   289
 72
   292
 73
  -291
 74
  -289
  0
VERTEX
  5
461
  8
0
 62
   206
 10
0.0
 20
0.0
 30
0.0
 70
   128
 71
   249
 72
   292
 73
  -289
 74
  -249
  0
VERTEX
  5
462
  8
0
 62
   206
 10
0.0
 20
0.0
 30
0.0
 70
   128
 71
   289
 72
   293
 73
  -249
 74
  -289
  0
VERTEX
  5
463
  8
0
 62
   206
 10
0.0
 20
0.0
 30
0.0
 70
   128
 71
   203
 72
   293
 73
  -289
 74
  -203
  0
VERTEX
  5
464
  8
0
 62
   206
 10
0.0
 20
0.0
 30
0.0
 70
   128
 71
   289
 72
   290
 73
  -203
 74
  -289
  0
VERTEX
  5
465
  8
0
 62
   206
 10
0.0
 20
0.0
 30
0.0
 70
   128
 71
   294
 72
   230
 73
  -169
 74
  -294
  0
VERTEX
  5
466
  8
0
 62
   206
 10
0.0
 20
0.0
 30
0.0
 70
   128
 71
   169
 72
   176
 73
  -294
 74
  -169
  0
VERTEX
  5
467
  8
0
 62
   206
 10
0.0
 20
0.0
 30
0.0
 70
   128
 71
   171
 72
   234
 73
  -294
 74
  -171
  0
VERTEX
  5
468
  8
0
 62
   206
 10
0.0
 20
0.0
 30
0.0
 70
   128
 71
   294
 72
   176
 73
  -171
 74
  -294
  0
VERTEX
  5
469
  8
0
 62
   206
 10
0.0
 20
0.0
 30
0.0
 70
   128
 71
   295
 72
   237
 73
  -172
 74
  -295
  0
VERTEX
  5
46A
  8
0
 62
   206
 10
0.0
 20
0.0
 30
0.0
 70
   128
 71
   172
 72
   177
 73
  -295
 74
  -172
  0
VERTEX
  5
46B
  8
0
 62
   206
 10
0.0
 20
0.0
 30
0.0
 70
   128
 71
   189
 72
   186
 73
  -295
 74
  -189
  0
VERTEX
  5
46C
  8
0
 62
   206
 10
0.0
 20
0.0
 30
0.0
 70
   128
 71
   295
 72
   177
 73
  -189
 74
  -295
  0
VERTEX
  5
46D
  8
0
 62
   206
 10
0.0
 20
0.0
 30
0.0
 70
   128
 71
   297
 72
   296
 73
  -298
 74
  -297
  0
VERTEX
  5
46E
  8
0
 62
   206
 10
0.0
 20
0.0
 30
0.0
 70
   128
 71
   298
 72
   178
 73
  -297
 74
  -298
  0
VERTEX
  5
46F
  8
0
 62
   206
 10
0.0
 20
0.0
 30
0.0
 70
   128
 71
   238
 72
   297
 73
  -178
 74
  -238
  0
VERTEX
  5
470
  8
0
 62
   206
 10
0.0
 20
0.0
 30
0.0
 70
   128
 71
   178
 72
   173
 73
  -238
 74
  -178
  0
VERTEX
  5
471
  8
0
 62
   206
 10
0.0
 20
0.0
 30
0.0
 70
   128
 71
   241
 72
   242
 73
  -300
 74
  -241
  0
VERTEX
  5
472
  8
0
 62
   206
 10
0.0
 20
0.0
 30
0.0
 70
   128
 71
   300
 72
   299
 73
  -241
 74
  -300
  0
VERTEX
  5
473
  8
0
 62
   206
 10
0.0
 20
0.0
 30
0.0
 70
   128
 71
   301
 72
   251
 73
  -299
 74
  -301
  0
VERTEX
  5
474
  8
0
 62
   206
 10
0.0
 20
0.0
 30
0.0
 70
   128
 71
   299
 72
   300
 73
  -301
 74
  -299
  0
VERTEX
  5
475
  8
0
 62
   206
 10
0.0
 20
0.0
 30
0.0
 70
   128
 71
   195
 72
   276
 73
  -303
 74
  -195
  0
VERTEX
  5
476
  8
0
 62
   206
 10
0.0
 20
0.0
 30
0.0
 70
   128
 71
   303
 72
   302
 73
  -195
 74
  -303
  0
VERTEX
  5
477
  8
0
 62
   206
 10
0.0
 20
0.0
 30
0.0
 70
   128
 71
   247
 72
   302
 73
  -303
 74
  -247
  0
VERTEX
  5
478
  8
0
 62
   206
 10
0.0
 20
0.0
 30
0.0
 70
   128
 71
   303
 72
   245
 73
  -247
 74
  -303
  0
VERTEX
  5
479
  8
0
 62
   206
 10
0.0
 20
0.0
 30
0.0
 70
   128
 71
   186
 72
   245
 73
  -303
 74
  -186
  0
VERTEX
  5
47A
  8
0
 62
   206
 10
0.0
 20
0.0
 30
0.0
 70
   128
 71
   303
 72
   295
 73
  -186
 74
  -303
  0
VERTEX
  5
47B
  8
0
 62
   206
 10
0.0
 20
0.0
 30
0.0
 70
   128
 71
   237
 72
   295
 73
  -303
 74
  -237
  0
VERTEX
  5
47C
  8
0
 62
   206
 10
0.0
 20
0.0
 30
0.0
 70
   128
 71
   303
 72
   276
 73
  -237
 74
  -303
  0
VERTEX
  5
47D
  8
0
 62
   206
 10
0.0
 20
0.0
 30
0.0
 70
   128
 71
   234
 72
   275
 73
  -304
 74
  -234
  0
VERTEX
  5
47E
  8
0
 62
   206
 10
0.0
 20
0.0
 30
0.0
 70
   128
 71
   304
 72
   294
 73
  -234
 74
  -304
  0
VERTEX
  5
47F
  8
0
 62
   206
 10
0.0
 20
0.0
 30
0.0
 70
   128
 71
   230
 72
   294
 73
  -304
 74
  -230
  0
VERTEX
  5
480
  8
0
 62
   206
 10
0.0
 20
0.0
 30
0.0
 70
   128
 71
   304
 72
   305
 73
  -230
 74
  -304
  0
VERTEX
  5
481
  8
0
 62
   206
 10
0.0
 20
0.0
 30
0.0
 70
   128
 71
   229
 72
   305
 73
  -304
 74
  -229
  0
VERTEX
  5
482
  8
0
 62
   206
 10
0.0
 20
0.0
 30
0.0
 70
   128
 71
   304
 72
   285
 73
  -229
 74
  -304
  0
VERTEX
  5
483
  8
0
 62
   206
 10
0.0
 20
0.0
 30
0.0
 70
   128
 71
   199
 72
   285
 73
  -304
 74
  -199
  0
VERTEX
  5
484
  8
0
 62
   206
 10
0.0
 20
0.0
 30
0.0
 70
   128
 71
   304
 72
   275
 73
  -199
 74
  -304
  0
VERTEX
  5
485
  8
0
 62
   206
 10
0.0
 20
0.0
 30
0.0
 70
   128
 71
   281
 72
   282
 73
  -307
 74
  -281
  0
VERTEX
  5
486
  8
0
 62
   206
 10
0.0
 20
0.0
 30
0.0
 70
   128
 71
   307
 72
   306
 73
  -281
 74
  -307
  0
VERTEX
  5
487
  8
0
 62
   206
 10
0.0
 20
0.0
 30
0.0
 70
   128
 71
   308
 72
   306
 73
  -307
 74
  -308
  0
VERTEX
  5
488
  8
0
 62
   206
 10
0.0
 20
0.0
 30
0.0
 70
   128
 71
   307
 72
   309
 73
  -308
 74
  -307
  0
VERTEX
  5
489
  8
0
 62
   206
 10
0.0
 20
0.0
 30
0.0
 70
   128
 71
   255
 72
   309
 73
  -307
 74
  -255
  0
VERTEX
  5
48A
  8
0
 62
   206
 10
0.0
 20
0.0
 30
0.0
 70
   128
 71
   307
 72
   252
 73
  -255
 74
  -307
  0
VERTEX
  5
48B
  8
0
 62
   206
 10
0.0
 20
0.0
 30
0.0
 70
   128
 71
   251
 72
   252
 73
  -307
 74
  -251
  0
VERTEX
  5
48C
  8
0
 62
   206
 10
0.0
 20
0.0
 30
0.0
 70
   128
 71
   307
 72
   299
 73
  -251
 74
  -307
  0
VERTEX
  5
48D
  8
0
 62
   206
 10
0.0
 20
0.0
 30
0.0
 70
   128
 71
   241
 72
   299
 73
  -307
 74
  -241
  0
VERTEX
  5
48E
  8
0
 62
   206
 10
0.0
 20
0.0
 30
0.0
 70
   128
 71
   307
 72
   282
 73
  -241
 74
  -307
  0
VERTEX
  5
48F
  8
0
 62
   206
 10
0.0
 20
0.0
 30
0.0
 70
   128
 71
   238
 72
   280
 73
  -310
 74
  -238
  0
VERTEX
  5
490
  8
0
 62
   206
 10
0.0
 20
0.0
 30
0.0
 70
   128
 71
   310
 72
   297
 73
  -238
 74
  -310
  0
VERTEX
  5
491
  8
0
 62
   206
 10
0.0
 20
0.0
 30
0.0
 70
   128
 71
   296
 72
   297
 73
  -310
 74
  -296
  0
VERTEX
  5
492
  8
0
 62
   206
 10
0.0
 20
0.0
 30
0.0
 70
   128
 71
   310
 72
   311
 73
  -296
 74
  -310
  0
VERTEX
  5
493
  8
0
 62
   206
 10
0.0
 20
0.0
 30
0.0
 70
   128
 71
   291
 72
   311
 73
  -310
 74
  -291
  0
VERTEX
  5
494
  8
0
 62
   206
 10
0.0
 20
0.0
 30
0.0
 70
   128
 71
   310
 72
   288
 73
  -291
 74
  -310
  0
VERTEX
  5
495
  8
0
 62
   206
 10
0.0
 20
0.0
 30
0.0
 70
   128
 71
   277
 72
   288
 73
  -310
 74
  -277
  0
VERTEX
  5
496
  8
0
 62
   206
 10
0.0
 20
0.0
 30
0.0
 70
   128
 71
   310
 72
   280
 73
  -277
 74
  -310
  0
VERTEX
  5
497
  8
0
 62
   206
 10
0.0
 20
0.0
 30
0.0
 70
   128
 71
   312
 72
   269
 73
  -180
 74
  -312
  0
VERTEX
  5
498
  8
0
 62
   206
 10
0.0
 20
0.0
 30
0.0
 70
   128
 71
   180
 72
   179
 73
  -312
 74
  -180
  0
VERTEX
  5
499
  8
0
 62
   206
 10
0.0
 20
0.0
 30
0.0
 70
   128
 71
   220
 72
   219
 73
  -312
 74
  -220
  0
VERTEX
  5
49A
  8
0
 62
   206
 10
0.0
 20
0.0
 30
0.0
 70
   128
 71
   312
 72
   179
 73
  -220
 74
  -312
  0
VERTEX
  5
49B
  8
0
 62
   206
 10
0.0
 20
0.0
 30
0.0
 70
   128
 71
   213
 72
   315
 73
  -314
 74
  -213
  0
VERTEX
  5
49C
  8
0
 62
   206
 10
0.0
 20
0.0
 30
0.0
 70
   128
 71
   314
 72
   313
 73
  -213
 74
  -314
  0
VERTEX
  5
49D
  8
0
 62
   206
 10
0.0
 20
0.0
 30
0.0
 70
   128
 71
   260
 72
   313
 73
  -314
 74
  -260
  0
VERTEX
  5
49E
  8
0
 62
   206
 10
0.0
 20
0.0
 30
0.0
 70
   128
 71
   314
 72
   258
 73
  -260
 74
  -314
  0
VERTEX
  5
49F
  8
0
 62
   206
 10
0.0
 20
0.0
 30
0.0
 70
   128
 71
   204
 72
   258
 73
  -314
 74
  -204
  0
VERTEX
  5
4A0
  8
0
 62
   206
 10
0.0
 20
0.0
 30
0.0
 70
   128
 71
   314
 72
   218
 73
  -204
 74
  -314
  0
VERTEX
  5
4A1
  8
0
 62
   206
 10
0.0
 20
0.0
 30
0.0
 70
   128
 71
   219
 72
   218
 73
  -314
 74
  -219
  0
VERTEX
  5
4A2
  8
0
 62
   206
 10
0.0
 20
0.0
 30
0.0
 70
   128
 71
   314
 72
   315
 73
  -219
 74
  -314
  0
VERTEX
  5
4A3
  8
0
 62
   206
 10
0.0
 20
0.0
 30
0.0
 70
   128
 71
   209
 72
   210
 73
  -316
 74
  -209
  0
VERTEX
  5
4A4
  8
0
 62
   206
 10
0.0
 20
0.0
 30
0.0
 70
   128
 71
   316
 72
   284
 73
  -209
 74
  -316
  0
VERTEX
  5
4A5
  8
0
 62
   206
 10
0.0
 20
0.0
 30
0.0
 70
   128
 71
   262
 72
   284
 73
  -316
 74
  -262
  0
VERTEX
  5
4A6
  8
0
 62
   206
 10
0.0
 20
0.0
 30
0.0
 70
   128
 71
   316
 72
   261
 73
  -262
 74
  -316
  0
VERTEX
  5
4A7
  8
0
 62
   206
 10
0.0
 20
0.0
 30
0.0
 70
   128
 71
   260
 72
   261
 73
  -316
 74
  -260
  0
VERTEX
  5
4A8
  8
0
 62
   206
 10
0.0
 20
0.0
 30
0.0
 70
   128
 71
   316
 72
   313
 73
  -260
 74
  -316
  0
VERTEX
  5
4A9
  8
0
 62
   206
 10
0.0
 20
0.0
 30
0.0
 70
   128
 71
   213
 72
   313
 73
  -316
 74
  -213
  0
VERTEX
  5
4AA
  8
0
 62
   206
 10
0.0
 20
0.0
 30
0.0
 70
   128
 71
   316
 72
   210
 73
  -213
 74
  -316
  0
VERTEX
  5
4AB
  8
0
 62
   206
 10
0.0
 20
0.0
 30
0.0
 70
   128
 71
   317
 72
   190
 73
  -164
 74
  -317
  0
VERTEX
  5
4AC
  8
0
 62
   206
 10
0.0
 20
0.0
 30
0.0
 70
   128
 71
   164
 72
   318
 73
  -317
 74
  -164
  0
VERTEX
  5
4AD
  8
0
 62
   206
 10
0.0
 20
0.0
 30
0.0
 70
   128
 71
   298
 72
   296
 73
  -317
 74
  -298
  0
VERTEX
  5
4AE
  8
0
 62
   206
 10
0.0
 20
0.0
 30
0.0
 70
   128
 71
   317
 72
   318
 73
  -298
 74
  -317
  0
VERTEX
  5
4AF
  8
0
 62
   206
 10
0.0
 20
0.0
 30
0.0
 70
   128
 71
   254
 72
   251
 73
  -301
 74
  -254
  0
VERTEX
  5
4B0
  8
0
 62
   206
 10
0.0
 20
0.0
 30
0.0
 70
   128
 71
   301
 72
   181
 73
  -254
 74
  -301
  0
VERTEX
  5
4B1
  8
0
 62
   206
 10
0.0
 20
0.0
 30
0.0
 70
   128
 71
   166
 72
   194
 73
  -254
 74
  -166
  0
VERTEX
  5
4B2
  8
0
 62
   206
 10
0.0
 20
0.0
 30
0.0
 70
   128
 71
   254
 72
   181
 73
  -166
 74
  -254
  0
VERTEX
  5
4B3
  8
0
 62
   206
 10
0.0
 20
0.0
 30
0.0
 70
   128
 71
   201
 72
   202
 73
  -320
 74
  -201
  0
VERTEX
  5
4B4
  8
0
 62
   206
 10
0.0
 20
0.0
 30
0.0
 70
   128
 71
   320
 72
   319
 73
  -201
 74
  -320
  0
VERTEX
  5
4B5
  8
0
 62
   206
 10
0.0
 20
0.0
 30
0.0
 70
   128
 71
   281
 72
   319
 73
  -320
 74
  -281
  0
VERTEX
  5
4B6
  8
0
 62
   206
 10
0.0
 20
0.0
 30
0.0
 70
   128
 71
   320
 72
   278
 73
  -281
 74
  -320
  0
VERTEX
  5
4B7
  8
0
 62
   206
 10
0.0
 20
0.0
 30
0.0
 70
   128
 71
   277
 72
   278
 73
  -320
 74
  -277
  0
VERTEX
  5
4B8
  8
0
 62
   206
 10
0.0
 20
0.0
 30
0.0
 70
   128
 71
   320
 72
   290
 73
  -277
 74
  -320
  0
VERTEX
  5
4B9
  8
0
 62
   206
 10
0.0
 20
0.0
 30
0.0
 70
   128
 71
   203
 72
   290
 73
  -320
 74
  -203
  0
VERTEX
  5
4BA
  8
0
 62
   206
 10
0.0
 20
0.0
 30
0.0
 70
   128
 71
   320
 72
   202
 73
  -203
 74
  -320
  0
VERTEX
  5
4BB
  8
0
 62
   206
 10
0.0
 20
0.0
 30
0.0
 70
   128
 71
   225
 72
   226
 73
  -321
 74
  -225
  0
VERTEX
  5
4BC
  8
0
 62
   206
 10
0.0
 20
0.0
 30
0.0
 70
   128
 71
   321
 72
   256
 73
  -225
 74
  -321
  0
VERTEX
  5
4BD
  8
0
 62
   206
 10
0.0
 20
0.0
 30
0.0
 70
   128
 71
   255
 72
   256
 73
  -321
 74
  -255
  0
VERTEX
  5
4BE
  8
0
 62
   206
 10
0.0
 20
0.0
 30
0.0
 70
   128
 71
   321
 72
   309
 73
  -255
 74
  -321
  0
VERTEX
  5
4BF
  8
0
 62
   206
 10
0.0
 20
0.0
 30
0.0
 70
   128
 71
   308
 72
   309
 73
  -321
 74
  -308
  0
VERTEX
  5
4C0
  8
0
 62
   206
 10
0.0
 20
0.0
 30
0.0
 70
   128
 71
   321
 72
   322
 73
  -308
 74
  -321
  0
VERTEX
  5
4C1
  8
0
 62
   206
 10
0.0
 20
0.0
 30
0.0
 70
   128
 71
   227
 72
   322
 73
  -321
 74
  -227
  0
VERTEX
  5
4C2
  8
0
 62
   206
 10
0.0
 20
0.0
 30
0.0
 70
   128
 71
   321
 72
   226
 73
  -227
 74
  -321
  0
VERTEX
  5
4C3
  8
0
 62
   206
 10
0.0
 20
0.0
 30
0.0
 70
   128
 71
   249
 72
   250
 73
  -323
 74
  -249
  0
VERTEX
  5
4C4
  8
0
 62
   206
 10
0.0
 20
0.0
 30
0.0
 70
   128
 71
   323
 72
   292
 73
  -249
 74
  -323
  0
VERTEX
  5
4C5
  8
0
 62
   206
 10
0.0
 20
0.0
 30
0.0
 70
   128
 71
   291
 72
   292
 73
  -323
 74
  -291
  0
VERTEX
  5
4C6
  8
0
 62
   206
 10
0.0
 20
0.0
 30
0.0
 70
   128
 71
   323
 72
   311
 73
  -291
 74
  -323
  0
VERTEX
  5
4C7
  8
0
 62
   206
 10
0.0
 20
0.0
 30
0.0
 70
   128
 71
   296
 72
   311
 73
  -323
 74
  -296
  0
VERTEX
  5
4C8
  8
0
 62
   206
 10
0.0
 20
0.0
 30
0.0
 70
   128
 71
   323
 72
   317
 73
  -296
 74
  -323
  0
VERTEX
  5
4C9
  8
0
 62
   206
 10
0.0
 20
0.0
 30
0.0
 70
   128
 71
   190
 72
   317
 73
  -323
 74
  -190
  0
VERTEX
  5
4CA
  8
0
 62
   206
 10
0.0
 20
0.0
 30
0.0
 70
   128
 71
   323
 72
   250
 73
  -190
 74
  -323
  0
VERTEX
  5
4CB
  8
0
 62
   206
 10
0.0
 20
0.0
 30
0.0
 70
   128
 71
   225
 72
   257
 73
  -324
 74
  -225
  0
VERTEX
  5
4CC
  8
0
 62
   206
 10
0.0
 20
0.0
 30
0.0
 70
   128
 71
   324
 72
   222
 73
  -225
 74
  -324
  0
VERTEX
  5
4CD
  8
0
 62
   206
 10
0.0
 20
0.0
 30
0.0
 70
   128
 71
   221
 72
   222
 73
  -324
 74
  -221
  0
VERTEX
  5
4CE
  8
0
 62
   206
 10
0.0
 20
0.0
 30
0.0
 70
   128
 71
   324
 72
   264
 73
  -221
 74
  -324
  0
VERTEX
  5
4CF
  8
0
 62
   206
 10
0.0
 20
0.0
 30
0.0
 70
   128
 71
   191
 72
   264
 73
  -324
 74
  -191
  0
VERTEX
  5
4D0
  8
0
 62
   206
 10
0.0
 20
0.0
 30
0.0
 70
   128
 71
   324
 72
   193
 73
  -191
 74
  -324
  0
VERTEX
  5
4D1
  8
0
 62
   206
 10
0.0
 20
0.0
 30
0.0
 70
   128
 71
   194
 72
   193
 73
  -324
 74
  -194
  0
VERTEX
  5
4D2
  8
0
 62
   206
 10
0.0
 20
0.0
 30
0.0
 70
   128
 71
   324
 72
   257
 73
  -194
 74
  -324
  0
VERTEX
  5
4D3
  8
0
 62
   206
 10
0.0
 20
0.0
 30
0.0
 70
   128
 71
   227
 72
   287
 73
  -325
 74
  -227
  0
VERTEX
  5
4D4
  8
0
 62
   206
 10
0.0
 20
0.0
 30
0.0
 70
   128
 71
   325
 72
   322
 73
  -227
 74
  -325
  0
VERTEX
  5
4D5
  8
0
 62
   206
 10
0.0
 20
0.0
 30
0.0
 70
   128
 71
   308
 72
   322
 73
  -325
 74
  -308
  0
VERTEX
  5
4D6
  8
0
 62
   206
 10
0.0
 20
0.0
 30
0.0
 70
   128
 71
   325
 72
   306
 73
  -308
 74
  -325
  0
VERTEX
  5
4D7
  8
0
 62
   206
 10
0.0
 20
0.0
 30
0.0
 70
   128
 71
   281
 72
   306
 73
  -325
 74
  -281
  0
VERTEX
  5
4D8
  8
0
 62
   206
 10
0.0
 20
0.0
 30
0.0
 70
   128
 71
   325
 72
   319
 73
  -281
 74
  -325
  0
VERTEX
  5
4D9
  8
0
 62
   206
 10
0.0
 20
0.0
 30
0.0
 70
   128
 71
   201
 72
   319
 73
  -325
 74
  -201
  0
VERTEX
  5
4DA
  8
0
 62
   206
 10
0.0
 20
0.0
 30
0.0
 70
   128
 71
   325
 72
   287
 73
  -201
 74
  -325
  0
VERTEX
  5
4DB
  8
0
 62
   206
 10
0.0
 20
0.0
 30
0.0
 70
   128
 71
   249
 72
   293
 73
  -326
 74
  -249
  0
VERTEX
  5
4DC
  8
0
 62
   206
 10
0.0
 20
0.0
 30
0.0
 70
   128
 71
   326
 72
   248
 73
  -249
 74
  -326
  0
VERTEX
  5
4DD
  8
0
 62
   206
 10
0.0
 20
0.0
 30
0.0
 70
   128
 71
   247
 72
   248
 73
  -326
 74
  -247
  0
VERTEX
  5
4DE
  8
0
 62
   206
 10
0.0
 20
0.0
 30
0.0
 70
   128
 71
   326
 72
   302
 73
  -247
 74
  -326
  0
VERTEX
  5
4DF
  8
0
 62
   206
 10
0.0
 20
0.0
 30
0.0
 70
   128
 71
   195
 72
   302
 73
  -326
 74
  -195
  0
VERTEX
  5
4E0
  8
0
 62
   206
 10
0.0
 20
0.0
 30
0.0
 70
   128
 71
   326
 72
   198
 73
  -195
 74
  -326
  0
VERTEX
  5
4E1
  8
0
 62
   206
 10
0.0
 20
0.0
 30
0.0
 70
   128
 71
   203
 72
   198
 73
  -326
 74
  -203
  0
VERTEX
  5
4E2
  8
0
 62
   206
 10
0.0
 20
0.0
 30
0.0
 70
   128
 71
   326
 72
   293
 73
  -203
 74
  -326
  0
VERTEX
  5
4E3
  8
0
 62
   206
 10
0.0
 20
0.0
 30
0.0
 70
   128
 71
   215
 72
   216
 73
  -327
 74
  -215
  0
VERTEX
  5
4E4
  8
0
 62
   206
 10
0.0
 20
0.0
 30
0.0
 70
   128
 71
   327
 72
   267
 73
  -215
 74
  -327
  0
VERTEX
  5
4E5
  8
0
 62
   206
 10
0.0
 20
0.0
 30
0.0
 70
   128
 71
   221
 72
   267
 73
  -327
 74
  -221
  0
VERTEX
  5
4E6
  8
0
 62
   206
 10
0.0
 20
0.0
 30
0.0
 70
   128
 71
   327
 72
   224
 73
  -221
 74
  -327
  0
VERTEX
  5
4E7
  8
0
 62
   206
 10
0.0
 20
0.0
 30
0.0
 70
   128
 71
   229
 72
   224
 73
  -327
 74
  -229
  0
VERTEX
  5
4E8
  8
0
 62
   206
 10
0.0
 20
0.0
 30
0.0
 70
   128
 71
   327
 72
   328
 73
  -229
 74
  -327
  0
VERTEX
  5
4E9
  8
0
 62
   206
 10
0.0
 20
0.0
 30
0.0
 70
   128
 71
   217
 72
   328
 73
  -327
 74
  -217
  0
VERTEX
  5
4EA
  8
0
 62
   206
 10
0.0
 20
0.0
 30
0.0
 70
   128
 71
   327
 72
   216
 73
  -217
 74
  -327
  0
VERTEX
  5
4EB
  8
0
 62
   206
 10
0.0
 20
0.0
 30
0.0
 70
   128
 71
   272
 72
   243
 73
  -174
 74
  -272
  0
VERTEX
  5
4EC
  8
0
 62
   206
 10
0.0
 20
0.0
 30
0.0
 70
   128
 71
   174
 72
   329
 73
  -272
 74
  -174
  0
VERTEX
  5
4ED
  8
0
 62
   206
 10
0.0
 20
0.0
 30
0.0
 70
   128
 71
   233
 72
   232
 73
  -272
 74
  -233
  0
VERTEX
  5
4EE
  8
0
 62
   206
 10
0.0
 20
0.0
 30
0.0
 70
   128
 71
   272
 72
   329
 73
  -233
 74
  -272
  0
VERTEX
  5
4EF
  8
0
 62
   206
 10
0.0
 20
0.0
 30
0.0
 70
   128
 71
   215
 72
   268
 73
  -330
 74
  -215
  0
VERTEX
  5
4F0
  8
0
 62
   206
 10
0.0
 20
0.0
 30
0.0
 70
   128
 71
   330
 72
   214
 73
  -215
 74
  -330
  0
VERTEX
  5
4F1
  8
0
 62
   206
 10
0.0
 20
0.0
 30
0.0
 70
   128
 71
   213
 72
   214
 73
  -330
 74
  -213
  0
VERTEX
  5
4F2
  8
0
 62
   206
 10
0.0
 20
0.0
 30
0.0
 70
   128
 71
   330
 72
   315
 73
  -213
 74
  -330
  0
VERTEX
  5
4F3
  8
0
 62
   206
 10
0.0
 20
0.0
 30
0.0
 70
   128
 71
   219
 72
   315
 73
  -330
 74
  -219
  0
VERTEX
  5
4F4
  8
0
 62
   206
 10
0.0
 20
0.0
 30
0.0
 70
   128
 71
   330
 72
   312
 73
  -219
 74
  -330
  0
VERTEX
  5
4F5
  8
0
 62
   206
 10
0.0
 20
0.0
 30
0.0
 70
   128
 71
   269
 72
   312
 73
  -330
 74
  -269
  0
VERTEX
  5
4F6
  8
0
 62
   206
 10
0.0
 20
0.0
 30
0.0
 70
   128
 71
   330
 72
   268
 73
  -269
 74
  -330
  0
VERTEX
  5
4F7
  8
0
 62
   206
 10
0.0
 20
0.0
 30
0.0
 70
   128
 71
   217
 72
   273
 73
  -331
 74
  -217
  0
VERTEX
  5
4F8
  8
0
 62
   206
 10
0.0
 20
0.0
 30
0.0
 70
   128
 71
   331
 72
   328
 73
  -217
 74
  -331
  0
VERTEX
  5
4F9
  8
0
 62
   206
 10
0.0
 20
0.0
 30
0.0
 70
   128
 71
   229
 72
   328
 73
  -331
 74
  -229
  0
VERTEX
  5
4FA
  8
0
 62
   206
 10
0.0
 20
0.0
 30
0.0
 70
   128
 71
   331
 72
   305
 73
  -229
 74
  -331
  0
VERTEX
  5
4FB
  8
0
 62
   206
 10
0.0
 20
0.0
 30
0.0
 70
   128
 71
   230
 72
   305
 73
  -331
 74
  -230
  0
VERTEX
  5
4FC
  8
0
 62
   206
 10
0.0
 20
0.0
 30
0.0
 70
   128
 71
   331
 72
   231
 73
  -230
 74
  -331
  0
VERTEX
  5
4FD
  8
0
 62
   206
 10
0.0
 20
0.0
 30
0.0
 70
   128
 71
   232
 72
   231
 73
  -331
 74
  -232
  0
VERTEX
  5
4FE
  8
0
 62
   206
 10
0.0
 20
0.0
 30
0.0
 70
   128
 71
   331
 72
   273
 73
  -232
 74
  -331
  0
VERTEX
  5
4FF
  8
0
 62
   206
 10
0.0
 20
0.0
 30
0.0
 70
   128
 71
   266
 72
   191
 73
  -165
 74
  -266
  0
VERTEX
  5
500
  8
0
 62
   206
 10
0.0
 20
0.0
 30
0.0
 70
   128
 71
   165
 72
   332
 73
  -266
 74
  -165
  0
VERTEX
  5
501
  8
0
 62
   206
 10
0.0
 20
0.0
 30
0.0
 70
   128
 71
   180
 72
   269
 73
  -266
 74
  -180
  0
VERTEX
  5
502
  8
0
 62
   206
 10
0.0
 20
0.0
 30
0.0
 70
   128
 71
   266
 72
   332
 73
  -180
 74
  -266
  0
VERTEX
  5
503
  8
0
 62
   206
 10
0.0
 20
0.0
 30
0.0
 70
   128
 71
   336
 72
   335
 73
  -334
 74
  -336
  0
VERTEX
  5
504
  8
0
 62
   206
 10
0.0
 20
0.0
 30
0.0
 70
   128
 71
   334
 72
   333
 73
  -336
 74
  -334
  0
VERTEX
  5
505
  8
0
 62
   206
 10
0.0
 20
0.0
 30
0.0
 70
   128
 71
   336
 72
   338
 73
  -337
 74
  -336
  0
VERTEX
  5
506
  8
0
 62
   206
 10
0.0
 20
0.0
 30
0.0
 70
   128
 71
   337
 72
   335
 73
  -336
 74
  -337
  0
VERTEX
  5
507
  8
0
 62
   206
 10
0.0
 20
0.0
 30
0.0
 70
   128
 71
   338
 72
   340
 73
  -339
 74
  -338
  0
VERTEX
  5
508
  8
0
 62
   206
 10
0.0
 20
0.0
 30
0.0
 70
   128
 71
   339
 72
   337
 73
  -338
 74
  -339
  0
VERTEX
  5
509
  8
0
 62
   206
 10
0.0
 20
0.0
 30
0.0
 70
   128
 71
   333
 72
   334
 73
  -339
 74
  -333
  0
VERTEX
  5
50A
  8
0
 62
   206
 10
0.0
 20
0.0
 30
0.0
 70
   128
 71
   339
 72
   340
 73
  -333
 74
  -339
  0
VERTEX
  5
50B
  8
0
 62
   206
 10
0.0
 20
0.0
 30
0.0
 70
   128
 71
   338
 72
   336
 73
  -333
 74
  -338
  0
VERTEX
  5
50C
  8
0
 62
   206
 10
0.0
 20
0.0
 30
0.0
 70
   128
 71
   333
 72
   340
 73
  -338
 74
  -333
  0
VERTEX
  5
50D
  8
0
 62
   206
 10
0.0
 20
0.0
 30
0.0
 70
   128
 71
   343
 72
   342
 73
  -341
 74
  -343
  0
VERTEX
  5
50E
  8
0
 62
   206
 10
0.0
 20
0.0
 30
0.0
 70
   128
 71
   341
 72
   344
 73
  -343
 74
  -341
  0
VERTEX
  5
50F
  8
0
 62
   206
 10
0.0
 20
0.0
 30
0.0
 70
   128
 71
   348
 72
   347
 73
  -346
 74
  -348
  0
VERTEX
  5
510
  8
0
 62
   206
 10
0.0
 20
0.0
 30
0.0
 70
   128
 71
   346
 72
   345
 73
  -348
 74
  -346
  0
VERTEX
  5
511
  8
0
 62
   206
 10
0.0
 20
0.0
 30
0.0
 70
   128
 71
   346
 72
   347
 73
  -350
 74
  -346
  0
VERTEX
  5
512
  8
0
 62
   206
 10
0.0
 20
0.0
 30
0.0
 70
   128
 71
   350
 72
   349
 73
  -346
 74
  -350
  0
VERTEX
  5
513
  8
0
 62
   206
 10
0.0
 20
0.0
 30
0.0
 70
   128
 71
   349
 72
   350
 73
  -352
 74
  -349
  0
VERTEX
  5
514
  8
0
 62
   206
 10
0.0
 20
0.0
 30
0.0
 70
   128
 71
   352
 72
   351
 73
  -349
 74
  -352
  0
VERTEX
  5
515
  8
0
 62
   206
 10
0.0
 20
0.0
 30
0.0
 70
   128
 71
   352
 72
   348
 73
  -345
 74
  -352
  0
VERTEX
  5
516
  8
0
 62
   206
 10
0.0
 20
0.0
 30
0.0
 70
   128
 71
   345
 72
   351
 73
  -352
 74
  -345
  0
VERTEX
  5
517
  8
0
 62
   206
 10
0.0
 20
0.0
 30
0.0
 70
   128
 71
   349
 72
   351
 73
  -345
 74
  -349
  0
VERTEX
  5
518
  8
0
 62
   206
 10
0.0
 20
0.0
 30
0.0
 70
   128
 71
   345
 72
   346
 73
  -349
 74
  -345
  0
VERTEX
  5
519
  8
0
 62
   206
 10
0.0
 20
0.0
 30
0.0
 70
   128
 71
   355
 72
   354
 73
  -353
 74
  -355
  0
VERTEX
  5
51A
  8
0
 62
   206
 10
0.0
 20
0.0
 30
0.0
 70
   128
 71
   353
 72
   356
 73
  -355
 74
  -353
  0
VERTEX
  5
51B
  8
0
 62
   206
 10
0.0
 20
0.0
 30
0.0
 70
   128
 71
   357
 72
   342
 73
  -343
 74
  -357
  0
VERTEX
  5
51C
  8
0
 62
   206
 10
0.0
 20
0.0
 30
0.0
 70
   128
 71
   343
 72
   358
 73
  -357
 74
  -343
  0
VERTEX
  5
51D
  8
0
 62
   206
 10
0.0
 20
0.0
 30
0.0
 70
   128
 71
   341
 72
   342
 73
  -357
 74
  -341
  0
VERTEX
  5
51E
  8
0
 62
   206
 10
0.0
 20
0.0
 30
0.0
 70
   128
 71
   357
 72
   359
 73
  -341
 74
  -357
  0
VERTEX
  5
51F
  8
0
 62
   206
 10
0.0
 20
0.0
 30
0.0
 70
   128
 71
   344
 72
   341
 73
  -359
 74
  -344
  0
VERTEX
  5
520
  8
0
 62
   206
 10
0.0
 20
0.0
 30
0.0
 70
   128
 71
   359
 72
   360
 73
  -344
 74
  -359
  0
VERTEX
  5
521
  8
0
 62
   206
 10
0.0
 20
0.0
 30
0.0
 70
   128
 71
   358
 72
   343
 73
  -344
 74
  -358
  0
VERTEX
  5
522
  8
0
 62
   206
 10
0.0
 20
0.0
 30
0.0
 70
   128
 71
   344
 72
   360
 73
  -358
 74
  -344
  0
VERTEX
  5
523
  8
0
 62
   206
 10
0.0
 20
0.0
 30
0.0
 70
   128
 71
   355
 72
   356
 73
  -362
 74
  -355
  0
VERTEX
  5
524
  8
0
 62
   206
 10
0.0
 20
0.0
 30
0.0
 70
   128
 71
   362
 72
   361
 73
  -355
 74
  -362
  0
VERTEX
  5
525
  8
0
 62
   206
 10
0.0
 20
0.0
 30
0.0
 70
   128
 71
   362
 72
   356
 73
  -353
 74
  -362
  0
VERTEX
  5
526
  8
0
 62
   206
 10
0.0
 20
0.0
 30
0.0
 70
   128
 71
   353
 72
   363
 73
  -362
 74
  -353
  0
VERTEX
  5
527
  8
0
 62
   206
 10
0.0
 20
0.0
 30
0.0
 70
   128
 71
   363
 72
   353
 73
  -354
 74
  -363
  0
VERTEX
  5
528
  8
0
 62
   206
 10
0.0
 20
0.0
 30
0.0
 70
   128
 71
   354
 72
   364
 73
  -363
 74
  -354
  0
VERTEX
  5
529
  8
0
 62
   206
 10
0.0
 20
0.0
 30
0.0
 70
   128
 71
   354
 72
   355
 73
  -361
 74
  -354
  0
VERTEX
  5
52A
  8
0
 62
   206
 10
0.0
 20
0.0
 30
0.0
 70
   128
 71
   361
 72
   364
 73
  -354
 74
  -361
  0
VERTEX
  5
52B
  8
0
 62
   206
 10
0.0
 20
0.0
 30
0.0
 70
   128
 71
   335
 72
   357
 73
  -358
 74
  -335
  0
VERTEX
  5
52C
  8
0
 62
   206
 10
0.0
 20
0.0
 30
0.0
 70
   128
 71
   358
 72
   334
 73
  -335
 74
  -358
  0
VERTEX
  5
52D
  8
0
 62
   206
 10
0.0
 20
0.0
 30
0.0
 70
   128
 71
   337
 72
   359
 73
  -357
 74
  -337
  0
VERTEX
  5
52E
  8
0
 62
   206
 10
0.0
 20
0.0
 30
0.0
 70
   128
 71
   357
 72
   335
 73
  -337
 74
  -357
  0
VERTEX
  5
52F
  8
0
 62
   206
 10
0.0
 20
0.0
 30
0.0
 70
   128
 71
   334
 72
   358
 73
  -360
 74
  -334
  0
VERTEX
  5
530
  8
0
 62
   206
 10
0.0
 20
0.0
 30
0.0
 70
   128
 71
   360
 72
   339
 73
  -334
 74
  -360
  0
VERTEX
  5
531
  8
0
 62
   206
 10
0.0
 20
0.0
 30
0.0
 70
   128
 71
   367
 72
   361
 73
  -362
 74
  -367
  0
VERTEX
  5
532
  8
0
 62
   206
 10
0.0
 20
0.0
 30
0.0
 70
   128
 71
   348
 72
  -367
 73
  -362
 74
  -348
  0
VERTEX
  5
533
  8
0
 62
   206
 10
0.0
 20
0.0
 30
0.0
 70
   128
 71
  -348
 72
   362
 73
   347
 74
  -348
  0
VERTEX
  5
534
  8
0
 62
   206
 10
0.0
 20
0.0
 30
0.0
 70
   128
 71
   347
 72
   362
 73
  -363
 74
  -347
  0
VERTEX
  5
535
  8
0
 62
   206
 10
0.0
 20
0.0
 30
0.0
 70
   128
 71
   363
 72
   350
 73
  -347
 74
  -363
  0
VERTEX
  5
536
  8
0
 62
   206
 10
0.0
 20
0.0
 30
0.0
 70
   128
 71
   339
 72
   360
 73
  -364
 74
  -339
  0
VERTEX
  5
537
  8
0
 62
   206
 10
0.0
 20
0.0
 30
0.0
 70
   128
 71
   364
 72
   352
 73
  -339
 74
  -364
  0
VERTEX
  5
538
  8
0
 62
   206
 10
0.0
 20
0.0
 30
0.0
 70
   128
 71
   360
 72
   359
 73
  -363
 74
  -360
  0
VERTEX
  5
539
  8
0
 62
   206
 10
0.0
 20
0.0
 30
0.0
 70
   128
 71
   363
 72
   364
 73
  -360
 74
  -363
  0
VERTEX
  5
53A
  8
0
 62
   206
 10
0.0
 20
0.0
 30
0.0
 70
   128
 71
   359
 72
   337
 73
  -350
 74
  -359
  0
VERTEX
  5
53B
  8
0
 62
   206
 10
0.0
 20
0.0
 30
0.0
 70
   128
 71
   350
 72
   363
 73
  -359
 74
  -350
  0
VERTEX
  5
53C
  8
0
 62
   206
 10
0.0
 20
0.0
 30
0.0
 70
   128
 71
   337
 72
   339
 73
  -352
 74
  -337
  0
VERTEX
  5
53D
  8
0
 62
   206
 10
0.0
 20
0.0
 30
0.0
 70
   128
 71
   352
 72
   350
 73
  -337
 74
  -352
  0
VERTEX
  5
53E
  8
0
 62
   206
 10
0.0
 20
0.0
 30
0.0
 70
   128
 71
   182
 72
   373
 73
  -374
 74
  -182
  0
VERTEX
  5
53F
  8
0
 62
   206
 10
0.0
 20
0.0
 30
0.0
 70
   128
 71
   374
 72
   375
 73
  -182
 74
  -374
  0
VERTEX
  5
540
  8
0
 62
   206
 10
0.0
 20
0.0
 30
0.0
 70
   128
 71
   352
 72
   364
 73
  -184
 74
  -352
  0
VERTEX
  5
541
  8
0
 62
   206
 10
0.0
 20
0.0
 30
0.0
 70
   128
 71
   184
 72
   183
 73
  -352
 74
  -184
  0
VERTEX
  5
542
  8
0
 62
   206
 10
0.0
 20
0.0
 30
0.0
 70
   128
 71
   184
 72
   364
 73
  -361
 74
  -184
  0
VERTEX
  5
543
  8
0
 62
   206
 10
0.0
 20
0.0
 30
0.0
 70
   128
 71
   361
 72
   185
 73
  -184
 74
  -361
  0
VERTEX
  5
544
  8
0
 62
   206
 10
0.0
 20
0.0
 30
0.0
 70
   128
 71
   367
 72
   366
 73
  -185
 74
  -367
  0
VERTEX
  5
545
  8
0
 62
   206
 10
0.0
 20
0.0
 30
0.0
 70
   128
 71
   185
 72
   361
 73
  -367
 74
  -185
  0
VERTEX
  5
546
  8
0
 62
   206
 10
0.0
 20
0.0
 30
0.0
 70
   128
 71
   182
 72
   369
 73
  -370
 74
  -182
  0
VERTEX
  5
547
  8
0
 62
   206
 10
0.0
 20
0.0
 30
0.0
 70
   128
 71
   370
 72
   371
 73
  -182
 74
  -370
  0
VERTEX
  5
548
  8
0
 62
   206
 10
0.0
 20
0.0
 30
0.0
 70
   128
 71
   373
 72
   182
 73
  -371
 74
  -373
  0
VERTEX
  5
549
  8
0
 62
   206
 10
0.0
 20
0.0
 30
0.0
 70
   128
 71
   371
 72
   372
 73
  -373
 74
  -371
  0
VERTEX
  5
54A
  8
0
 62
   206
 10
0.0
 20
0.0
 30
0.0
 70
   128
 71
   155
 72
   153
 73
  -369
 74
  -155
  0
VERTEX
  5
54B
  8
0
 62
   206
 10
0.0
 20
0.0
 30
0.0
 70
   128
 71
   369
 72
   368
 73
  -155
 74
  -369
  0
VERTEX
  5
54C
  8
0
 62
   206
 10
0.0
 20
0.0
 30
0.0
 70
   128
 71
   153
 72
   365
 73
  -370
 74
  -153
  0
VERTEX
  5
54D
  8
0
 62
   206
 10
0.0
 20
0.0
 30
0.0
 70
   128
 71
   370
 72
   369
 73
  -153
 74
  -370
  0
VERTEX
  5
54E
  8
0
 62
   206
 10
0.0
 20
0.0
 30
0.0
 70
   128
 71
   365
 72
   366
 73
  -371
 74
  -365
  0
VERTEX
  5
54F
  8
0
 62
   206
 10
0.0
 20
0.0
 30
0.0
 70
   128
 71
   371
 72
   370
 73
  -365
 74
  -371
  0
VERTEX
  5
550
  8
0
 62
   206
 10
0.0
 20
0.0
 30
0.0
 70
   128
 71
   366
 72
   367
 73
  -372
 74
  -366
  0
VERTEX
  5
551
  8
0
 62
   206
 10
0.0
 20
0.0
 30
0.0
 70
   128
 71
   372
 72
   371
 73
  -366
 74
  -372
  0
VERTEX
  5
552
  8
0
 62
   206
 10
0.0
 20
0.0
 30
0.0
 70
   128
 71
   367
 72
   348
 73
  -373
 74
  -367
  0
VERTEX
  5
553
  8
0
 62
   206
 10
0.0
 20
0.0
 30
0.0
 70
   128
 71
   373
 72
   372
 73
  -367
 74
  -373
  0
VERTEX
  5
554
  8
0
 62
   206
 10
0.0
 20
0.0
 30
0.0
 70
   128
 71
   348
 72
   352
 73
  -374
 74
  -348
  0
VERTEX
  5
555
  8
0
 62
   206
 10
0.0
 20
0.0
 30
0.0
 70
   128
 71
   374
 72
   373
 73
  -348
 74
  -374
  0
VERTEX
  5
556
  8
0
 62
   206
 10
0.0
 20
0.0
 30
0.0
 70
   128
 71
   352
 72
   183
 73
  -375
 74
  -352
  0
VERTEX
  5
557
  8
0
 62
   206
 10
0.0
 20
0.0
 30
0.0
 70
   128
 71
   375
 72
   374
 73
  -352
 74
  -375
  0
VERTEX
  5
558
  8
0
 62
   206
 10
0.0
 20
0.0
 30
0.0
 70
   128
 71
   183
 72
   155
 73
  -368
 74
  -183
  0
VERTEX
  5
559
  8
0
 62
   206
 10
0.0
 20
0.0
 30
0.0
 70
   128
 71
   368
 72
   375
 73
  -183
 74
  -368
  0
SEQEND
  5
55A
  8
0
 62
   206
  0
ENDSEC
  0
EOF
